<svg width="99" height="99" viewBox="0 0 99 99" fill="none" xmlns="http://www.w3.org/2000/svg">
<rect x="0.549805" y="0.0411377" width="98" height="98" rx="49" fill="#B7E3F6"/>
<path d="M48.8789 67.2002C49.691 68.0402 51.8191 69.2163 53.8352 67.2002" stroke="black" stroke-width="1.22658"/>
<path d="M28.7189 80.5572C13.7662 76.3569 16.062 63.3361 19.5622 59.6398C20.7718 56.414 20.0662 52.2474 19.5622 50.5673C19.2822 48.9152 20.2007 43.7965 26.1146 36.5384C57.8686 11.2528 75.7617 37.2104 77.5258 41.5787C78.9371 45.0733 78.1139 47.5711 77.5258 48.3831C77.1618 49.6712 76.8874 53.1546 78.7019 56.7837C80.4113 59.5031 82.3611 63.6779 81.5582 67.7043C80.625 72.3844 77.6101 74.6768 75.0899 76.2729C64.3821 83.0545 34.2614 82.114 28.7189 80.5572Z" fill="#E3BC97" stroke="black" stroke-width="0.735945"/>
<path d="M48.8789 68.2924C49.691 69.1324 51.8191 70.3085 53.8352 68.2924" stroke="black" stroke-width="0.8" stroke-linecap="round"/>
<path d="M37.4253 54.432C37.4253 57.7567 34.3279 60.5327 30.4005 60.5327C26.4732 60.5327 23.3758 57.7567 23.3758 54.432C23.3758 51.1073 26.4732 48.3314 30.4005 48.3314C34.3279 48.3314 37.4253 51.1073 37.4253 54.432Z" fill="#FBF6EF" stroke="black" stroke-width="0.735945"/>
<path d="M79.3824 51.7806C79.8077 55.0276 77.2409 58.1025 73.5614 58.5844C69.882 59.0663 66.6099 56.7561 66.1847 53.5091C65.7594 50.262 68.3262 47.1872 72.0057 46.7053C75.6851 46.2234 78.9572 48.5336 79.3824 51.7806Z" fill="#FBF6EF" stroke="black" stroke-width="0.735945"/>
<path d="M49.8887 55.3498C50.4768 54.5937 51.9219 53.535 52.9973 55.3498" stroke="black" stroke-width="0.8" stroke-linecap="round"/>
<ellipse cx="33.5094" cy="54.3478" rx="2.4362" ry="2.68822" fill="#1E1E1E"/>
<path d="M59.465 36.2026C55.4888 40.8509 46.9146 49.425 44.428 46.5353C44.428 45.2584 49.9164 38.4988 52.6606 35.2786C49.4124 38.3587 41.8239 44.3343 37.4556 43.5951C36.1955 43.5951 37.0356 41.4949 44.008 36.2026C36.4476 40.9909 28.9711 44.0151 28.1311 45.0232C27.4796 45.8049 27.2829 43.9595 30.5185 40.349C24.076 46.5902 21.1167 50.1448 20.4027 51.2396C20.1687 51.6051 19.8217 52.0241 19.5627 52.054C20.8396 54.6545 20.0948 58.4189 19.5627 59.9761C14.2536 54.3982 15.5585 47.9634 16.8746 45.4432C14.9424 46.7873 14.1863 50.8195 13.4303 49.8955C12.1534 46.2664 16.2025 39.9269 18.3866 37.2107C16.8745 36.3706 11.8342 30.9943 14.1863 31.8343C16.0681 32.5064 18.0506 32.3944 18.8066 32.2544C19.2099 31.5151 21.1028 29.2582 21.9988 28.2221C28.5176 22.0393 35.6357 22.2297 38.3798 23.0978C36.1117 20.7457 31.6594 16.7974 32.0795 16.3774C37.9934 16.0414 42.2721 20.7177 43.6722 23.0978C44.613 22.6274 47.6484 18.7015 49.0485 16.7974C49.7766 15.2573 51.3335 12.2107 51.7367 12.3451C52.8792 14.8317 50.4206 19.6536 49.0485 21.7537C51.8711 18.1919 58.9611 18.1975 62.1533 18.6455C62.2373 18.8415 62.2373 19.2 61.5653 19.0655C60.9738 18.9472 58.0392 19.9918 56.1416 20.7211C61.1542 18.9256 66.1656 20.4588 68.1177 21.5017C71.1419 23.7978 78.0639 28.5917 81.5586 29.3982C85.0532 30.2046 85.6468 30.7423 85.5068 30.9103C84.7508 32.5904 78.6744 30.8543 76.8543 29.3982C82.9866 35.1945 83.8738 43.6791 82.6506 43.6791C82.3986 43.6791 80.9705 39.4788 79.9625 37.9667C80.0787 40.3688 80.0153 42.2377 79.8438 43.6791C80.5662 46.2552 81.5775 52.8357 79.8438 58.548L78.6184 56.0279C78.9544 55.6918 79.503 53.8437 79.7105 53.0877C79.8785 52.4755 79.1127 49.8115 78.9544 49.5595C78.6906 49.1394 78.0657 48.2658 77.6767 48.1314C78.805 45.5776 78.1468 43.2591 77.6767 42.419C77.5529 42.6932 77.3924 42.9469 77.1903 43.175C76.3502 43.175 72.1191 35.6986 70.5804 35.9506C70.9454 38.205 70.9352 41.1924 70.7219 42.419C70.4531 43.9647 69.8258 43.5671 69.5458 43.175C68.4817 41.2149 66.3536 36.6394 66.3536 34.0185C62.4054 45.0232 55.4329 46.5353 55.4329 45.0232C56.9786 43.8135 58.765 38.6388 59.465 36.2026Z" fill="#CE5B54"/>
<path d="M19.2266 50.8195C19.3946 48.2994 21.4948 40.2349 25.107 38.7228C23.5389 39.5068 20.1674 43.0238 19.2266 50.8195ZM19.2266 50.8195C19.1624 51.7828 19.3257 52.0813 19.5627 52.054M70.5804 35.9506C70.9454 38.205 70.9352 41.1924 70.7219 42.419C70.4531 43.9647 69.8258 43.5671 69.5458 43.175C68.4817 41.2149 66.3536 36.6394 66.3536 34.0185C62.4054 45.0232 55.4329 46.5353 55.4329 45.0232C56.9786 43.8135 58.765 38.6388 59.465 36.2026C55.4887 40.8509 46.9146 49.425 44.428 46.5353C44.428 45.2584 49.9164 38.4988 52.6606 35.2786C49.4124 38.3587 41.8239 44.3343 37.4556 43.5951C36.1955 43.5951 37.0356 41.4949 44.008 36.2026C36.4476 40.9909 28.9711 44.0151 28.1311 45.0232C27.291 46.0312 27.207 42.671 34.2635 36.7906C25.191 45.2584 21.2427 49.9515 20.4027 51.2396C20.1687 51.6051 19.8217 52.0241 19.5627 52.054M70.5804 35.9506C70.3705 34.654 70.0366 33.5998 69.5458 33.2624C69.8435 33.6265 70.4673 34.6737 70.5804 35.9506ZM70.5804 35.9506C72.1191 35.6986 76.3502 43.175 77.1903 43.175C77.3924 42.9469 77.5529 42.6932 77.6766 42.419M75.5102 33.5144C76.7997 35.5373 78.8291 39.8663 77.6766 42.419M77.6766 42.419C78.1468 43.2591 78.805 45.5776 77.6766 48.1314M77.6766 48.1314C78.3385 48.1911 79.4204 47.2381 79.8438 43.6791M77.6766 48.1314C78.0657 48.2658 78.6906 49.1394 78.9544 49.5595C79.1127 49.8115 79.8785 52.4755 79.7105 53.0877C79.503 53.8437 78.9544 55.6918 78.6184 56.0279L79.8438 58.548C81.5775 52.8357 80.5662 46.2552 79.8438 43.6791M18.8066 32.2544C19.2099 31.5151 21.1028 29.2582 21.9988 28.2221C28.5176 22.0393 35.6357 22.2297 38.3798 23.0978C36.1117 20.7457 31.6594 16.7974 32.0795 16.3774C37.9934 16.0414 42.2721 20.7177 43.6722 23.0978C44.613 22.6274 47.6484 18.7015 49.0485 16.7974C49.7766 15.2573 51.3335 12.2107 51.7367 12.3451C52.8792 14.8317 50.4206 19.6536 49.0485 21.7537C51.8711 18.1919 58.9611 18.1975 62.1533 18.6455C62.2373 18.8415 62.2373 19.2 61.5653 19.0655C60.8933 18.9311 57.197 20.2976 55.4329 20.9977C60.6748 18.7799 66.0736 20.4096 68.1177 21.5017C71.1419 23.7978 78.0639 28.5917 81.5586 29.3982C85.0532 30.2046 85.6468 30.7423 85.5068 30.9103C84.7508 32.5904 78.6744 30.8543 76.8543 29.3982C82.9866 35.1945 83.8738 43.6791 82.6506 43.6791C82.3986 43.6791 80.9705 39.4788 79.9625 37.9667C80.0787 40.3688 80.0152 42.2377 79.8438 43.6791M18.8066 32.2544C20.6827 32.2544 24.9222 31.8511 26.8711 30.2382C25.9471 30.9103 23.0405 32.2544 18.8066 32.2544ZM18.8066 32.2544C18.0506 32.3944 16.0681 32.5064 14.1863 31.8343C11.8342 30.9943 16.8745 36.3706 18.3866 37.2107M18.3866 37.2107C19.1427 36.5106 20.8228 35.0097 21.4948 34.6065C22.3349 34.1025 19.0586 36.3706 18.3866 37.2107ZM18.3866 37.2107C16.2025 39.9269 12.1534 46.2664 13.4303 49.8955C14.1863 50.8195 14.9424 46.7873 16.8746 45.4432M16.8746 45.4432C17.3506 44.0991 18.5547 41.3101 19.5627 40.9069C19.0027 41.3269 17.681 42.8222 16.8746 45.4432ZM16.8746 45.4432C15.5585 47.9634 14.2536 54.3982 19.5627 59.9761C20.0948 58.4189 20.8396 54.6545 19.5627 52.054" stroke="black" stroke-width="0.5"/>
<path d="M79.3824 51.7806C79.8077 55.0276 77.2409 58.1025 73.5614 58.5844C69.882 59.0663 66.6099 56.7561 66.1847 53.5091C65.7594 50.262 68.3262 47.1872 72.0057 46.7053C75.6851 46.2234 78.9572 48.5336 79.3824 51.7806Z" fill="#FBF6EF" stroke="black" stroke-width="0.735945"/>
<ellipse cx="70.5552" cy="52.6677" rx="2.18414" ry="2.35215" fill="#1E1E1E"/>
</svg>
