<svg width="99" height="99" viewBox="0 0 99 99" fill="none" xmlns="http://www.w3.org/2000/svg">
<rect x="0.90918" y="0.741699" width="98" height="98" rx="49" fill="#A993E2"/>
<path d="M69.7185 81.5051C69.3885 83.2378 68.6294 86.7031 68.2334 86.7031C67.8373 86.7031 67.9033 85.383 67.9859 84.7229C67.7384 85.4655 67.194 86.9011 66.996 86.7031C66.7485 86.4556 66.0059 83.4853 66.0059 83.2378C66.0059 82.9903 64.5208 83.9804 64.5208 86.9506C64.0257 87.1982 63.5307 85.4655 63.5307 84.9704C63.5307 84.4754 62.7881 85.4655 62.5406 86.4556C62.3426 87.2477 61.468 86.1256 61.0554 85.4655L40.0159 84.7229C40.0159 85.1355 39.9664 85.9605 39.7684 85.9605C39.5209 85.9605 38.5308 86.2081 38.2832 85.9605C38.0357 85.713 37.5407 85.218 36.7981 85.713C36.0555 86.2081 36.5506 85.218 36.303 85.218C36.0555 85.218 35.3129 85.9605 35.3129 86.4556C35.3129 86.9506 34.8179 84.9704 35.0654 84.2279C35.3129 83.4853 34.3232 83.4853 33.3331 87.1982C33.0855 84.9704 33.3331 84.2279 32.838 84.7229C32.343 85.218 31.8479 86.7031 31.3529 86.4556C30.8578 86.2081 31.1053 85.4655 30.8578 85.218C30.6103 84.9704 30.1153 85.218 29.8677 85.713C29.6202 86.2081 28.8776 85.4655 28.8776 84.9704C28.8777 85.548 28.8283 86.7526 28.6302 86.9506C28.3827 87.1982 27.3926 84.7229 27.3926 84.4754C27.3926 84.2279 26.6501 85.713 26.155 83.9804C25.825 84.6404 25.1649 85.812 25.1649 85.218C25.4124 84.2279 24.6699 82.2477 24.1748 82.0002C23.6798 81.7526 24.1748 84.2279 23.9273 84.7229C23.6798 85.218 20.957 81.0101 20.462 77.7922C20.0494 79.7724 19.0758 83.4853 18.4818 82.4952C18.2837 81.3071 18.3993 80.02 18.4818 79.5249C17.6567 78.5348 16.0559 75.8616 16.254 73.0893C15.9238 73.9144 15.2635 75.9606 15.2635 77.5447C15.2635 79.5249 13.5308 75.5645 14.0259 73.3368C14.2239 71.3566 14.7685 69.3764 15.016 68.6339C14.2734 69.789 12.3427 72.0497 10.5605 71.8517C11.3031 70.6141 16.0057 64.426 16.9962 60.7131C18.4813 57.0002 25.6595 40.1686 27.8872 39.6736L39.7684 32.4954L71.4515 39.6736L69.7185 81.5051Z" fill="#100D08"/>
<path d="M35.8084 80.5149C35.4124 80.1189 34.9833 79.0297 34.8183 78.5347C34.0753 79.2773 33.8287 79.2773 32.3435 79.2773C28.1356 77.2971 26.8978 73.3367 26.4028 70.8615C25.9077 68.3862 26.8978 66.6535 27.6404 66.1585C28.383 65.6635 29.8681 66.406 31.1057 67.3961C31.1057 68.6337 32.3434 71.8516 33.0856 73.0892C32.5906 71.8516 32.3431 68.8813 33.0856 64.6734C33.0856 61.307 35.7259 58.4853 37.046 57.4952C43.3166 51.3071 57.64 39.5744 64.7687 42.1487C69.4717 47.0992 69.2242 57.2476 69.4717 60.713C69.6199 62.788 68.7604 65.3622 67.9727 67.1486C68.4535 66.406 69.4721 66.1585 69.2246 70.6139C69.0266 74.1783 66.8567 75.8944 65.7964 76.307C65.7086 78.2362 65.0715 79.7099 64.2737 81.505C63.5311 84.4753 56.3529 88.9307 54.8678 89.6733C53.6301 90.1683 53.8777 90.6634 49.6698 90.1683C43.2341 89.1782 36.3035 81.0099 35.8084 80.5149Z" fill="#EAC89B"/>
<path d="M65.7964 76.307C65.7086 78.2362 65.0715 79.7099 64.2737 81.505C63.5311 84.4753 56.3529 88.9307 54.8678 89.6733C53.6301 90.1683 53.8777 90.6634 49.6698 90.1683C43.2341 89.1782 36.3035 81.0099 35.8084 80.5149C35.4124 80.1189 34.9833 79.0297 34.8183 78.5347C34.0753 79.2773 33.8287 79.2773 32.3435 79.2773C28.1356 77.2971 26.8978 73.3367 26.4028 70.8615C25.9077 68.3862 26.8978 66.6535 27.6404 66.1585C28.383 65.6635 29.8681 66.406 31.1057 67.3961C31.1057 68.6337 32.3434 71.8516 33.0856 73.0892C32.5906 71.8516 32.3431 68.8813 33.0856 64.6734C33.0856 61.307 35.7259 58.4853 37.046 57.4952C43.3166 51.3071 57.64 39.5744 64.7687 42.1487C69.4717 47.0992 69.2242 57.2476 69.4717 60.713C69.6199 62.788 68.7604 65.3622 67.9727 67.1486M65.7964 76.307C65.8176 75.842 65.8069 75.3506 65.7588 74.8218C65.5608 72.6436 66.6664 69.7889 67.244 68.6337C67.4515 68.2602 67.7081 67.7489 67.9727 67.1486M65.7964 76.307C66.8567 75.8944 69.0266 74.1783 69.2246 70.6139C69.4721 66.1585 68.4535 66.406 67.9727 67.1486" stroke="black" stroke-width="0.361414"/>
<path d="M36.0509 61.5747C35.8738 61.7043 35.7106 61.8304 35.5625 61.951C35.6096 61.8569 35.782 61.7269 36.0509 61.5747C38.5368 59.756 43.7498 57.2576 48.1862 59.4758C47.9387 59.7233 45.4635 58.9808 42.4932 59.4758C40.0879 59.8767 37.1956 60.9268 36.0509 61.5747Z" fill="#161514"/>
<path d="M35.5625 61.951C37.7902 60.1359 43.4338 57.0996 48.1862 59.4758C47.9387 59.7233 45.4635 58.9808 42.4932 59.4758C39.5229 59.9709 35.81 61.456 35.5625 61.951Z" stroke="black" stroke-width="0.361414" stroke-linecap="round"/>
<path d="M63.5327 59.2282C61.3544 58.2381 59.1597 59.3107 58.3347 59.9708C57.8396 60.4659 59.3251 59.2282 61.5528 59.2282C63.7805 59.2282 66.2554 60.9609 66.5029 60.9609C66.7505 60.9609 66.2554 60.4659 63.5327 59.2282Z" fill="#161514" stroke="black" stroke-width="0.361414" stroke-linecap="round"/>
<path d="M38.7775 59.7232C37.0449 61.9509 37.5399 62.6935 36.7974 61.2084C36.7974 60.1879 36.8839 59.1967 37.0422 58.2381C33.8219 51.3074 38.5298 48.3371 38.7773 47.5945C38.9753 47.0005 38.86 47.017 38.7775 47.0995C38.1999 47.8421 36.9952 49.2282 36.7974 48.8322C36.5995 48.4361 38.1999 45.6969 39.0248 44.3767C37.7873 46.1094 35.2132 49.3767 34.8172 48.5846C34.3221 47.5945 33.332 42.149 40.7577 36.2084C46.6983 31.456 54.2891 32.083 57.3418 32.9906C64.7676 32.4956 68.2329 36.2084 72.4408 38.9312C75.2131 41.3074 80.5266 42.8916 82.8368 43.3866C81.2527 44.5747 77.5563 45.0732 75.9061 45.1739C76.7804 46.0968 77.4345 47.2841 78.6289 49.8223C79.619 53.1886 78.8764 57.0004 78.3814 58.4856C78.1834 56.1094 76.9788 53.8958 76.4012 53.086C76.4012 54.5559 76.3022 58.04 75.9061 60.2183C75.5101 61.6044 75.5761 62.941 75.6586 63.4361C75.0646 62.842 74.6675 59.8882 74.5432 58.4856C74.2763 59.7764 73.9102 60.8821 73.6784 61.4559C73.926 63.9311 74.1735 62.941 75.6586 68.8816C77.6388 73.6341 76.9788 77.9575 76.4012 79.5251C76.4012 79.1291 75.386 76.0598 74.8784 74.5746C74.7881 77.5722 74.0066 80.3398 73.4309 81.7528C73.4309 81.1666 73.1598 79.0981 72.9185 77.3935C72.8265 80.0256 71.0405 83.8322 69.9656 85.7132C70.3616 84.3271 69.6355 79.8552 69.223 77.7925C69.025 77.9905 68.8105 80.8453 68.728 82.2479C67.9359 81.0598 67.7379 77.4624 67.7379 75.8123L66.5002 78.7826C66.5002 77.9905 66.1702 76.8024 66.0052 76.3073C69.4705 74.8222 69.4705 69.6242 69.223 67.8915C69.1649 67.4848 69.077 67.2102 68.9755 67.0315C68.731 66.601 68.4078 66.7265 68.2329 66.9014C68.827 65.7133 69.3055 63.106 69.4705 61.9509C69.6685 50.0698 66.5094 43.7992 64.9051 42.149C64.9601 44.7893 64.6851 48.7496 64.52 50.0698C64.322 51.6539 61.3022 55.5153 59.8171 57.248C59.0745 57.9905 57.7874 59.0796 58.5795 57.4955C59.3715 55.9113 59.9669 47.2645 60.1656 43.1391C59.3011 45.5231 57.9722 48.6292 56.3517 51.0599C54.9656 54.4262 50.1637 56.7529 47.9359 57.4955C46.6983 57.8255 44.5201 58.2876 45.7082 57.4955C46.6964 56.8367 49.8076 51.5665 51.9661 47.7226C49.5224 51.1176 44.3779 55.608 43.9756 56.0104C43.4805 56.5054 42.2429 57.4955 41.9954 57.248C42.1934 57.05 44.0581 54.3908 44.9656 53.086C42.4078 55.7052 39.6731 58.5718 38.7775 59.7232Z" fill="#100D08"/>
<circle cx="41.998" cy="65.63" r="3.71286" fill="#FDF7E3"/>
<ellipse cx="60.8086" cy="65.8776" rx="3.21781" ry="3.46534" fill="#FDF7E3"/>
<path d="M60.0664 69.0953C60.4789 69.1778 61.3535 69.2934 61.5516 69.0953" stroke="black" stroke-width="0.216848" stroke-linecap="round"/>
<path d="M41.0068 69.0593C41.4194 69.1418 42.393 69.2573 42.987 69.0593" stroke="black" stroke-width="0.216848" stroke-linecap="round"/>
<ellipse cx="41.9982" cy="65.3825" rx="2.22772" ry="2.97029" fill="#161514"/>
<ellipse cx="60.8097" cy="65.8775" rx="2.22772" ry="2.97029" fill="#161514"/>
<circle cx="41.0082" cy="66.1251" r="0.706431" fill="#FDF7E3" stroke="black" stroke-width="0.0722828"/>
<circle cx="59.8197" cy="66.6203" r="0.706431" fill="#FDF7E3" stroke="black" stroke-width="0.0722828"/>
<path d="M52.0327 79.0978C54.0129 79.4939 57.3132 79.2628 58.7158 79.0978C58.1383 80.5005 56.2406 83.4542 53.2703 84.0483C49.5574 84.7909 46.8347 82.3156 45.8446 80.3354C44.8545 78.3552 49.5574 78.6028 52.0327 79.0978Z" fill="#9D485B" stroke="black" stroke-width="0.361414" stroke-linecap="round"/>
<path d="M47.2644 78.9412C53.4228 78.736 55.4033 81.4405 55.7344 82.8939C51.1652 86.1768 47.4053 82.747 45.9982 80.6096C45.2428 79.4624 46.685 78.9412 47.2644 78.9412Z" fill="#C26379" stroke="black" stroke-width="0.361414" stroke-linecap="round"/>
<path d="M51.1543 85.1844C51.1543 85.1844 51.5998 85.5805 52.3919 85.1844" stroke="black" stroke-width="0.361414" stroke-linecap="round"/>
<path d="M55.8567 66.8682C55.6917 67.1982 55.6598 67.9146 55.8567 68.6008C56.0155 69.154 56.3517 69.8385 56.3516 70.086" stroke="black" stroke-width="0.274826" stroke-linecap="round"/>
<path d="M53.877 72.0661C53.877 71.9011 54.0255 71.571 54.6195 71.571" stroke="black" stroke-width="0.274826" stroke-linecap="round"/>
<path d="M56.421 70.6069C56.5158 71.1644 56.6097 71.1711 56.086 71.8238C55.6392 72.3806 55.463 72.4411 55.5394 72.5292" stroke="black" stroke-width="0.274826" stroke-linecap="round"/>
<ellipse cx="41.2554" cy="71.8186" rx="2.97029" ry="1.48514" fill="#E99C88"/>
<ellipse cx="62.2941" cy="71.8186" rx="2.22772" ry="1.48514" fill="#E99C88"/>
<path d="M60.5606 62.4124C58.9764 62.4124 58.0853 64.2276 57.8378 65.1352C57.3428 65.1352 58.3329 61.9174 60.5606 61.9174C62.7883 61.9174 63.2834 62.9075 63.7784 63.155C64.2734 63.4025 64.7686 62.4124 64.7685 62.6599C64.7683 63.155 64.356 63.32 64.0259 63.4025C64.1084 63.7325 64.2239 64.3431 64.0259 64.1451C63.0358 62.5609 61.3032 62.3299 60.5606 62.4124Z" fill="#161514"/>
<path d="M41.4901 61.9555C39.7117 61.9555 38.3148 63.9103 38.0369 64.8877C37.4812 64.8877 38.9893 61.4224 41.4901 61.4224C43.991 61.4224 43.9256 61.9555 44.4813 62.2221C45.0371 62.4886 45.224 61.4033 45.2239 61.6699C45.2237 62.203 45.3469 62.5711 44.9764 62.66C45.069 63.0154 45.6937 64.3584 45.4714 64.1451C45.0975 63.4907 44.8067 63.0055 44.2338 62.66C43.2901 62.0907 42.0089 61.9002 41.4901 61.9555Z" fill="#161514"/>
<path d="M40.0175 36.67C36.9251 37.1496 28.4229 40.6878 26.2969 39.345C24.1709 38.0023 21.9482 37.5227 21.9482 31.0966C22.6247 23.3278 28.3262 17.5731 29.7758 16.4222C31.7085 14.0244 34.0278 9.22884 34.9941 8.65337C35.9605 8.0779 37.6999 8.55746 40.9855 12.4898C43.913 15.9935 49.3049 20.463 50.4455 28.7492C50.7488 28.7492 51.2807 28.9239 51.7333 29.4918C52.7635 26.7195 54.583 30.1519 55.364 32.2146C54.2089 32.0864 51.6511 31.8574 50.661 31.9671C50.661 31.9671 48.9989 31.9922 48.6808 32.4621C43.2353 33.2047 41.7502 35.9274 40.0175 36.67Z" fill="#E92F3C"/>
<path d="M50.661 31.9671C50.661 31.9671 48.9989 31.9922 48.6808 32.4621M50.661 31.9671C50.661 30.8338 50.5851 29.763 50.4455 28.7492M50.661 31.9671C51.6511 31.8574 54.2089 32.0864 55.364 32.2146C54.583 30.1519 52.7635 26.7195 51.7333 29.4918M48.6808 32.4621C43.2353 33.2047 41.7502 35.9274 40.0175 36.67C36.9251 37.1496 28.4229 40.6878 26.2969 39.345C24.1709 38.0023 21.9482 37.5227 21.9482 31.0966C22.6247 23.3278 28.3262 17.5731 29.7758 16.4222C31.7085 14.0244 34.0278 9.22884 34.9941 8.65337C35.9605 8.0779 37.6999 8.55746 40.9855 12.4898C43.913 15.9935 49.3049 20.463 50.4455 28.7492M48.6808 32.4621C47.8836 30.1922 43.1553 26.8111 38.2848 26.274M50.4455 28.7492C50.7488 28.7492 51.2807 28.9239 51.7333 29.4918M51.7333 29.4918C52.0036 29.831 52.2456 30.3105 52.3937 30.977L51.7333 29.4918Z" stroke="#100D06" stroke-width="0.722828" stroke-linecap="round"/>
<path d="M28.1362 53.2542C27.7401 55.0363 28.1362 59.9373 28.3837 62.165C24.2251 52.066 30.7765 41.9506 34.572 38.1552C38.0374 37.1651 39.935 36.4225 40.5126 36.67C38.2849 37.4126 32.5918 44.5908 31.3542 46.076C30.1166 47.5611 28.6312 51.0264 28.1362 53.2542Z" fill="#E92F3C" stroke="#100D06" stroke-width="0.361414" stroke-linecap="round"/>
<path d="M52.8887 28.5017C53.6519 26.7559 55.2834 18.9064 57.3441 16.8681C59.92 14.3202 65.9204 10.6919 70.4044 9.701C73.9916 8.90831 75.3972 10.1257 75.6516 10.8334C76.224 11.3996 78.328 14.3366 77.6411 23.0562C79.0085 26.6422 78.328 31.8638 77.6411 37.4126C76.588 38.1552 74.074 39.4918 72.4431 38.8977C70.4044 37.9076 61.057 30.977 57.8392 32.9572C55.859 32.5611 55.1989 32.2971 55.1164 32.2146L54.6213 30.4819C54.4563 30.0694 53.8788 29.0958 52.8887 28.5017Z" fill="#E92F3C"/>
<path d="M54.6213 30.4819L55.1164 32.2146C55.1989 32.2971 55.859 32.5611 57.8392 32.9572C61.057 30.977 70.4044 37.9076 72.4431 38.8977C74.074 39.4918 76.588 38.1552 77.6411 37.4126C78.328 31.8638 79.0085 26.6422 77.6411 23.0562C78.328 14.3366 76.224 11.3996 75.6516 10.8334C75.3972 10.1257 73.9916 8.90831 70.4044 9.701C65.9204 10.6919 59.92 14.3202 57.3441 16.8681C55.2834 18.9064 53.6519 26.7559 52.8887 28.5017C53.8788 29.0958 54.4563 30.0694 54.6213 30.4819ZM54.6213 30.4819C56.024 28.0067 59.7203 23.0562 63.2847 23.0562C59.8193 24.3927 59.3243 23.5513 54.6213 30.4819Z" stroke="#100D06" stroke-width="0.722828" stroke-linecap="round"/>
</svg>
