<svg width="99" height="99" viewBox="0 0 99 99" fill="none" xmlns="http://www.w3.org/2000/svg">
<rect x="0.760742" y="0.122681" width="98" height="98" rx="49" fill="#8B84B8"/>
<path d="M68.3351 34.7186L67.3627 37.344C65.3401 37.344 61.1395 33.0008 59.292 30.8291C62.5008 10.7983 65.6618 9.74318 66.2452 9.45147C66.8287 9.15976 67.3255 11.203 67.4227 12.0781C67.5199 12.9532 68.0691 18.0022 68.1406 18.8689C68.2378 20.0485 68.724 24.4115 68.724 26.1617C68.724 27.562 68.3351 28.6899 68.1406 29.0789L68.724 28.6899L68.1406 32.1905L68.724 31.8015L67.9461 34.5241L68.3351 34.7186Z" fill="#7EB5AF" stroke="black" stroke-width="0.283956" stroke-linecap="round"/>
<path d="M64.2515 32.3852C65.9629 33.552 64.6405 34.2975 63.7654 34.5244C58.5145 32.9686 60.751 25.5786 62.793 22.2725C64.835 18.9664 63.9598 26.2592 63.7654 27.3288C63.5709 28.3984 63.0847 30.9266 64.2515 32.3852Z" fill="#508C7E"/>
<path d="M23.8978 42.3035C25.1424 42.3035 28.5004 39.5808 30.0238 38.2195C28.6553 35.8246 28.4905 32.3264 28.8236 29.2737C29.0586 27.1206 29.5412 25.1892 30.0238 24.0229C31.1295 21.3508 34.7673 9.59805 38.2068 7.29806C38.397 7.17087 38.5866 7.07259 38.7751 7.00635C41.5403 9.11312 44.779 20.9803 46.6523 29.2737L48.4015 30.7322V29.7599L50.1518 31.1212V30.246L51.0269 31.3157H51.9993C51.7721 30.9371 52.0793 30.1593 52.2751 29.7894C52.2797 29.7788 52.285 29.7689 52.291 29.7599C52.2858 29.7694 52.2805 29.7792 52.2751 29.7894C52.1623 30.0524 52.493 30.7785 52.6799 31.1212L53.6523 29.2737V30.7322C54.8191 27.5234 60.2644 19.2582 61.2368 17.4107C62.5009 15.9522 63.2788 12.6461 64.7373 10.1179C65.9042 8.0954 66.3904 8.82144 66.4876 9.43728C65.4763 9.12612 64.1215 15.2067 63.5705 18.2859C63.4084 19.712 63.1232 23.0505 63.2788 24.9952C63.4733 27.4262 61.0423 31.6074 61.334 32.1908C61.5674 32.6575 62.5981 31.0888 63.0843 30.246L62.2092 33.1632C62.6305 32.7742 63.4344 32.0352 63.2788 32.1908C63.1232 32.3464 63.0843 33.0335 63.0843 33.3576L64.9318 35.6913L64.7373 34.33L66.5849 37.1499C66.4228 36.6637 66.1376 35.6913 66.2931 35.6913C66.4876 35.6913 70.9605 43.3731 71.7384 44.151C72.3607 44.7733 72.3867 47.846 72.3218 49.3046C73.3331 49.3823 72.7432 51.1521 72.3218 52.0272C72.6136 52.0272 73.1386 52.105 72.9053 52.4161C72.6136 52.8051 72.5163 54.5554 72.5163 55.7222C72.5163 56.6557 74.0721 58.1856 74.85 58.8338L73.3915 58.1531C74.5583 60.0979 73.8776 61.8609 73.3915 62.4993C73.309 63.5419 73.07 64.5906 72.5163 64.9597V66.9045C72.5163 66.2822 72.1274 66.0618 71.9329 66.0294C71.2328 66.3405 71.2522 68.2334 71.3495 69.1409C71.6412 70.2754 72.458 72.7971 73.3915 73.8083C74.3249 74.8196 74.299 75.591 74.1694 75.8503C75.2584 78.1062 73.5211 79.9019 72.5163 80.5177C72.6136 80.8742 72.5941 81.8207 71.7384 82.7542C70.6688 83.921 66.9738 86.3519 66.2931 86.0602C65.5152 85.6713 65.0615 85.8333 64.9318 85.963C64.4651 86.8965 62.0147 87.6484 60.8479 87.9077L61.1396 87.4215H57.5418L58.9031 87.0326H55.6943L56.1805 86.5464C52.6799 86.1575 47.4615 81.9114 45.2899 79.837C44.8744 79.4216 44.3596 78.6937 43.1507 78.879C42.9449 78.9106 42.719 78.9686 42.47 79.0591C40.3308 79.837 36.5385 78.184 35.4689 77.7951C34.6132 77.4839 33.2325 77.7951 32.6491 77.9895C32.4935 77.9117 33.2325 77.2172 33.6214 76.8796C32.3147 77.053 30.4648 77.6252 29.4402 77.9895C29.3624 77.6784 31.7415 76.3121 32.9408 75.6679C32.0851 75.4441 28.8892 76.9928 27.3982 77.7951C27.7596 77.1421 28.4839 75.941 28.9079 75.5721C28.7587 75.6033 28.6308 75.6357 28.5734 75.6636C28.5704 75.6651 28.5677 75.6665 28.5651 75.6679C27.3057 76.3167 25.6238 78.1775 24.7728 79.2536C24.0727 79.0202 24.157 77.9247 24.2867 77.4061C23.2754 76.7838 23.9949 74.0352 24.4811 72.7387C23.781 73.2055 22.7633 75.4614 22.3419 76.531C21.953 75.9865 22.1798 74.1 22.3419 73.2249C21.3306 71.5135 23.0874 68.1177 24.0922 66.6338C22.9804 67.1833 21.5007 68.6386 20.7861 69.4327C20.7083 68.4992 22.3095 66.1914 23.1199 65.1542C22.1087 64.9208 20.4945 66.4831 19.8137 67.2934C19.5804 66.36 20.7537 64.4411 21.3695 63.5984C20.9805 63.5984 19.7165 64.6356 19.1331 65.1542C19.1331 64.7653 19.7813 63.5012 20.1055 62.9178C19.6387 62.84 17.6421 64.117 16.7021 64.7653C17.1689 63.754 18.971 61.8157 19.8137 60.973C19.9693 58.5615 21.564 56.727 22.3419 56.1112C21.7974 55.9556 19.5221 58.5097 18.4525 59.8062C18.1413 58.1726 20.5917 54.8471 21.8558 53.3885C21.7002 53.3885 20.2352 54.0368 19.5221 54.3609C19.5221 53.7386 21.9206 51.2493 23.1199 50.0824C21.5641 51.4049 19.6193 51.0872 18.8414 50.7631C21.4085 49.9074 24.384 47.1005 25.5508 45.804C24.6173 45.1039 23.5412 45.5123 23.1199 45.804C23.5088 44.0537 27.7872 42.6924 27.1066 42.6924C26.4259 42.6924 22.342 42.3035 23.8978 42.3035Z" fill="white"/>
<path d="M47.5265 33.3576C47.2874 32.1673 46.9924 30.7794 46.6523 29.2737M21.8558 53.3885C21.7002 53.3885 20.2352 54.0368 19.5221 54.3609C19.5221 53.7386 21.9206 51.2493 23.1199 50.0824C21.5641 51.4049 19.6193 51.0872 18.8414 50.7631C21.4085 49.9074 24.384 47.1005 25.5508 45.804C24.6173 45.1039 23.5412 45.5123 23.1199 45.804C23.5088 44.0537 27.7872 42.6924 27.1066 42.6924C26.4259 42.6924 22.342 42.3035 23.8978 42.3035C25.1424 42.3035 28.5004 39.5808 30.0238 38.2195C28.6553 35.8246 28.4905 32.3264 28.8236 29.2737M21.8558 53.3885C22.0114 53.3885 23.2819 52.3513 23.8978 51.8327M21.8558 53.3885C20.5917 54.8471 18.1413 58.1726 18.4525 59.8062C19.5221 58.5097 21.7974 55.9556 22.3419 56.1112C21.564 56.727 19.9693 58.5615 19.8137 60.973M19.8137 60.973C20.2999 60.4544 21.3306 59.1839 21.564 58.2504M19.8137 60.973C18.971 61.8157 17.1689 63.754 16.7021 64.7653C17.6421 64.117 19.6387 62.84 20.1055 62.9178M20.1055 62.9178L21.0778 62.1399M20.1055 62.9178C19.7813 63.5012 19.1331 64.7653 19.1331 65.1542C19.7165 64.6356 20.9805 63.5984 21.3695 63.5984C20.7537 64.4411 19.5804 66.36 19.8137 67.2934C20.4945 66.4831 22.1087 64.9209 23.1199 65.1542M23.1199 65.1542L23.8978 64.5708M23.1199 65.1542C22.3095 66.1914 20.7083 68.4992 20.7861 69.4327C21.5007 68.6386 22.9804 67.1833 24.0922 66.6338M24.7728 66.4183C24.5731 66.4326 24.3419 66.5103 24.0922 66.6338M24.0922 66.6338C23.0874 68.1177 21.3306 71.5135 22.3419 73.2249M22.3419 73.2249C22.9253 71.896 24.1311 69.2382 24.2867 69.2382M22.3419 73.2249C22.1798 74.1 21.953 75.9864 22.3419 76.531C22.7633 75.4614 23.781 73.2055 24.4811 72.7387C23.9949 74.0352 23.2754 76.7838 24.2867 77.4061M24.2867 77.4061C24.6108 76.4337 25.3368 74.5084 25.648 74.5862M24.2867 77.4061C24.157 77.9247 24.0727 79.0203 24.7728 79.2536C25.6238 78.1775 27.3057 76.3167 28.5651 75.6679M28.5651 75.6679C28.6899 75.5997 29.2653 75.5018 29.5375 75.4614C29.4107 75.4276 29.2682 75.4294 29.1135 75.4614M28.5651 75.6679C28.7595 75.5677 28.9439 75.4964 29.1135 75.4614M29.1135 75.4614C28.7744 75.4614 27.8287 77.0172 27.3982 77.7951C28.8892 76.9928 32.0851 75.4441 32.9408 75.6679C31.7415 76.3121 29.3624 77.6784 29.4402 77.9895C30.4648 77.6252 32.3147 77.053 33.6214 76.8796M33.6214 76.8796C34.1749 76.8061 34.6309 76.8042 34.8855 76.9199C34.8207 76.8407 34.4771 76.7217 33.6214 76.8796ZM33.6214 76.8796C33.2325 77.2172 32.4935 77.9117 32.6491 77.9895C33.2325 77.7951 34.6132 77.4839 35.4689 77.7951C36.5385 78.184 40.3308 79.837 42.47 79.0591C42.719 78.9686 42.9449 78.9106 43.1507 78.879M72.5163 64.9597C72.5163 65.6048 72.5163 66.4347 72.5163 66.9045C72.5163 66.2822 72.1274 66.0618 71.9329 66.0294C71.2328 66.3405 71.2522 68.2334 71.3495 69.1409C71.6412 70.2754 72.458 72.7971 73.3915 73.8083C74.3249 74.8196 74.299 75.591 74.1694 75.8503C75.2584 78.1062 73.5211 79.9019 72.5163 80.5177C72.6136 80.8742 72.5941 81.8207 71.7384 82.7542C70.6688 83.921 66.9738 86.3519 66.2931 86.0602C65.5152 85.6713 65.0615 85.8333 64.9318 85.963C64.4651 86.8965 62.0147 87.6484 60.8479 87.9077L61.1396 87.4215H57.5418L58.9031 87.0326H55.6943L56.1805 86.5464C52.6799 86.1575 47.4615 81.9114 45.2899 79.837C44.8744 79.4216 44.3596 78.6937 43.1507 78.879M72.5163 64.9597C72.5163 64.6256 72.5163 64.3411 72.5163 64.1818V64.9597ZM72.5163 64.9597C73.07 64.5906 73.309 63.5419 73.3915 62.4993M73.3915 60.5841C73.431 61.072 73.448 61.7842 73.3915 62.4993M73.3915 62.4993C73.8776 61.8609 74.5583 60.0979 73.3915 58.1531L74.85 58.8338C74.0721 58.1856 72.5163 56.6557 72.5163 55.7222C72.5163 54.5554 72.6136 52.8051 72.9053 52.4161C73.1386 52.105 72.6136 52.0272 72.3218 52.0272C72.7432 51.1521 73.3331 49.3823 72.3218 49.3045C72.3867 47.846 72.3607 44.7733 71.7384 44.151C70.9605 43.3731 66.4876 35.6913 66.2931 35.6913C66.1376 35.6913 66.4228 36.6637 66.5849 37.1499L64.7373 34.33L64.9318 35.6913L63.0843 33.3576C63.0843 33.0335 63.1232 32.3464 63.2788 32.1908C63.4344 32.0352 62.6305 32.7742 62.2092 33.1632L63.0843 30.246C62.5981 31.0888 61.5674 32.6575 61.334 32.1908C61.0423 31.6074 63.4733 27.4262 63.2788 24.9952C63.1232 23.0505 63.4084 19.712 63.5705 18.2859C64.1215 15.2067 65.4763 9.12612 66.4876 9.43728C66.3904 8.82144 65.9042 8.0954 64.7373 10.1179C63.2788 12.6461 62.5009 15.9522 61.2368 17.4107C60.2644 19.2582 54.8191 27.5234 53.6523 30.7322V29.2737L52.6799 31.1212C52.4855 30.7646 52.1354 29.9932 52.291 29.7599C52.0965 30.1164 51.7659 30.9267 51.9993 31.3157H51.0269L50.1518 30.246V31.1212L48.4015 29.7599V30.7322M48.4015 30.7322L48.9849 31.3157M48.4015 30.7322L46.6523 29.2737M46.6523 29.2737C44.779 20.9803 41.5403 9.11312 38.7751 7.00635C38.5866 7.07259 38.397 7.17087 38.2068 7.29806M28.8236 29.2737C29.0586 27.1206 29.5412 25.1892 30.0238 24.0229C31.1295 21.3508 34.7673 9.59805 38.2068 7.29806M28.8236 29.2737C28.9968 31.4129 29.6736 35.8664 30.996 36.5665C32.3184 37.2666 33.8807 36.4044 34.4966 35.8858L33.7187 35.5941C34.4642 35.3348 36.0135 34.8162 36.2468 34.8162C36.4802 34.8162 34.6586 34.8162 33.7187 34.8162C34.5614 34.3624 36.4802 33.5521 37.4137 33.9411L35.5662 32.677L38.5805 33.0659C38.1916 32.288 37.4915 30.635 37.8026 30.246C38.1138 29.8571 39.0991 31.186 39.5529 31.8991C39.2288 30.7322 38.7167 28.3208 39.2612 28.0096C39.7474 28.6903 41.1087 32.7742 41.9838 33.0659C41.5301 30.5053 40.6031 24.9563 40.5253 23.245C40.4475 21.5336 40.3632 14.8177 40.3308 11.6737C40.2761 10.6041 39.7748 8.23154 38.2068 7.29806M43.1507 78.879C42.3728 78.4853 40.7586 77.62 40.5253 77.3089C41.0115 77.4385 42.0616 77.6978 42.3728 77.6978" stroke="black" stroke-width="0.283956" stroke-linecap="round"/>
<path d="M52.0371 60.5779C51.1076 60.4744 48.1431 59.7659 46.748 59.4171C47.137 58.1854 48.051 55.7221 48.5956 55.7221C49.1401 55.7221 49.341 54.6849 49.3735 54.1663C49.5679 54.5228 50.093 55.3526 50.6375 55.8193C51.3182 56.4027 53.9436 56.9861 54.916 56.8889C55.6939 56.8111 55.2401 55.0414 54.916 54.1663C55.5383 53.9329 56.4069 55.6897 56.7635 56.5972C56.9969 55.8193 56.8607 54.0042 56.7635 53.1939C57.1524 54.283 58.3517 55.6572 58.9027 56.2083C59.8362 55.7415 59.2917 53.6153 58.9027 52.6105C61.0419 53.7773 60.0696 56.2083 60.8474 56.2083C61.4698 56.2083 63.246 54.1987 64.0563 53.1939V54.458L65.2231 52.9994L64.6397 56.5972C65.3204 57.1158 66.4678 58.1724 65.6121 58.2502C64.5425 58.3475 64.8342 59.9033 64.2508 60.195C63.784 60.4283 62.7598 60.0977 62.306 59.9033C62.6172 57.9585 61.5929 58.7688 61.0419 59.4171L59.7778 58.4447C59.6806 59.255 59.3694 60.8756 58.9027 60.8756C58.3193 60.8756 56.958 59.4171 55.4022 59.4171C54.1575 59.4171 54.1705 60.195 54.3326 60.5839L51.8044 59.0281C51.7115 59.5237 51.6363 60.4928 52.0371 60.5779C52.0578 60.5802 52.0775 60.5822 52.0961 60.5839C52.0754 60.5839 52.0557 60.5819 52.0371 60.5779Z" fill="#71A6C8"/>
<path d="M47.0392 55.0417C48.7894 55.1389 49.2756 56.6947 49.5673 57.9588C49.6007 58.1035 49.6465 58.2326 49.7014 58.3478C49.1549 58.3478 48.3033 59.1257 47.3309 59.2229C44.4796 59.5146 41.9828 56.3058 41.7884 55.8196C41.6328 55.4306 40.5567 54.1666 40.0381 53.5831C41.3022 54.361 45.2889 54.9445 47.0392 55.0417Z" fill="#F6E7C8"/>
<path d="M51.0259 59.2229C50.6926 59.2229 50.0308 59.0372 49.7014 58.3478M49.7014 58.3478C49.6465 58.2326 49.6007 58.1035 49.5673 57.9588C49.2756 56.6947 48.7894 55.1389 47.0392 55.0417C45.2889 54.9445 41.3022 54.361 40.0381 53.5831C40.5567 54.1666 41.6328 55.4306 41.7884 55.8196C41.9828 56.3058 44.4796 59.5146 47.3309 59.2229C48.3033 59.1257 49.1549 58.3478 49.7014 58.3478Z" stroke="black" stroke-width="0.283956" stroke-linecap="round"/>
<mask id="mask0_188_3252" style="mask-type:alpha" maskUnits="userSpaceOnUse" x="39" y="53" width="13" height="7">
<path d="M47.0382 55.0418C48.7885 55.139 49.2746 56.6948 49.5664 57.9589C49.5997 58.1036 49.6455 58.2328 49.7005 58.3479C49.1539 58.3479 48.3023 59.1258 47.3299 59.223C44.4786 59.5147 41.9819 56.3059 41.7874 55.8197C41.6318 55.4308 40.5557 54.1667 40.0371 53.5833C41.3012 54.3611 45.2879 54.9446 47.0382 55.0418Z" fill="#D9D9D9"/>
<path d="M51.0249 59.223C50.6916 59.223 50.0299 59.0374 49.7005 58.3479M49.7005 58.3479C49.6455 58.2328 49.5997 58.1036 49.5664 57.9589C49.2746 56.6948 48.7885 55.139 47.0382 55.0418C45.2879 54.9446 41.3012 54.3611 40.0371 53.5833C40.5557 54.1667 41.6318 55.4308 41.7874 55.8197C41.9819 56.3059 44.4786 59.5147 47.3299 59.223C48.3023 59.1258 49.1539 58.3479 49.7005 58.3479Z" stroke="black" stroke-width="0.283956" stroke-linecap="round"/>
</mask>
<g mask="url(#mask0_188_3252)">
<path d="M48.5494 56.6949C48.5494 58.0616 47.3989 59.1783 45.9687 59.1783C44.5386 59.1783 43.3881 58.0616 43.3881 56.6949C43.3881 55.3281 44.5386 54.2114 45.9687 54.2114C47.3989 54.2114 48.5494 55.3281 48.5494 56.6949Z" fill="#374129" stroke="black" stroke-width="0.283956"/>
</g>
<path d="M47.9674 56.6948C47.9674 57.4313 47.4124 58.0113 46.748 58.0113C46.0837 58.0113 45.5287 57.4313 45.5287 56.6948C45.5287 55.9583 46.0837 55.3782 46.748 55.3782C47.4124 55.3782 47.9674 55.9583 47.9674 56.6948Z" fill="#030003" stroke="black" stroke-width="0.283956"/>
<circle cx="44.3165" cy="56.3062" r="0.875135" fill="#FBFFFB"/>
<path d="M51.0259 59.2229C50.6926 59.2229 50.0308 59.0372 49.7014 58.3478M49.7014 58.3478C49.6465 58.2326 49.6007 58.1035 49.5673 57.9588C49.2756 56.6947 48.7894 55.1389 47.0392 55.0417C45.2889 54.9445 41.3022 54.361 40.0381 53.5831C40.5567 54.1666 41.6328 55.4306 41.7884 55.8196C41.9828 56.3058 44.4796 59.5146 47.3309 59.2229C48.3033 59.1257 49.1549 58.3478 49.7014 58.3478Z" stroke="black" stroke-width="0.283956" stroke-linecap="round"/>
<path d="M65.8066 55.236C65.1065 55.3915 64.1536 57.3752 63.7646 58.3476C64.3481 57.7641 65.126 58.2503 66.3901 58.3476C68.8793 58.3476 69.5665 54.3284 69.5989 52.3188C69.1127 54.0691 66.6818 55.0415 65.8066 55.236Z" fill="#F6E7C8" stroke="black" stroke-width="0.283956" stroke-linecap="round"/>
<mask id="mask1_188_3252" style="mask-type:alpha" maskUnits="userSpaceOnUse" x="63" y="52" width="7" height="7">
<path d="M65.8057 55.2358C65.1055 55.3914 64.1526 57.3751 63.7637 58.3474C64.3471 57.764 65.125 58.2502 66.3891 58.3474C68.8784 58.3474 69.5655 54.3283 69.5979 52.3187C69.1117 54.069 66.6808 55.0414 65.8057 55.2358Z" fill="#D9D9D9" stroke="black" stroke-width="0.283956" stroke-linecap="round"/>
</mask>
<g mask="url(#mask1_188_3252)">
<path d="M69.3437 56.0852C69.2934 56.6998 69.0613 57.2355 68.7334 57.6055C68.4056 57.9754 67.9892 58.1735 67.562 58.1385C67.1348 58.1036 66.7562 57.8405 66.4928 57.4222C66.2295 57.0039 66.0875 56.4376 66.1378 55.823C66.188 55.2083 66.4201 54.6726 66.748 54.3027C67.0758 53.9327 67.4922 53.7347 67.9194 53.7697C68.3466 53.8046 68.7253 54.0677 68.9886 54.486C69.252 54.9043 69.3939 55.4706 69.3437 56.0852Z" fill="#374129" stroke="black" stroke-width="0.283956"/>
</g>
<mask id="mask2_188_3252" style="mask-type:alpha" maskUnits="userSpaceOnUse" x="63" y="52" width="7" height="7">
<path d="M65.8057 55.2358C65.1055 55.3914 64.1526 57.3751 63.7637 58.3474C64.3471 57.764 65.125 58.2502 66.3891 58.3474C68.8784 58.3474 69.5655 54.3283 69.5979 52.3187C69.1117 54.069 66.6808 55.0414 65.8057 55.2358Z" fill="#D9D9D9" stroke="black" stroke-width="0.283956" stroke-linecap="round"/>
</mask>
<g mask="url(#mask2_188_3252)">
<path d="M68.2573 55.4984C68.2398 55.8537 68.1417 56.1644 68.0046 56.3792C67.8649 56.5978 67.7039 56.692 67.5622 56.685C67.4205 56.678 67.2695 56.5685 67.152 56.3372C67.0366 56.11 66.9695 55.7912 66.987 55.4359C67.0045 55.0805 67.1026 54.7698 67.2397 54.5551C67.3794 54.3364 67.5404 54.2423 67.6821 54.2493C67.8238 54.2562 67.9748 54.3657 68.0923 54.597C68.2077 54.8242 68.2748 55.143 68.2573 55.4984Z" fill="#030003" stroke="black" stroke-width="0.283956"/>
</g>
<path d="M65.8066 55.236C65.1065 55.3915 64.1536 57.3752 63.7646 58.3476C64.3481 57.7641 65.126 58.2503 66.3901 58.3476C68.8793 58.3476 69.5665 54.3284 69.5989 52.3188C69.1127 54.0691 66.6818 55.0415 65.8066 55.236Z" stroke="black" stroke-width="0.283956" stroke-linecap="round"/>
<ellipse cx="66.6825" cy="56.4999" rx="0.486186" ry="0.680661" fill="#FBFFFB"/>
<path d="M38.0772 13.4241C38.4662 10.4681 39.6654 12.7758 40.2164 14.2992L40.5227 23.9436L35.8129 29.6497L35.2744 32.4574V34.1356L33.8158 34.8163H35.7606L34.2048 35.4969C33.6862 35.3673 32.5518 34.7579 32.1628 33.3577C31.1904 31.6074 35.5661 21.3975 36.2467 20.4252C36.9274 19.4528 37.591 17.1191 38.0772 13.4241Z" fill="#A1D4D2"/>
<path d="M36.5381 28.0093C35.5268 29.4874 35.1787 32.7194 35.1787 34.178C36.1511 33.7891 36.8996 33.7251 37.316 33.9408L35.541 32.6383L38.6773 33.1629C38.3856 32.8388 37.7827 31.8794 37.7049 30.6348C37.6271 29.3901 38.9042 30.9589 39.5524 31.8988C39.0079 30.0319 38.6773 29.1059 39.2545 27.9285C39.9791 29.2871 41.1565 32.3665 41.8811 32.91L40.7193 25.384C40.6221 24.5736 40.2525 22.389 39.5524 20.1331C38.6773 17.3133 38.2884 19.6469 37.9966 20.1331C37.7049 20.6193 37.8022 26.1618 36.5381 28.0093Z" fill="#4B897C"/>
<path d="M65.3183 81.782C68.2743 84.1935 71.4118 81.9441 72.6111 80.518C74.9448 78.9622 74.6206 76.6933 74.1668 75.7533C73.1944 74.8782 72.0276 74.8782 71.7359 74.8782C71.4442 74.8782 70.6663 75.3644 70.0828 75.3644C69.6161 75.3644 68.9808 75.0403 68.7215 74.8782L68.3326 75.5589L67.3602 74.6837V75.3644L66.2906 74.9754L66.6796 75.5589C62.7901 75.2671 60.4564 76.3368 60.9426 77.7953C61.4093 79.8179 63.4708 81.4255 64.4432 81.9765C64.6765 81.5098 65.1238 81.6524 65.3183 81.782Z" fill="#013346"/>
<path d="M69.3049 81.782C69.8235 81.3931 70.8413 80.0512 70.7635 77.7953M72.6111 80.518C71.4118 81.9441 68.2743 84.1935 65.3183 81.782C65.1238 81.6524 64.6765 81.5098 64.4432 81.9765C63.4708 81.4255 61.4093 79.8179 60.9426 77.7953C60.4564 76.3368 62.7901 75.2671 66.6796 75.5589L66.2906 74.9754L67.3602 75.3644V74.6837L68.3326 75.5589L68.7215 74.8782C68.9808 75.0403 69.6161 75.3644 70.0828 75.3644C70.6663 75.3644 71.4442 74.8782 71.7359 74.8782C72.0276 74.8782 73.1944 74.8782 74.1668 75.7533C74.6206 76.6933 74.9448 78.9622 72.6111 80.518Z" stroke="black" stroke-width="0.283956" stroke-linecap="round"/>
<path d="M67.0684 79.1567C66.446 80.0124 65.8367 79.6429 65.6098 79.3512C64.7347 78.8974 63.0233 77.8148 63.1789 77.1147C63.3733 76.2396 69.1103 76.2396 69.9855 76.5313C70.8606 76.823 69.5965 77.9898 69.1103 77.9898C68.6242 77.9898 67.8463 78.0871 67.0684 79.1567Z" fill="#ACCFEB"/>
<ellipse cx="64.8317" cy="80.7389" rx="0.680661" ry="1.26408" transform="rotate(-43.1356 64.8317 80.7389)" fill="#020004"/>
<path d="M43.2479 73.0306C43.7341 73.0306 48.4987 77.7952 48.8877 78.2814C49.0561 78.492 49.5361 79.1869 50.0438 79.9344C48.9849 79.1565 45.5816 75.9477 44.4147 75.5588C42.2327 74.8314 40.5901 73.0468 40.0391 72.2527C40.9142 73.3223 42.7617 73.0306 43.2479 73.0306Z" fill="#020004"/>
<path d="M65.029 85.9631C61.6581 86.4169 54.1774 86.1965 51.2213 81.6847M51.2213 81.6847L52.0965 81.8792M51.2213 81.6847C50.924 81.2387 50.474 80.5677 50.0438 79.9344M50.0438 79.9344C49.5361 79.1869 49.0561 78.492 48.8877 78.2814C48.4987 77.7952 43.7341 73.0306 43.2479 73.0306C42.7617 73.0306 40.9142 73.3223 40.0391 72.2527C40.5901 73.0468 42.2327 74.8314 44.4147 75.5588C45.5816 75.9477 48.9849 79.1565 50.0438 79.9344Z" stroke="black" stroke-width="0.283956" stroke-linecap="round"/>
<path d="M37.5113 72.836C37.4788 71.2802 37.9586 68.4798 40.1367 69.7244M35.0803 72.0582C34.3997 69.6272 34.7692 65.446 41.6925 68.1687M47.235 61.8482C45.5496 62.5937 41.8286 63.5013 40.4284 61.1676M41.887 60.2924C42.5676 60.8435 44.6679 61.7121 47.624 60.7786C49.0825 60.0007 49.8604 59.8063 50.1521 60.2924M65.2239 58.9311C65.6777 59.1904 66.7797 59.534 67.5576 58.8339M66.5852 60.1952C67.1686 60.1952 68.3938 59.8841 68.6272 58.6394M61.6261 57.2781C62.0475 57.3429 63.0069 57.0447 63.4736 55.3334C64.057 53.1941 64.057 52.4162 64.6405 51.8328M64.3488 54.361C64.8674 52.9997 66.099 50.3548 66.8769 50.666M64.3488 55.6251C65.5156 54.7499 67.8687 52.9608 67.9465 52.8052M58.6118 57.8615C59.1952 57.1484 60.0509 55.0222 58.8062 52.2218M59.3897 51.8328C59.0979 51.217 58.4951 49.8686 58.4173 49.4019M57.6394 46.9709L58.6118 48.8185M54.1388 53.3886C54.9816 54.1017 56.6281 55.8584 56.4725 56.7919C56.317 57.7254 55.8891 58.4449 55.6946 58.7367M44.1234 50.8604C44.2206 51.0549 44.5124 51.5217 44.9013 51.8328M45.2903 51.4439C45.8737 51.8652 47.235 52.7468 48.0129 52.9024C48.9853 53.0969 50.4438 55.8195 50.6383 56.1112C50.8328 56.403 51.4162 57.4726 51.9024 57.667M51.9024 57.667C51.7079 57.2457 51.2995 56.3252 51.2217 56.014C51.1245 55.6251 51.7079 57.4726 51.9024 57.667ZM51.9024 57.667C52.1358 58.056 52.9072 58.607 53.2637 58.8339M44.6096 53.4858C45.8089 53.5183 48.538 54.1471 49.8604 56.403M53.0692 62.14C53.4906 61.2 54.8973 59.8257 57.1532 61.8482C59.9731 64.3764 59.7786 64.4737 60.362 64.8626M62.8902 64.2792C61.9178 62.853 60.4982 60.0396 62.5985 60.1952M51.9024 65.6405C52.2589 65.4136 53.2637 65.3293 54.4306 66.8073M54.1388 67.3908L55.2085 68.1687M55.014 68.6549L55.6946 69.4328M56.0836 70.1134C56.5503 70.6579 56.6022 70.7292 56.5698 70.6968M36.9279 53.4858C36.4417 53.0645 35.2359 52.144 34.3024 51.8328M35.2748 53.1941C34.8535 52.8052 33.7385 52.0662 32.6494 52.2218M59.5841 76.4338C59.5841 76.0125 59.6425 75.1503 59.8758 75.0725M60.0703 77.1145C60.0379 76.6931 60.0703 76.1421 60.362 75.8504" stroke="black" stroke-width="0.283956" stroke-linecap="round"/>
<path d="M65.0004 33.0662C65.4542 32.6124 66.4784 31.7438 66.9452 31.8994M66.07 31.2187C65.7135 31.4456 64.9421 31.8994 64.7087 31.8994C64.4753 31.8994 65.519 30.6677 66.07 30.0519M64.4169 30.3436C64.9032 29.825 65.9145 28.6128 66.07 27.9127M64.028 28.885C64.7087 27.8802 66.07 25.4817 66.07 23.9259M64.2225 26.7458C64.7086 25.3845 65.5837 22.2923 65.1948 20.8143M39.2325 25.9679C38.8435 23.699 38.2212 18.9085 38.8435 17.8972M37.4822 20.2309C37.4822 22.0136 37.7545 26.1818 38.8435 28.5933M38.1628 28.7878C37.5146 27.4589 36.257 24.3732 36.4126 22.6618M35.6348 24.7038C36.0237 25.9031 36.9376 28.4766 37.4822 29.1767M35.343 27.6209L37.4822 30.0519M34.2734 29.3712C34.8893 29.5009 36.2571 29.9546 36.8016 30.7325M34.6624 31.1215C35.1161 30.9918 36.1013 30.8492 36.4126 31.316M34.6624 32.0939C34.8569 31.9966 35.3626 31.8605 35.8292 32.0939" stroke="black" stroke-width="0.283956" stroke-linecap="round"/>
</svg>
