<svg width="99" height="99" viewBox="0 0 99 99" fill="none" xmlns="http://www.w3.org/2000/svg">
<rect x="0.442383" y="0.362793" width="98" height="98" rx="49" fill="#8AB2E1"/>
<path d="M40.0918 73.653C33.2144 72.7934 27.9131 75.2394 26.1221 76.5698L25.3545 47.0952H65.7286L64.961 73.346C62.9141 73.1414 58.4213 72.8548 56.8248 73.346L40.0918 73.653Z" fill="#060B05"/>
<path d="M65.8818 80.7145C58.7178 78.7189 41.7187 75.4337 31.0342 78.2583C36.8677 83.7848 64.9607 90.3859 65.8818 80.7145Z" fill="#728580" stroke="#0A0A08" stroke-width="0.448296" stroke-linecap="round"/>
<path d="M30.267 79.1795C30.0111 78.5654 30.1749 77.6443 32.8767 78.8724C33.3785 79.0025 34.0579 79.1506 34.8725 79.3123C40.7879 80.4865 51.6055 82.4033 56.9785 83.1708C63.2725 83.7849 65.9177 81.1752 65.8823 80.7146L66.1893 84.706C66.9057 84.8595 71.0234 86.5975 76.7956 89.6678C60.4924 99.178 47.0876 98.8157 34.8725 95.5551C28.3683 93.4041 21.011 89.1797 18.0137 86.4072C18.5049 85.6703 26.3269 84.0919 30.267 82.7103V79.1795Z" fill="#F8F2E7"/>
<path d="M30.267 82.7103V83.6314C30.4636 84.0247 31.6679 84.39 33.9515 84.9663M30.267 82.7103V79.1795C30.0111 78.5654 30.1749 77.6443 32.8767 78.8724C33.3785 79.0025 34.0579 79.1506 34.8725 79.3123M30.267 82.7103C26.3269 84.0919 18.5049 85.6703 18.0137 86.4072C21.011 89.1797 28.3683 93.4041 34.8725 95.5551M66.1893 84.706L65.8823 80.7146C65.9177 81.1752 63.2725 83.7849 56.9785 83.1708C51.6055 82.4033 40.7879 80.4865 34.8725 79.3123M66.1893 84.706L66.4963 88.6973C64.296 90.3348 57.7461 92.6887 49.1493 89.0043C42.0242 86.8932 37.016 85.7397 33.9515 84.9663M66.1893 84.706C66.9057 84.8595 71.0234 86.5975 76.7956 89.6678C60.4924 99.178 47.0876 98.8157 34.8725 95.5551M34.8725 79.3123C34.5143 80.4138 33.8286 83.0868 33.9515 84.9663M33.9515 84.9663C33.3374 85.903 32.0786 88.2368 31.9558 90.0789C31.833 91.9211 34.6678 94.3648 34.8725 95.5551" stroke="#0A0A08" stroke-width="0.448296" stroke-linecap="round"/>
<path d="M56.9773 83.1709C56.4861 82.3112 56.7726 74.9323 56.9773 71.3503C51.3484 72.0667 40.1213 73.2232 40.2441 73.346C40.3669 73.4688 39.7836 78.1049 39.4766 80.2541C40.7047 80.4998 51.6554 82.301 56.9773 83.1709Z" fill="#D5B396" stroke="#0A0A08" stroke-width="0.264494" stroke-linecap="round"/>
<path d="M28.2705 51.2399C27.4108 50.3802 27.0935 48.1185 27.0424 47.0951L25.9678 36.6561H68.3375L65.2673 61.0648C64.8067 63.214 62.0435 66.7448 61.4294 67.5124C60.2013 69.4773 52.935 74.4716 49.4554 76.7232C48.8413 77.1837 47.1833 77.8899 45.464 77.0302C35.4856 71.3502 33.797 67.0518 33.1829 66.2843C32.5689 65.5167 30.4197 58.3015 30.2662 58.148C30.2232 58.1051 30.0962 57.6898 29.922 57.0734C29.0645 56.7152 27.5336 55.0471 28.2705 51.2399Z" fill="#FBCFAB"/>
<path d="M28.2705 51.2399C27.4108 50.3802 27.0935 48.1185 27.0424 47.0951L25.9678 36.6561H68.3375L65.2673 61.0648C64.8067 63.214 62.0435 66.7448 61.4294 67.5124C60.2013 69.4773 52.935 74.4716 49.4554 76.7232C48.8413 77.1837 47.1833 77.8899 45.464 77.0302C35.4856 71.3502 33.797 67.0518 33.1829 66.2842C32.5689 65.5167 30.4197 58.3015 30.2662 58.148C30.2232 58.1051 30.0962 57.6898 29.922 57.0734M28.2705 51.2399C28.7128 52.5668 29.4736 55.4865 29.922 57.0734M28.2705 51.2399C27.5336 55.0471 29.0645 56.7152 29.922 57.0734" stroke="black" stroke-width="0.448296"/>
<path d="M26.1216 76.4161V79.4864L23.9724 77.1837V63.9815L23.6654 77.0302C22.3861 76.0067 19.7661 73.8678 19.5205 73.4993C19.7252 63.8792 20.6258 43.0116 22.5908 36.5026C23.9724 28.3664 29.3454 16.5458 44.8502 12.2474C48.5361 11.2256 56.5173 10.8658 63.5789 15.3177C70.6405 19.7696 77.0881 29.748 79.6978 47.7091L81.233 71.1967L78.3162 73.1923L77.8557 62.9069L77.0881 74.1134L71.1011 77.6442L68.9519 78.5653L65.114 80.561L64.9605 73.3459L65.4211 47.2485C64.0906 47.2997 61.3683 47.3099 61.1227 46.9415C60.2528 46.9415 58.3287 47.0029 57.5919 47.2485C56.6708 47.5556 52.5259 47.5556 52.0654 47.4021C52.1166 46.2251 52.0654 43.8712 52.0654 43.2572C52.0654 42.4469 51.3526 39.1417 51.3901 37.8358C51.0242 40.3546 50.4516 45.2711 50.6838 47.7091C48.5857 47.8114 44.0213 47.8626 42.5475 47.2485C40.8282 47.0029 40.0913 46.9415 39.9378 46.9415V39.8799L39.4773 46.9415C38.4538 46.7368 36.3149 46.3582 35.9465 46.481C35.855 43.69 35.7307 38.379 35.881 37.1979C35.36 39.1113 34.5187 43.2305 34.8719 46.174C32.8762 46.2251 28.8234 46.3582 28.5778 46.481C28.2296 46.5245 27.4962 46.6717 26.9826 46.9415C26.4909 56.1523 25.6303 74.9424 26.1216 76.4161Z" fill="#192313"/>
<path d="M71.1011 77.6442L77.0881 74.1134L77.8557 62.9069L78.3162 73.1923L81.233 71.1967L79.6978 47.7091C77.0881 29.748 70.6405 19.7696 63.5789 15.3177C56.5173 10.8658 48.5361 11.2256 44.8502 12.2474C29.3454 16.5458 23.9724 28.3664 22.5908 36.5026C20.6258 43.0116 19.7252 63.8792 19.5205 73.4993C19.7661 73.8678 22.3861 76.0067 23.6654 77.0302L23.9724 63.9815V77.1837L26.1216 79.4864V76.4161C25.6303 74.9424 26.4909 56.1523 26.9826 46.9415M71.1011 77.6442L71.4081 66.5913M71.1011 77.6442L68.9519 78.5653M68.9519 78.5653C69.3101 72.0154 69.9958 58.7928 69.873 58.3015C69.6683 64.9026 69.1975 78.1969 68.9519 78.5653ZM68.9519 78.5653L65.114 80.561L64.9605 73.3459L65.4211 47.2485M65.4211 47.2485H65.8816L66.0351 38.0377M65.4211 47.2485C64.0906 47.2997 61.3683 47.3099 61.1227 46.9415M61.1227 46.9415C61.0203 43.8201 60.785 37.5465 60.6621 37.4237C60.5086 37.2702 61.1227 46.481 61.1227 46.9415ZM61.1227 46.9415C60.2528 46.9415 58.3287 47.0029 57.5919 47.2485C56.6708 47.5556 52.5259 47.5556 52.0654 47.4021C52.1166 46.2251 52.0654 43.8712 52.0654 43.2572C52.0654 42.3361 51.1443 38.1912 51.4513 37.4237C51.0931 39.7775 50.4381 45.1301 50.6838 47.7091C48.5857 47.8114 44.0213 47.8626 42.5475 47.2485C40.8282 47.0029 40.0913 46.9415 39.9378 46.9415V39.8799L39.4773 46.9415C38.4539 46.7368 36.3149 46.3582 35.9465 46.481C35.8441 43.3595 35.7008 37.0859 35.9465 36.9631C35.4347 38.7541 34.5034 43.1037 34.8719 46.1739C32.8762 46.2251 28.8234 46.3582 28.5778 46.481M28.5778 46.481C28.5778 44.69 28.6392 41.0159 28.8848 40.6475C28.7313 42.4385 28.455 46.1125 28.5778 46.481ZM28.5778 46.481C28.2296 46.5245 27.4962 46.6717 26.9826 46.9415M26.7356 47.095C26.7868 44.7412 26.9506 39.9106 27.1962 39.4194C27.0427 41.5685 26.7356 46.1125 26.7356 47.095ZM26.7356 47.095C26.809 47.04 26.8924 46.9889 26.9826 46.9415" stroke="#0A0A08" stroke-width="0.264494" stroke-linecap="round"/>
<path d="M45.0039 71.197C46 71.5 46 71.5 46.8461 71.197" stroke="black" stroke-width="0.264494" stroke-linecap="round"/>
<path d="M45.3145 63.0605C45.5703 63.1117 46.1127 63.3369 46.2355 63.8281" stroke="black" stroke-width="0.264494" stroke-linecap="round"/>
<path d="M42.2441 52.0074C42.5 52.2633 43.0731 52.9899 43.3187 53.8496M43.3187 54.7707C43.5746 55.7429 43.8714 58.5471 43.0117 61.9858M43.3187 62.9069C43.5746 62.9581 44.2091 63.2753 44.7004 64.135" stroke="black" stroke-width="0.264494" stroke-linecap="round"/>
<path d="M51.4499 50.1655C53.2921 49.2444 58.3273 47.6172 63.731 48.4768M40.7039 50.4725C39.22 49.5003 34.8397 47.6786 29.1904 48.1698" stroke="black" stroke-width="0.448296" stroke-linecap="round"/>
<path d="M52.9902 53.5425C53.3996 52.3144 56.0298 50.1959 63.2756 51.5468C61.5358 53.2355 57.043 55.9987 52.9902 53.5425Z" fill="#FCFBF9" stroke="black" stroke-width="0.224148" stroke-linecap="round"/>
<mask id="mask0_188_3110" style="mask-type:alpha" maskUnits="userSpaceOnUse" x="52" y="51" width="12" height="4">
<path d="M52.9883 53.5425C53.3977 52.3144 56.0278 50.1959 63.2737 51.5468C61.5339 53.2355 57.041 55.9987 52.9883 53.5425Z" fill="white"/>
</mask>
<g mask="url(#mask0_188_3110)">
<path d="M59.4222 52.778C59.4761 53.7099 58.5675 54.5603 57.3351 54.6316C56.1026 54.7028 55.1021 53.9626 55.0483 53.0307C54.9944 52.0988 55.903 51.2484 57.1354 51.1771C58.3678 51.1059 59.3684 51.8461 59.4222 52.778Z" fill="#71932D" stroke="black" stroke-width="0.224148"/>
</g>
<ellipse cx="56.8256" cy="53.0818" rx="1.07459" ry="0.921081" fill="#0A0A08"/>
<ellipse cx="58.5144" cy="52.9283" rx="0.614054" ry="0.767568" fill="white"/>
<path d="M52.5283 52.6212C55.2302 50.779 59.5899 50.9325 61.8926 51.3931C60.6602 51.316 58.7835 51.2956 56.9802 51.5466C55.1897 51.7959 53.9099 52.3142 52.5283 52.6212Z" fill="#0A0A08"/>
<path d="M53.2959 51.2398C54.0635 50.4211 56.6425 49.0599 60.8181 50.1652C60.0505 50.1652 56.3662 49.0907 53.2959 51.2398Z" fill="#0A0A08" stroke="#0A0A08" stroke-width="0.224148" stroke-linecap="round"/>
<path d="M38.5587 51.7023C36.9621 50.9655 32.674 50.7812 30.7295 50.7812C33.7998 55.3867 38.9681 54.5679 40.7079 53.5445C40.452 53.2375 39.664 52.4392 38.5587 51.7023Z" fill="#FCFBF9" stroke="black" stroke-width="0.224148" stroke-linecap="round"/>
<mask id="mask1_188_3110" style="mask-type:alpha" maskUnits="userSpaceOnUse" x="30" y="50" width="11" height="5">
<path d="M38.5597 51.7023C36.9631 50.9655 32.675 50.7812 30.7305 50.7812C33.8007 55.3867 38.969 54.5679 40.7089 53.5445C40.453 53.2375 39.665 52.4392 38.5597 51.7023Z" fill="#D9D9D9"/>
</mask>
<g mask="url(#mask1_188_3110)">
<path d="M38.4464 53.1616C38.2284 54.0692 37.1126 54.6204 35.9122 54.332C34.7119 54.0436 33.9683 53.0457 34.1864 52.138C34.4045 51.2304 35.5203 50.6792 36.7206 50.9676C37.9209 51.256 38.6645 52.254 38.4464 53.1616Z" fill="#71932D" stroke="black" stroke-width="0.224148"/>
</g>
<path d="M38.5587 51.7023C36.9621 50.9655 32.674 50.7812 30.7295 50.7812C33.7998 55.3867 38.9681 54.5679 40.7079 53.5445C40.452 53.2375 39.664 52.4392 38.5587 51.7023Z" stroke="black" stroke-width="0.224148" stroke-linecap="round"/>
<ellipse cx="36.2572" cy="52.623" rx="1.07459" ry="0.767568" fill="#0A0A08"/>
<ellipse cx="37.6385" cy="52.623" rx="0.614054" ry="0.767568" fill="white"/>
<path d="M39.2279 51.1447C38.6004 50.2142 36.1 48.1701 31.6478 49.5517C33.3367 49.0276 36.5387 48.5343 39.2279 51.1447Z" fill="#0A0A08" stroke="#0A0A08" stroke-width="0.224148" stroke-linecap="round"/>
<path d="M39.9395 52.1536C37.178 50.4725 33.6472 50.319 30.7304 50.7795C31.9629 50.7025 33.6843 50.8281 35.4876 51.0791C37.278 51.3283 38.5578 51.8467 39.9395 52.1536Z" fill="#0A0A08"/>
<path d="M42.4941 69.1206C44.3628 69.3899 48.539 69.7131 50.2944 68.8523" stroke="black" stroke-width="0.3" stroke-linecap="round"/>
</svg>
