<svg width="99" height="99" viewBox="0 0 99 99" fill="none" xmlns="http://www.w3.org/2000/svg">
<rect x="0.738281" y="0.623657" width="98" height="98" rx="49" fill="#87A44A"/>
<path d="M23.8294 76.881C22.9483 78.6429 22.4758 80.3939 22.4199 81.7971C22.3635 83.2133 22.7307 84.2212 23.4588 84.5853C24.1869 84.9495 25.2136 84.6386 26.3129 83.7439C27.402 82.8573 28.5195 81.429 29.4006 79.6671C30.2817 77.9051 30.7541 76.1542 30.81 74.751C30.8664 73.3348 30.4993 72.3268 29.7711 71.9627C29.043 71.5986 28.0163 71.9095 26.9171 72.8042C25.8279 73.6907 24.7105 75.1191 23.8294 76.881Z" fill="#CAC9C2" stroke="#171100" stroke-width="0.254599"/>
<path d="M22.8079 59.7879C20.2774 55.1666 20.5616 52.4574 21.0237 51.6775C25.8188 42.3488 42.5584 34.6766 51.6255 34.5022C60.6927 34.3278 63.3082 51.0672 63.9185 53.2468C64.5288 55.4265 63.657 60.6575 63.9185 61.8781C64.6858 62.0176 65.6332 59.4951 66.011 58.2164C66.4469 55.7752 66.3597 56.4727 66.7084 54.4674C67.1178 52.1135 70.0214 50.6313 71.8523 53.2468C73.6832 55.8624 73.3344 60.6575 72.637 62.5756C71.7985 64.8812 69.1496 68.2426 67.8418 68.7657C66.5068 69.2997 64.7904 68.5913 63.9185 69.4632C62.9322 70.4495 62.0005 71.7009 61.5646 72.0787C60.1987 73.6189 57.3623 76.8215 56.9438 77.3097C56.4207 77.92 52.4102 81.1458 51.6255 81.5818C50.9978 81.9305 46.8595 84.7204 44.738 86.0282C43.8661 86.5656 42.5409 87.5626 40.03 86.3769C36.8914 84.8948 30.8756 79.7509 29.7423 77.92C28.6089 76.0891 26.6036 71.5556 26.1677 68.94C24.3949 67.1382 20.9889 62.6976 21.5469 59.3498C21.7143 58.3457 22.4226 59.1083 22.8079 59.7879Z" fill="#F6D595"/>
<path d="M22.8546 59.8729C20.274 55.1998 20.5588 52.4622 21.0237 51.6775C25.8188 42.3488 42.5584 34.6766 51.6255 34.5022C60.6927 34.3278 63.3082 51.0672 63.9185 53.2468C64.5288 55.4265 63.657 60.6575 63.9185 61.8781C64.6858 62.0176 65.6332 59.4951 66.011 58.2164C66.4469 55.7752 66.3597 56.4727 66.7084 54.4674C67.1178 52.1135 70.0214 50.6313 71.8523 53.2468C73.6832 55.8624 73.3344 60.6575 72.637 62.5756C71.7985 64.8812 69.1496 68.2426 67.8418 68.7657C66.5068 69.2997 64.7904 68.5913 63.9185 69.4631C62.9322 70.4495 62.0005 71.7009 61.5646 72.0787C60.1987 73.6189 57.3623 76.8215 56.9438 77.3097C56.4207 77.92 52.4102 81.1458 51.6255 81.5818C50.9978 81.9305 46.8595 84.7204 44.738 86.0282C43.8661 86.5656 42.5409 87.5626 40.03 86.3769C36.8914 84.8948 30.8756 79.7509 29.7423 77.92C28.6089 76.0892 26.6036 71.5556 26.1677 68.94M22.8546 59.8729C25.5574 66.0629 25.7318 66.3245 26.1677 68.94M22.8546 59.8729C22.483 59.1754 21.7213 58.3035 21.5469 59.3498C20.9889 62.6976 24.3949 67.1382 26.1677 68.94" stroke="#100D06" stroke-width="0.254599" stroke-linecap="round"/>
<path d="M65.1416 67.1966C65.2578 66.4119 65.5775 64.7903 65.9263 64.581C66.3622 64.3195 67.1468 63.622 66.3622 61.3552C66.3622 58.7397 68.3674 55.6882 70.1983 54.9036M66.3622 67.6325C67.5828 66.7606 70.0588 64.1277 70.1983 60.5705C70.1692 61.9946 69.3613 65.4006 66.3622 67.6325Z" stroke="#100D06" stroke-width="0.254599" stroke-linecap="round"/>
<path d="M35.8467 76.6123C36.8929 76.6123 39.1597 76.6123 39.8572 76.6123C40.729 76.6123 41.7752 76.2635 45.3498 76.2635" stroke="#100D06" stroke-width="0.254599" stroke-linecap="round"/>
<path d="M38.8105 79.4897H41.6004" stroke="#100D06" stroke-width="0.254599" stroke-linecap="round"/>
<path d="M35.7583 71.2066C35.2352 70.7707 34.1541 69.6373 34.0146 68.5911C34.0146 66.673 35.148 62.6625 35.3224 61.9651C35.4704 61.373 35.4968 60.3957 35.148 59.8726C34.8691 59.4541 34.2762 59.0008 34.0146 58.8264M36.1943 70.0732C36.5139 69.8407 37.3277 69.6547 38.0251 70.7707C37.7055 70.3057 36.8917 69.5152 36.1943 70.0732Z" stroke="#100D06" stroke-width="0.254599" stroke-linecap="round"/>
<ellipse cx="51.5673" cy="58.8234" rx="5.67182" ry="2.77897" transform="rotate(-12.1175 51.5673 58.8234)" fill="#FAFBF8"/>
<ellipse cx="28.8422" cy="58.688" rx="4.42554" ry="2.20731" transform="rotate(30.8113 28.8422 58.688)" fill="#FAFBF8"/>
<path d="M54.9044 58.3906C54.9044 59.616 53.8729 60.6173 52.5906 60.6173C51.3083 60.6173 50.2767 59.616 50.2767 58.3906C50.2767 57.1652 51.3083 56.1639 52.5906 56.1639C53.8729 56.1639 54.9044 57.1652 54.9044 58.3906Z" fill="#0F2432" stroke="#050505" stroke-width="0.254599"/>
<circle cx="52.5026" cy="58.2164" r="1.48213" fill="#050505"/>
<ellipse cx="50.8463" cy="58.3033" rx="0.523106" ry="0.697475" fill="#ECF4F8"/>
<path d="M47.3585 57.0831C46.4856 57.6934 45.9635 59.5242 45.8763 60.4832C45.8182 60.7448 45.7323 60.9582 46.2251 59.873C47.0959 57.9549 47.619 57.5155 48.1421 57.254C49.2755 56.9087 51.5193 56.124 54.0716 56.124C55.8153 56.124 56.2853 56.423 56.7734 56.9924C57.2965 57.6027 57.0349 58.0386 57.1221 58.0386C57.2965 57.254 57.2103 56.9087 56.8616 56.2984C57.7334 56.0369 58.4309 55.2522 57.7334 55.6009C57.0359 55.9496 56.4256 56.0369 56.4256 55.7753C56.4256 55.5137 57.2103 55.4266 57.7334 54.6419C58.0811 54.2025 57.2103 54.7291 55.8153 55.6009C48.7534 56.124 48.4468 56.3221 47.3585 57.0831Z" fill="black"/>
<path d="M48.3165 61.7038C49.7114 61.8782 53.0419 61.8782 55.2041 60.4832C53.286 61.3242 48.4909 61.7236 48.3165 61.7038Z" fill="black"/>
<path d="M30.4451 61.0459C31.8592 61.0459 33.0135 59.9394 33.0135 58.5647C33.0135 57.19 31.8592 56.0834 30.4451 56.0834C29.0309 56.0834 27.8766 57.19 27.8766 58.5647C27.8766 59.9394 29.0309 61.0459 30.4451 61.0459Z" fill="#0F2432" stroke="black" stroke-width="0.254599"/>
<circle cx="30.3581" cy="58.3906" r="1.60943" fill="#050505" stroke="black" stroke-width="0.254599"/>
<path d="M28.7018 58.9543C28.8953 58.9543 29.0608 58.8494 29.1735 58.6991C29.2863 58.5488 29.3522 58.347 29.3522 58.1295C29.3522 57.912 29.2863 57.7102 29.1735 57.5599C29.0608 57.4096 28.8953 57.3047 28.7018 57.3047C28.5083 57.3047 28.3428 57.4096 28.2301 57.5599C28.1174 57.7102 28.0514 57.912 28.0514 58.1295C28.0514 58.347 28.1174 58.5488 28.2301 58.6991C28.3428 58.8494 28.5083 58.9543 28.7018 58.9543Z" fill="#ECF4F8" stroke="black" stroke-width="0.254599"/>
<path d="M32.6238 59.7859C31.8566 57.6934 30.0374 56.5891 29.2236 56.2985C30.4791 52.9506 33.9897 55.136 35.5881 56.6472L32.6238 59.7859Z" fill="#F0D495"/>
<path d="M26.4347 55.3391C28.2656 55.775 32.5377 57.0827 32.9736 60.5701C32.5377 60.9189 33.4967 60.4829 31.753 58.3905C30.0093 56.2981 26.3476 55.2519 25.8245 56.0365C25.3014 56.8212 25.0397 58.3033 24.7782 57.1699C24.7555 56.8747 24.7798 56.4774 24.9053 56.1237C24.5963 56.0365 24.0808 55.4578 24.168 55.1647C24.168 55.4437 24.7492 55.7264 25.0398 55.8329C25.1284 55.6838 25.1555 55.606 25.3013 55.51C24.8654 55.1056 24.168 54.6416 24.3424 54.2928C24.3424 54.6416 25.3305 55.1078 25.8245 55.2974C25.9996 55.273 26.2018 55.2836 26.4347 55.3391Z" fill="#050505"/>
<path d="M27.1322 60.2179C27.2194 60.4795 29.8349 62.0488 31.317 61.6129C29.399 61.6129 26.5219 59.6948 27.1322 60.2179Z" fill="#050505"/>
<path d="M24.251 51.9388C26.7793 53.3919 32.0453 56.5771 32.8822 57.693C33.5797 57.693 28.0871 52.5491 24.251 51.9388Z" fill="#171100" stroke="black" stroke-width="0.254599" stroke-linecap="round"/>
<path d="M43.6924 57.4312C42.5067 57.8497 40.9896 57.6056 40.5537 57.4312C43.9539 57.0825 49.8824 53.072 52.062 52.7233C53.956 52.4202 57.5257 52.4326 58.9497 52.7233C56.5957 52.3745 54.1545 52.8976 53.1083 53.072C52.0621 53.2464 45.1745 56.9081 43.6924 57.4312Z" fill="#171100"/>
<path d="M37.9406 44.5282C36.8944 44.8072 36.1679 51.8517 35.9354 55.3391C35.6564 55.0601 32.913 48.0156 31.5762 44.5282H37.9406Z" fill="#862115"/>
<path d="M56.4221 63.4474C56.0036 63.7961 53.3416 64.5808 52.0629 64.9295C52.4116 65.9758 51.9176 75.7113 51.627 80.4484C54.7656 77.4492 57.2572 68.94 57.0324 64.668C57.0033 64.1158 56.8406 63.0987 56.4221 63.4474Z" fill="#862115"/>
<path d="M26.8654 64.1444C27.1616 64.4935 29.2263 65.4373 30.1314 65.7863C29.8846 66.8335 30.5272 76.263 32.7939 81.1453C27.4757 76.4374 26.4547 69.8006 26.6138 65.5245C26.6344 64.9718 26.5692 63.7953 26.8654 64.1444Z" fill="#862115"/>
<path d="M63.9221 81.6692C63.5036 80.9717 62.7596 80.3905 62.4399 80.187C62.0214 79.8712 61.7425 74.65 61.6553 72.0789L62.963 71.1199L64.7939 79.7511C64.0964 80.0999 63.9221 81.1751 63.9221 81.6692Z" fill="#21240E"/>
<path d="M23.1185 60.2216C21.8993 59.2564 19.641 57.1012 19.1846 55.3627C19.3263 56.5122 19.6175 58.189 20.0671 59.0882C18.6721 57.7224 16.0741 53.8397 16.8413 49.2364C16.1438 50.5732 14.7664 53.6131 14.8361 55.0778C14.428 53.9215 13.8926 51.566 14.273 49.6588C13.784 50.985 13.2668 52.5331 13.2668 53.0725C12.7437 50.8638 12.6565 45.627 16.4926 42.3488L15.6208 40.518C14.8652 40.053 13.5458 38.5825 14.313 36.4203C13.819 37.4084 12.8832 39.6113 13.0925 40.518C13.354 41.6514 11.2616 38.5127 13.0925 34.4151C12.4822 35.4613 11.2092 37.4665 11 37.1178C11 36.0716 12.5694 33.9791 13.0925 31.8867C13.6155 29.7943 14.4002 20.2912 24.7751 14.7114C26.7204 13.6652 26.2573 13.578 32.0986 13.6652C32.2439 13.7524 32.7089 13.7873 33.4064 13.2293C34.2782 12.5318 36.6322 12.0959 38.6374 12.3574C40.3521 11.3112 44.967 9.41059 49.7099 10.1778C51.1339 10.0034 54.4527 9.89883 56.3359 10.8753C59.6779 11.0787 66.6062 12.1307 67.5827 14.7114C70.3144 15.5832 76.1616 19.5414 77.696 28.3994V28.7481C78.6551 29.5618 80.9742 31.3287 82.5784 31.8867C82.1424 32.0611 80.8172 32.3401 79.0038 32.0611C79.7303 32.8458 81.2183 35.0254 81.3578 37.4665C81.009 36.9434 80.1198 35.8972 79.3525 35.8972C79.4107 36.6237 79.492 38.1989 79.3525 38.6871C78.9166 38.2512 77.975 37.3619 77.696 37.2922C77.8174 38.0811 77.998 39.5208 78.0259 40.6052C79.0784 41.5351 81.3229 43.6217 81.8809 44.5285C83.6536 44.9934 87.6002 46.1152 89.2044 46.8824L85.6298 47.4055C87.0248 47.8415 90.0065 48.9749 90.7737 50.0211C90.2689 49.8399 89.5393 49.6817 88.816 49.5852C89.7301 50.2826 91.5061 51.9914 91.2968 53.2469C90.4598 53.3864 87.6932 53.4213 86.4145 53.4213C87.6351 54.0606 90.1634 55.967 90.5121 58.478C90.3029 59.0359 89.9019 58.5942 89.7275 58.3036C89.96 58.8267 90.3552 60.4832 90.0762 62.9244C89.1753 61.9653 87.0771 60.0996 85.8914 60.3088C86.4435 60.9482 87.5653 62.4536 87.6351 63.3603C86.3273 62.4594 83.4328 60.7448 82.3168 61.0935C83.4793 62.5175 85.6821 65.8363 85.1939 67.7195C84.5836 67.022 83.1887 65.5922 82.4912 65.4527C83.0434 66.4989 83.8861 68.9924 82.8399 70.5966C83.1305 71.0616 83.7815 72.0438 84.0605 72.2531C83.1809 71.9838 81.7048 71.4152 80.5731 70.691C80.8056 71.6185 81.2183 73.4214 81.009 73.2121C80.7998 73.0029 79.5269 71.265 78.9166 70.4222C79.3816 71.4975 80.1721 73.6655 79.6141 73.7352C78.9166 73.8224 77.4345 71.4684 75.0805 72.2531L77.1729 74.1711L75.0805 74.3455C73.5112 72.5146 70.0238 68.8878 68.6289 69.0273C69.7913 67.487 72.2383 63.9008 72.7265 61.8781C73.3368 59.3498 73.0753 54.5547 71.9419 53.4213C71.4536 52.3751 70.6341 52.0263 70.8957 51.8519H69.7623C68.8614 52.2588 67.0247 53.2469 66.8852 53.9444C66.5946 55.1359 65.9785 57.763 65.839 58.7395C65.6646 59.9601 64.0953 62.3141 64.0081 61.8781C63.9209 61.4422 64.0953 53.6828 63.485 52.4622C61.4158 50.664 57.6178 47.1286 56.5933 45.3709C57.4499 47.7803 59.1536 51.697 60.7823 52.6366C59.1548 52.4041 55.6733 51.4858 54.7666 49.6723C54.9119 50.8057 55.1153 53.2469 54.7666 53.9444C54.0808 52.7884 53.1361 51.2348 52.1476 49.6723C51.8892 49.2638 51.6277 48.8546 51.3671 48.4518L51.7151 50.457L50.8433 49.8467L52.1476 51.7648C50.8701 50.922 48.2975 48.9749 48.2277 47.9286C47.2513 47.2312 43.171 45.255 41.253 44.3541C41.747 45.255 42.6305 47.9286 42.212 51.416C41.2239 48.8877 38.7769 43.6043 36.8938 42.6976L32.7089 43.3079C33.4645 44.3541 34.749 47.0568 33.8423 49.498C33.5517 48.4518 32.8135 46.3245 32.1858 46.185C31.4011 46.0106 29.919 43.9182 30.2677 43.3079C29.5993 44.4703 27.8091 47.2137 25.9957 48.8877C26.2615 47.9572 26.931 46.0298 27.6305 45.1741C26.2617 46.6416 23.7372 49.419 23.2058 50.2826C23.293 51.0673 23.3279 52.9853 22.7699 54.3803C22.4083 54.3803 21.7318 53.3248 21.1247 51.9391C21.0979 52.6657 21.0338 54.1711 20.9917 54.3803C20.9783 54.4468 20.7822 54.1694 20.5059 53.6828C20.5049 54.6128 21.0261 57.2225 23.1185 60.2216Z" fill="#291E16"/>
<path d="M38.6374 12.3574C36.6322 12.0959 34.2782 12.5318 33.4064 13.2293C32.7089 13.7873 32.2439 13.7524 32.0986 13.6652C26.2573 13.578 26.7204 13.6652 24.7751 14.7114C14.4002 20.2912 13.6155 29.7943 13.0925 31.8867C12.5694 33.9791 11 36.0716 11 37.1178C11.2092 37.4665 12.4822 35.4613 13.0925 34.4151C11.2616 38.5127 13.354 41.6514 13.0925 40.518C12.8832 39.6113 13.819 37.4084 14.313 36.4203C13.5458 38.5825 14.8652 40.053 15.6208 40.518L16.4926 42.3488C12.6565 45.627 12.7437 50.8639 13.2668 53.0725C13.2668 52.3053 14.313 49.498 14.8361 48.1902C13.5806 50.1431 14.313 53.5956 14.8361 55.0778C14.7664 53.6131 16.1438 50.5732 16.8413 49.2364C16.0741 53.8397 18.6721 57.7224 20.0671 59.0882C19.5091 57.9723 19.1953 55.659 19.1081 54.6418C18.9686 56.4553 21.7236 59.1173 23.1185 60.2216C21.0261 57.2225 20.5049 54.6128 20.5059 53.6828M38.6374 12.3574C37.7947 12.5609 36.0394 13.2118 35.7604 14.1883C36.0219 13.6943 36.9635 12.6364 38.6374 12.3574ZM38.6374 12.3574C40.3521 11.3112 44.967 9.41059 49.7099 10.1778M49.7099 10.1778C48.7508 10.3231 46.6061 10.823 45.6994 11.66C44.566 12.7062 46.3969 10.6137 49.7099 10.1778ZM49.7099 10.1778C51.1339 10.0034 54.4527 9.89883 56.3359 10.8753M56.3359 10.8753C55.1153 10.9044 52.4823 11.102 51.7151 11.66C52.3254 11.3984 54.104 10.8753 56.3359 10.8753ZM56.3359 10.8753C59.6779 11.0787 66.6062 12.1307 67.5827 14.7114M67.5827 14.7114C67.263 14.537 66.5016 14.2406 66.0133 14.4499C66.2168 14.3627 66.8154 14.2929 67.5827 14.7114ZM67.5827 14.7114C70.3144 15.5832 76.1616 19.5414 77.696 28.3994V28.7481M77.696 28.7481L76.737 27.8762M77.696 28.7481C78.6551 29.5618 80.9742 31.3287 82.5784 31.8867C82.1424 32.0611 80.8172 32.3401 79.0038 32.0611M79.0038 32.0611L77.3473 30.579M79.0038 32.0611C79.7303 32.8458 81.2183 35.0254 81.3578 37.4665C81.009 36.9434 80.1198 35.8972 79.3525 35.8972M79.3525 35.8972C78.9166 34.851 77.975 32.7411 77.696 32.6714C78.132 33.3689 79.0736 34.9905 79.3525 35.8972ZM79.3525 35.8972C79.4107 36.6237 79.492 38.1989 79.3525 38.6871C78.9166 38.2512 77.975 37.3619 77.696 37.2922M77.696 37.2922C77.2892 36.4494 76.4232 34.7464 76.2139 34.6766C75.9524 34.5894 76.9986 35.5485 77.696 37.2922ZM77.696 37.2922C77.8174 38.0811 77.998 39.5208 78.0259 40.6052M75.778 38.164C76.8242 38.3732 77.667 40.6342 77.9576 41.7386C78.0212 41.4842 78.0381 41.0785 78.0259 40.6052M75.778 38.164C75.6908 37.6409 75.4292 36.5075 75.0805 36.1588C75.6302 37.4665 75.3421 36.5075 75.778 38.164ZM75.778 38.164C75.9233 38.8905 76.0744 40.6575 75.5164 41.9129M75.5164 41.9129C75.1332 40.9839 74.5718 39.6754 73.9958 38.4256M75.5164 41.9129L73.9958 38.4256M73.9958 38.4256C73.1302 36.5476 72.2316 34.8023 71.8547 34.6766L73.9958 38.4256ZM73.9958 38.4256L67.2339 33.892M78.0259 40.6052C79.0784 41.5351 81.3229 43.6217 81.8809 44.5285M81.8809 44.5285L79.3525 43.9182M81.8809 44.5285C83.6536 44.9934 87.6002 46.1152 89.2044 46.8824L85.6298 47.4055M85.6298 47.4055C85.0486 47.3474 83.6595 47.3358 82.7527 47.7543C83.2758 47.5799 84.5836 47.266 85.6298 47.4055ZM85.6298 47.4055C87.0248 47.8415 90.0065 48.9749 90.7737 50.0211C90.2689 49.8399 89.5393 49.6817 88.816 49.5852M86.5888 49.5852C87.024 49.4401 87.9152 49.4649 88.816 49.5852M88.816 49.5852C89.7301 50.2826 91.506 51.9914 91.2968 53.2469C90.4598 53.3864 87.6932 53.4213 86.4145 53.4213M86.4145 53.4213L85.8914 53.1597M86.4145 53.4213C87.6351 54.0606 90.1634 55.967 90.5121 58.478C90.3029 59.0359 89.9019 58.5942 89.7275 58.3036M89.7275 58.3036L87.9838 57.083M89.7275 58.3036C89.96 58.8267 90.3552 60.4832 90.0762 62.9244C89.1753 61.9653 87.0771 60.0996 85.8914 60.3088M85.8914 60.3088L85.3683 59.9601M85.8914 60.3088C86.4435 60.9482 87.5653 62.4536 87.6351 63.3603C86.3273 62.4594 83.4328 60.7448 82.3168 61.0935M82.3168 61.0935L79.7013 58.478M82.3168 61.0935C83.4793 62.5175 85.6821 65.8363 85.1939 67.7195C84.5836 67.022 83.1887 65.5922 82.4912 65.4527M82.4912 65.4527C82.2587 64.9296 81.7588 63.866 81.6193 63.7962C81.445 63.709 82.2296 64.5809 82.4912 65.4527ZM82.4912 65.4527C83.0434 66.4989 83.8861 68.9924 82.8399 70.5966M82.8399 70.5966C82.2878 69.7247 81.2706 67.8241 81.6193 67.1964C81.9122 68.8529 81.445 68.0682 82.8399 70.5966ZM82.8399 70.5966C83.1305 71.0616 83.7815 72.0438 84.0605 72.2531C83.1809 71.9838 81.7048 71.4152 80.5731 70.691M80.5731 70.691C79.8727 70.2427 79.3043 69.7349 79.091 69.2016C79.2363 69.5027 79.7362 70.222 80.5731 70.691ZM80.5731 70.691C80.8056 71.6185 81.2183 73.4214 81.009 73.2121C80.7998 73.0029 79.5269 71.265 78.9166 70.4222C79.3816 71.4975 80.1721 73.6655 79.6141 73.7352C78.9166 73.8224 77.4345 71.4684 75.0805 72.2531L77.1729 74.1711L75.0805 74.3455C73.5112 72.5146 70.0238 68.8878 68.6289 69.0273C69.7913 67.487 72.2383 63.9008 72.7265 61.8781C73.3368 59.3498 73.0753 54.5547 71.9419 53.4213C71.4536 52.3751 70.6341 52.0263 70.8957 51.8519M70.8957 51.8519C71.1572 51.2998 71.6629 50.0908 71.5931 49.6723M70.8957 51.8519H69.7623M69.7623 51.8519C69.9366 50.5151 70.2331 47.7543 70.0238 47.4055L69.7623 51.8519ZM69.7623 51.8519C68.8614 52.2588 67.0247 53.2469 66.8852 53.9444M66.8852 53.9444L66.5364 53.1597M66.8852 53.9444C66.5946 55.1359 65.9785 57.763 65.839 58.7395C65.6646 59.9601 64.0953 62.3141 64.0081 61.8781C63.9209 61.4422 64.0953 53.6828 63.485 52.4622M63.485 52.4622C63.8628 53.1306 64.6184 54.4675 64.7928 54.2931C64.9671 54.1187 66.2749 47.144 62.6131 43.5694M63.485 52.4622C61.0438 50.3407 56.1964 45.8014 56.3359 44.6156C57.0624 46.8534 58.9688 51.5904 60.7823 52.6366C59.1548 52.4041 55.6733 51.4858 54.7666 49.6723M54.7666 49.6723C54.2725 48.074 53.0577 44.7726 52.151 44.3541C52.7613 45.0225 54.1388 47.0219 54.7666 49.6723ZM54.7666 49.6723C54.9119 50.8057 55.1153 53.2469 54.7666 53.9444C54.0808 52.7884 53.1361 51.2348 52.1476 49.6723M52.1476 49.6723C50.8895 47.3009 48.487 44.4413 47.4431 43.3079C48.0043 43.4682 49.6676 45.8251 51.3671 48.4518M52.1476 49.6723C51.8892 49.2638 51.6277 48.8546 51.3671 48.4518M51.3671 48.4518L51.7151 50.457L50.8433 49.8467L52.1476 51.7648C50.8701 50.922 48.2975 48.9749 48.2277 47.9286C47.2513 47.2312 43.171 45.255 41.253 44.3541M41.253 44.3541L40.4683 43.3079M41.253 44.3541C41.747 45.255 42.6305 47.9286 42.212 51.416C41.2239 48.8877 38.7769 43.6043 36.8938 42.6976L32.7089 43.3079C33.4645 44.3541 34.749 47.0568 33.8423 49.498C33.5517 48.4518 32.8135 46.3245 32.1858 46.185C31.4011 46.0106 29.919 43.9182 30.2677 43.3079C29.5993 44.4703 27.8091 47.2137 25.9957 48.8877C26.2863 47.8705 27.0594 45.6619 27.8266 44.9644C26.5188 46.3593 23.7638 49.3759 23.2058 50.2826M23.2058 50.2826C23.2349 48.9458 23.4848 46.0629 24.252 45.2259C23.8452 46.185 23.0663 48.5389 23.2058 50.2826ZM23.2058 50.2826C23.293 51.0673 23.3279 52.9853 22.7699 54.3803C22.4083 54.3803 21.7318 53.3248 21.1247 51.9391M21.1247 51.9391C20.4144 50.3182 19.7988 48.2455 19.8928 46.8824C20.0166 48.1902 20.4362 51.0324 21.1247 51.9391ZM21.1247 51.9391C21.0979 52.6657 21.0338 54.1711 20.9917 54.3803C20.9783 54.4468 20.7822 54.1694 20.5059 53.6828M20.5059 53.6828C19.6956 52.256 18.195 49.0309 18.585 47.4055C18.616 48.8296 19.0435 52.0786 20.5059 53.6828ZM17.3645 39.8205C16.9576 39.3846 16.2137 38.3558 16.4926 37.7281M22.7699 40.1692C22.2758 39.9077 21.3924 39.0533 21.8109 37.7281M57.3821 35.0254C58.0505 35.4322 59.4396 36.4029 59.6489 37.0306M57.0333 32.8458C57.818 33.427 59.5791 35.0079 60.3464 36.6819M29.0472 36.0716C29.1634 36.8562 29.797 38.6348 31.4011 39.4718M30.6165 28.5737C30.2387 30.3755 29.8318 34.2407 32.4474 38.0768" stroke="black" stroke-width="0.254599" stroke-linecap="round"/>
<path d="M74.2746 74.0887C75.7374 76.2662 76.5329 78.5853 76.6417 80.5705C76.7507 82.5589 76.1717 84.1874 74.9187 85.0291C73.6658 85.8708 71.9393 85.7912 70.1397 84.9385C68.343 84.0872 66.4967 82.474 65.0339 80.2966C63.5711 78.1191 62.7757 75.8 62.6668 73.8147C62.5578 71.8264 63.1369 70.1979 64.3898 69.3562C65.6427 68.5145 67.3693 68.5941 69.1688 69.4467C70.9656 70.298 72.8119 71.9113 74.2746 74.0887Z" fill="#CAC9C2" stroke="black" stroke-width="0.254599"/>
<path d="M16.3194 42.0871C15.8311 41.8778 15.4766 40.6049 15.3604 39.9947C19.2836 40.5178 29.833 40.2562 30.6176 40.2562C31.2453 40.2562 31.6348 41.593 31.751 42.2614C31.722 42.3777 31.3848 42.7322 30.2689 43.2205C26.2235 43.8482 19.2836 42.7264 16.3194 42.0871Z" fill="#040827"/>
<path d="M40.731 39.1228C39.3361 39.1926 37.8249 40.2562 37.2436 40.7793V41.3024C37.2436 41.4768 37.819 41.9825 40.1207 42.6102C49.0484 42.8892 65.2298 39.1809 72.2046 37.2919C71.8268 37.0013 70.5481 36.1411 68.4556 35.0251C61.045 37.7279 42.4747 39.0356 40.731 39.1228Z" fill="#040827"/>
<path d="M16.3194 42.0871C15.8311 41.8778 15.4766 40.6049 15.3604 39.9947C19.2836 40.5178 29.833 40.2562 30.6176 40.2562C31.2453 40.2562 31.6348 41.593 31.751 42.2614C31.722 42.3777 31.3848 42.7322 30.2689 43.2205C26.2235 43.8482 19.2836 42.7264 16.3194 42.0871Z" stroke="#060000" stroke-width="0.254599" stroke-linecap="round"/>
<path d="M40.731 39.1228C39.3361 39.1926 37.8249 40.2562 37.2436 40.7793V41.3024C37.2436 41.4768 37.819 41.9825 40.1207 42.6102C49.0484 42.8892 65.2298 39.1809 72.2046 37.2919C71.8268 37.0013 70.5481 36.1411 68.4556 35.0251C61.045 37.7279 42.4747 39.0356 40.731 39.1228Z" stroke="#060000" stroke-width="0.254599" stroke-linecap="round"/>
<path d="M37.2896 40.6925C37.2896 42.1493 35.9559 43.3551 34.2783 43.3551C32.6007 43.3551 31.2669 42.1493 31.2669 40.6925C31.2669 39.2357 32.6007 38.0299 34.2783 38.0299C35.9559 38.0299 37.2896 39.2357 37.2896 40.6925Z" fill="#040827" stroke="#060000" stroke-width="0.254599"/>
<path d="M35.5476 40.6049C35.5476 41.4433 34.8301 42.1341 33.9312 42.1341C33.0322 42.1341 32.3148 41.4433 32.3148 40.6049C32.3148 39.7664 33.0322 39.0757 33.9312 39.0757C34.8301 39.0757 35.5476 39.7664 35.5476 40.6049Z" fill="#F0F6F9" stroke="#060000" stroke-width="0.254599"/>
<path d="M48.1416 56.1236C49.1297 55.6877 51.6638 54.8507 53.8958 54.9902" stroke="black" stroke-width="0.254599" stroke-linecap="round"/>
<path d="M27.3906 54.6415C28.3206 55.1065 30.3549 56.1585 31.0524 56.6467" stroke="black" stroke-width="0.254599" stroke-linecap="round"/>
<path d="M24.431 81.4279C24.8495 81.9858 27.5696 78.4055 28.8774 76.5455L29.5749 77.6789C28.1509 80.2073 24.9367 85.0547 23.472 84.2178C22.0073 83.3808 23.501 79.5098 24.431 77.6789C24.2566 78.6961 24.0125 80.8699 24.431 81.4279Z" fill="#F9FAF7"/>
<path d="M69.0242 77.0685C66.0949 75.2551 65.4206 77.1848 65.4497 78.3763C63.7932 77.0685 63.1829 73.2324 64.0547 71.5759C64.9265 69.9194 68.0652 74.1914 72.5116 76.4582C76.958 78.725 75.3887 83.433 74.9528 83.3458C74.5168 83.2586 72.686 79.3353 69.0242 77.0685Z" fill="#F9FAF7"/>
</svg>
