<svg width="99" height="98" viewBox="0 0 99 98" fill="none" xmlns="http://www.w3.org/2000/svg">
<rect x="0.310547" width="98" height="98" rx="49" fill="#BDC905"/>
<path d="M79.6651 68.3665C77.442 86.2351 58.3793 87.2347 34.8171 84.5512C18.6613 82.7112 18.3005 72.2542 18.7257 66.5314C18.7966 65.5771 18.7937 66.1928 18.8833 65.4446L20.2418 62.8814L16.438 61.0973C16.9301 59.3738 20.0385 54.7016 21.9843 53.4068L18.7257 53.2988C21.3169 47.2952 27.4651 40.7804 31.1098 40.1762L27.448 36.1892C17.4175 30.4199 21.594 18.6874 24.9361 13.5423C34.9738 19.0944 35.367 29.6553 34.3089 34.2417L36.5439 37.7309C46.5141 32.1892 57.4584 35.104 62.899 37.7309L64.9944 35.2583C60.1059 30.4748 62.9806 13.9871 71.9779 13.1977C78.2014 28.8451 74.0792 34.5624 71.2402 35.4652L69.404 41.6569C72.605 43.5028 77.8663 51.5427 80.0969 55.3319L77.1098 55.233L80.9312 62.9714L78.2157 62.8814L79.6651 68.3665Z" fill="#666666"/>
<path d="M20.2418 62.8814L16.438 61.0973C16.9301 59.3738 20.0385 54.7016 21.9843 53.4068L18.7257 53.2988C21.3169 47.2952 27.4651 40.7804 31.1098 40.1762L27.448 36.1892C17.4175 30.4199 21.594 18.6874 24.9361 13.5423C34.9738 19.0944 35.367 29.6553 34.3089 34.2417L36.5439 37.7309C46.5141 32.1892 57.4584 35.104 62.899 37.7309L64.9944 35.2583C60.1059 30.4748 62.9806 13.9871 71.9779 13.1977C78.2014 28.8451 74.0792 34.5624 71.2402 35.4652L69.404 41.6569C72.605 43.5028 77.8663 51.5427 80.0969 55.3319L77.1098 55.2329L80.9312 62.9714L78.2157 62.8814L79.6651 68.3665C77.442 86.2351 58.3793 87.2347 34.8171 84.5512C18.6613 82.7112 18.3005 72.2542 18.7257 66.5314C18.7966 65.5771 18.7937 66.1928 18.8833 65.4446L20.2418 62.8814ZM20.2418 62.8814C18.1874 64.7163 20.7122 61.8096 20.2418 62.8814Z" stroke="black" stroke-width="0.793436"/>
<path d="M47.4116 60.2823C47.9555 60.554 49.4948 61.0069 49.8571 61.3691C51.4876 60.554 51.2159 60.8257 51.7591 60.554C53.2374 59.8145 52.3027 58.6521 49.8571 58.6521C46.597 58.6521 46.6824 59.918 47.4116 60.2823Z" fill="#10181B"/>
<path d="M69.1475 66.8029C76.1212 64.5387 90.6663 60.1733 93.0573 60.8254" stroke="black" stroke-width="0.793436" stroke-linecap="round"/>
<path d="M67.5166 68.9953C74.7176 67.6153 89.6925 65.0913 91.9839 66.0354" stroke="black" stroke-width="0.793436" stroke-linecap="round"/>
<path d="M65.8867 71.0367C73.201 70.5269 88.3702 69.8099 90.5324 71.0211" stroke="black" stroke-width="0.793436" stroke-linecap="round"/>
<path d="M32.4053 71.0367C25.091 70.5269 9.92181 69.8099 7.7596 71.0211" stroke="black" stroke-width="0.793436" stroke-linecap="round"/>
<path d="M30.6994 68.5418C23.4805 67.2584 8.47317 64.9352 6.1946 65.91" stroke="black" stroke-width="0.793436" stroke-linecap="round"/>
<path d="M30.0129 66.7804C23.0859 64.3772 8.63095 59.7219 6.2274 60.326" stroke="black" stroke-width="0.793436" stroke-linecap="round"/>
<path d="M44.9668 57.8368C46.3253 57.1123 49.9661 56.0979 53.6613 57.8368" stroke="black" stroke-width="0.396718" stroke-linecap="round"/>
<path d="M28.1152 82.598C34.0927 76.7111 51.2643 68.2521 71.0443 81.5112C65.3385 85.3151 43.0589 87.217 28.1152 82.598Z" fill="#EDE8A3" stroke="#EDE8A3" stroke-width="0.314538"/>
<path d="M44.4185 78.7576C43.7665 80.4965 45.6736 80.2279 46.8661 79.0293C49.1595 76.7244 50.1252 77.9425 52.0262 79.301C53.5471 80.3878 54.1999 80.1161 53.9282 78.7576C50.396 73.3236 45.2337 76.584 44.4185 78.7576Z" fill="#666666"/>
<path d="M57.1159 79.6852C56.1549 80.6421 57.4907 81.0418 58.6415 80.6076C60.8547 79.7724 61.1165 80.8739 61.9501 82.3521C62.617 83.5347 63.1292 83.5522 63.3666 82.5679C62.7088 77.8893 58.3172 78.4892 57.1159 79.6852Z" fill="#666666"/>
<path d="M41.5706 79.6852C42.5317 80.6421 41.1958 81.0418 40.045 80.6076C37.8318 79.7724 37.57 80.8739 36.7364 82.3521C36.0696 83.5347 35.5573 83.5522 35.3199 82.5679C35.9777 77.8893 40.3693 78.4892 41.5706 79.6852Z" fill="#666666"/>
<path d="M55.1444 70.7677C57.4709 70.2507 62.5045 69.3315 64.7305 68.9366C46.98 67.0409 36.367 68.1467 33.2793 68.9366C37.3723 68.9366 40.3881 69.6906 43.9426 70.4445C47.497 71.1985 52.2362 71.4139 55.1444 70.7677Z" fill="white" stroke="black" stroke-width="0.314538"/>
<path d="M44.9627 70.6069C44.7816 69.9729 44.528 68.542 44.9627 67.8899" stroke="black" stroke-width="0.314538"/>
<path d="M40.3427 69.7917C40.2521 69.3389 40.1253 68.3789 40.3427 68.1615" stroke="black" stroke-width="0.314538"/>
<path d="M58.8184 70.0638C58.9995 69.611 59.2531 68.651 58.8184 68.4336" stroke="black" stroke-width="0.314538"/>
<path d="M49.5811 67.8899V71.1503" stroke="black" stroke-width="0.314538"/>
<path d="M55.0156 70.8785C55.1968 70.154 55.4503 68.5962 55.0156 68.1615" stroke="black" stroke-width="0.314538"/>
<path d="M38.7998 59.6521C37.9238 61.4169 36.5838 62.739 35.1297 63.4522C33.6756 64.1653 32.1129 64.2678 30.7799 63.6061C29.4468 62.9444 28.5836 61.6377 28.2725 60.0483C27.9613 58.4589 28.2043 56.5922 29.0803 54.8275C29.9563 53.0627 31.2962 51.7406 32.7504 51.0274C34.2044 50.3143 35.7671 50.2118 37.1002 50.8735C38.4332 51.5352 39.2965 52.8419 39.6076 54.4312C39.9187 56.0207 39.6758 57.8874 38.7998 59.6521Z" fill="#FBF6EF" stroke="black" stroke-width="0.2"/>
<path d="M61.9961 59.6521C62.8721 61.4169 64.2121 62.739 65.6662 63.4522C67.1203 64.1653 68.683 64.2678 70.016 63.6061C71.3491 62.9444 72.2123 61.6377 72.5234 60.0483C72.8346 58.4589 72.5916 56.5922 71.7156 54.8275C70.8396 53.0627 69.4997 51.7406 68.0455 51.0274C66.5915 50.3143 65.0288 50.2118 63.6957 50.8735C62.3627 51.5352 61.4994 52.8419 61.1883 54.4312C60.8772 56.0207 61.1201 57.8874 61.9961 59.6521Z" fill="#FBF6EF" stroke="black" stroke-width="0.2"/>
<ellipse cx="35.4544" cy="57.0761" rx="2.51936" ry="3.34379" transform="rotate(14.1522 35.4544 57.0761)" fill="#10181B"/>
<ellipse cx="34.9101" cy="58.3808" rx="1.08681" ry="0.815109" fill="white"/>
<circle cx="36.5395" cy="57.0222" r="0.543406" fill="white"/>
<ellipse cx="35.7253" cy="55.392" rx="0.815109" ry="0.543406" fill="white"/>
<ellipse cx="2.51936" cy="3.34379" rx="2.51936" ry="3.34379" transform="matrix(-0.96965 0.244499 0.244499 0.96965 66.9678 53.2178)" fill="#10181B"/>
<ellipse cx="65.3407" cy="58.3808" rx="1.08681" ry="0.815109" fill="white"/>
<circle cx="66.9702" cy="57.0222" r="0.543406" fill="white"/>
<ellipse cx="66.1559" cy="55.392" rx="0.815109" ry="0.543406" fill="white"/>
</svg>
