<svg width="99" height="99" viewBox="0 0 99 99" fill="none" xmlns="http://www.w3.org/2000/svg">
<rect x="0.532227" y="0.124268" width="98" height="98" rx="49" fill="#FFA51E"/>
<path d="M25.9772 35.6663C23.6899 55.6171 18.7763 72.6769 16.6055 78.713H82.2079C82.102 77.8658 81.6361 75.695 80.6195 73.7888C79.3487 71.4062 77.2838 62.1932 76.8072 60.9225C76.3307 59.6517 74.4246 46.15 72.0419 34.5544C69.6593 22.9588 68.5474 21.2116 63.9409 15.3343C56.9518 10.2513 53.4572 9.61597 47.8977 9.61597C43.4501 9.99719 37.8574 13.145 34.8725 16.1286C32.5 18.5 28.3917 22.8318 25.9772 35.6663Z" fill="#121513" stroke="black" stroke-width="0.463861"/>
<path d="M63.3052 26.6122C58.4763 17.4629 49.8564 16.4463 46.15 17.0816C41.5435 17.0816 37.0959 22.1646 34.2368 27.5653C31.3776 32.966 32.0129 43.6085 34.2368 54.4099C37.8902 64.7347 40.114 66.0055 47.7385 67.7528C55.363 66.9586 58.6987 64.5759 63.3052 54.4099C67.1174 40.7493 65.8467 37.4136 63.3052 26.6122Z" fill="#D9D9D9" stroke="black" stroke-width="0.463861"/>
<path d="M39.3213 26.6123C38.1688 22.9589 35.3477 32.4441 36.3022 33.1249C37.4141 33.9191 39.6389 33.7603 40.2743 33.1249C40.9097 32.4895 40.2743 29.6303 39.3213 26.6123Z" fill="#AB8DA9"/>
<path d="M58.6387 26.8114C59.7912 23.158 62.6123 32.6431 61.6577 33.324C60.5459 34.1182 58.321 33.9594 57.6856 33.324C57.0503 32.6886 57.6856 29.8294 58.6387 26.8114Z" fill="#AB8DA9"/>
<path d="M39.7958 54.8089C38.9468 60.0655 35.3475 46.7553 36.2442 45.7327C37.2886 44.54 39.5229 44.6366 40.2096 45.5023C40.8964 46.368 40.4981 50.4664 39.7958 54.8089Z" fill="#AB8DA9"/>
<path d="M58.3859 55.1232C59.2348 60.3798 62.8341 47.0696 61.9374 46.0471C60.893 44.8543 58.6588 44.9509 57.972 45.8166C57.2853 46.6823 57.6835 50.7807 58.3859 55.1232Z" fill="#AB8DA9"/>
<ellipse cx="38.5255" cy="38.0489" rx="3.65341" ry="2.22381" fill="#121513"/>
<ellipse cx="49.1692" cy="59.0165" rx="5.40069" ry="1.90612" fill="#121513"/>
<ellipse cx="38.5255" cy="42.6554" rx="2.70034" ry="0.794219" fill="#121513"/>
<ellipse cx="59.4923" cy="42.6554" rx="2.70034" ry="0.794219" fill="#121513"/>
<ellipse cx="59.4942" cy="38.0489" rx="3.65341" ry="2.22381" fill="#121513"/>
</svg>
