<svg width="98" height="98" viewBox="0 0 98 98" fill="none" xmlns="http://www.w3.org/2000/svg">
<rect width="98" height="98" rx="49" fill="#0075B9"/>
<path d="M37.7025 56.161C37.4874 54.1821 37.1218 49.9791 37.3799 48.9982C37.7025 47.7722 39.0576 40.7385 39.1867 40.2868C39.2899 39.9254 42.5852 27.9187 44.2199 21.9604H70.7415C73.3872 25.7031 78.5366 34.4791 77.9688 39.6415C77.2589 46.0944 76.3555 45.7072 76.1619 47.514C76.1015 48.0778 75.8526 49.5338 75.5329 51.3213C77.8173 54.6768 75.2817 59.4304 73.7284 61.3878C73.6894 61.6358 73.661 61.8327 73.6453 61.9686C73.4517 63.6464 68.2894 74.6809 60.2232 76.6167C52.157 78.5526 40.6708 67.0019 39.961 64.2916C39.3157 63.2592 38.7349 63.3882 38.2187 63.6464C37.7025 63.9045 36.2828 63.969 34.9923 62.5494C33.7017 61.1297 31.4432 58.355 31.056 56.6127C30.6688 54.8704 30.7333 51.5794 31.3786 50.4179C32.0239 49.2563 33.3791 48.6756 34.347 49.7726C35.3149 50.8696 35.8957 51.7084 35.8957 52.5473C35.8957 53.2184 37.1003 55.236 37.7025 56.161Z" fill="#FFDEC5"/>
<path d="M73.7284 61.3878C73.6894 61.6358 73.661 61.8327 73.6453 61.9686C73.4517 63.6464 68.2894 74.6809 60.2232 76.6167C52.157 78.5526 40.6708 67.0019 39.961 64.2917C39.3157 63.2592 38.7349 63.3882 38.2187 63.6464C37.7025 63.9045 36.2828 63.969 34.9923 62.5494C33.7017 61.1297 31.4432 58.355 31.056 56.6127C30.6688 54.8704 30.7333 51.5794 31.3786 50.4179C32.0239 49.2563 33.3791 48.6756 34.347 49.7726C35.3149 50.8696 35.8957 51.7084 35.8957 52.5473C35.8957 53.2184 37.1003 55.236 37.7025 56.161C37.4874 54.1821 37.1218 49.9791 37.3799 48.9982C37.7025 47.7722 39.0576 40.7385 39.1867 40.2868C39.2899 39.9254 42.5852 27.9187 44.2199 21.9604H70.7415C73.3872 25.7031 78.5366 34.4791 77.9688 39.6415C77.2589 46.0944 76.3555 45.7072 76.1619 47.514C76.1015 48.0778 75.8526 49.5338 75.5329 51.3213M73.7284 61.3878C74.0208 59.5293 74.9109 54.7982 75.5329 51.3213M73.7284 61.3878C75.2817 59.4304 77.8173 54.6768 75.5329 51.3213M32.9273 51.8375C33.0779 51.7945 33.4823 51.8375 33.8953 52.3537C34.4115 52.999 36.1538 55.3221 36.0248 55.9674C35.8957 56.6127 35.6376 56.4191 35.6376 56.6127C35.6376 56.8063 35.7021 57.7742 36.541 58.5485M33.8953 53.0636C33.2285 53.9455 32.566 56.3287 35.2504 58.8067" stroke="black" stroke-width="0.228305" stroke-linecap="round"/>
<path d="M60.9326 59.0001C61.0402 58.699 61.4618 58.1225 62.2877 58.2258M63.1911 59.9035C63.4923 59.3443 64.0946 58.3548 64.6753 57.9677C65.1379 57.6592 65.6088 57.2578 65.4497 56.8707C64.6538 54.9348 63.346 50.3532 64.4817 47.5139" stroke="black" stroke-width="0.228305" stroke-linecap="round"/>
<path d="M55.0615 65.7759C55.9004 66.2276 59.0752 66.86 65.0636 65.7759" stroke="black" stroke-width="0.45661" stroke-linecap="round"/>
<path d="M59.3848 69.7122C59.815 69.7122 60.8173 69.7122 61.3852 69.7122" stroke="black" stroke-width="0.45661" stroke-linecap="round"/>
<path d="M45.4459 42.739C43.8972 43.0488 41.144 44.3307 39.9609 45.0621C42.6066 42.2228 43.5746 41.4484 48.0271 40.2224C55.9642 39.0609 56.7386 42.739 56.2223 42.739C53.1894 42.2873 47.3818 42.3518 45.4459 42.739Z" fill="#CED1DC"/>
<path d="M52.3506 41.1903L53.3185 42.0292M52.9313 40.8032C53.3185 41.0338 54.1445 41.602 54.351 42.0292M54.351 40.9968C54.5876 41.2334 55.0866 41.7711 55.1898 42.0292M39.9609 45.0621C41.144 44.3307 43.8972 43.0488 45.4459 42.739C47.3818 42.3518 53.1894 42.2873 56.2223 42.739C56.7385 42.739 55.9642 39.0609 48.0271 40.2224C43.5746 41.4484 42.6066 42.2228 39.9609 45.0621Z" stroke="black" stroke-width="0.228305" stroke-linecap="round"/>
<path d="M68.9999 41.3838C67.8125 41.487 66.9565 42.5883 66.6768 43.1261C66.4805 43.4487 66.4832 43.8763 66.9349 43.7069C67.9674 43.3197 71.452 43.2551 72.6781 43.2551C73.9041 43.2551 75.1946 43.8359 75.7109 44.4167C75.9854 44.7255 76.5111 45.4491 76.5498 45.2556C76.6789 44.6103 75.84 42.7389 74.6139 41.9646C73.3879 41.1902 70.4841 41.2547 68.9999 41.3838Z" fill="#CED1DC"/>
<path d="M67.5802 43.4487C67.8813 42.954 68.561 41.9646 68.8707 41.9646M68.8707 42.868C69.0643 42.6314 69.516 42.1581 69.7742 42.1581M69.8387 42.9325C69.9893 42.7174 70.3678 42.3001 70.6776 42.3517M66.6768 43.1261C66.9565 42.5883 67.8125 41.487 68.9999 41.3838C70.4841 41.2547 73.3879 41.1902 74.6139 41.9646C75.84 42.7389 76.6789 44.6103 76.5498 45.2556C76.5111 45.4491 75.9854 44.7255 75.7109 44.4167C75.1946 43.8359 73.9041 43.2551 72.6781 43.2551C71.452 43.2551 67.9674 43.3197 66.9349 43.7069C66.4832 43.8763 66.4805 43.4487 66.6768 43.1261Z" stroke="black" stroke-width="0.228305" stroke-linecap="round"/>
<path d="M68.9341 24.0255C68.7835 27.4241 67.2434 35.0987 62.2875 38.6091C63.363 36.4151 65.4753 31.7174 65.3204 30.4785C64.7182 31.5324 63.191 33.9501 61.9004 35.1891C60.6098 36.4281 58.7384 40.4805 57.9641 42.3518C57.0229 41.4734 56.5332 37.1295 61.8224 26.7336C60.0909 29.938 56.3553 35.4507 52.0919 37.5121C54.2214 34.8019 58.5706 28.9556 58.932 27.252C59.0368 26.8328 59.2607 26.0562 59.4518 25.7237C58.4072 26.9598 56.0283 29.584 53.8987 31.3173C51.1239 33.5759 44.3484 38.8027 44.2193 41.9647C43.8321 40.6311 43.8192 36.9959 46.865 33.1242C49.9108 29.2524 51.6187 27.166 52.0919 26.6067C48.9945 29.3384 42.5028 35.2407 41.3155 36.9959C40.6878 37.9237 39.9217 39.0132 39.2269 40.0933C38.654 42.696 37.5082 48.1853 37.5082 49.321C37.5082 50.7406 37.4437 54.806 37.7664 56.2256C37.1856 55.3437 35.9983 53.3863 35.895 52.612C35.7918 51.8376 35.6799 51.601 35.6369 51.5795C35.0561 50.3104 33.4817 48.1724 31.8297 49.7727C29.7648 51.7731 31.1844 57.0645 31.378 57.6453C31.5716 58.226 34.9916 63.0657 35.895 63.3238C36.7984 63.582 36.7339 63.9691 38.3471 63.6465C38.539 63.4866 38.826 63.4376 39.1217 63.5389C39.4226 63.642 39.7325 63.9006 39.9604 64.3563C40.4121 65.2597 42.6061 68.2281 44.0902 69.5832V82.4891L42.2834 81.3275L41.8962 82.4891C41.0534 81.7024 39.4572 79.9177 38.9904 78.3789C39.2102 79.4455 39.5838 80.9092 39.9604 81.3275C38.003 80.6822 34.3205 77.2622 35.2497 68.7443C34.798 70.9813 34.1656 76.2039 35.2497 79.1981C34.4445 78.1605 33.2134 75.7941 33.03 72.8742C32.4793 74.6165 31.378 78.3205 31.378 79.1981C31.378 80.2951 31.378 82.1019 29.9583 80.4241C28.8226 79.0819 28.8828 73.4119 29.0549 70.7447C29.0934 70.5524 29.138 70.3343 29.1873 70.0994C28.8205 70.7017 28.0096 72.3967 27.6998 74.3584C27.3127 76.8105 26.7319 79.5207 26.7319 80.4241C26.7319 81.3275 26.4092 82.0373 25.1832 80.4241C23.9571 78.8109 22.9247 74.6165 23.57 70.7447C22.9677 72.7666 21.7374 77.1073 21.6341 78.2946C21.5051 79.7788 20.9243 78.7464 20.8598 77.7139C20.7952 76.6814 20.0854 71.1319 20.4726 68.4862C20.3005 69.3896 19.9047 71.3255 19.6983 71.8417C19.4401 72.487 18.9884 77.7784 19.1175 79.1981C19.2207 80.3338 17.8699 77.9935 17.1816 76.6814C16.5787 75.2791 15.8577 72.3755 15.9935 68.7443C15.9855 68.5163 15.9858 68.2829 15.9935 68.0456C15.7227 69.4831 15.2199 72.6548 15.3747 73.8421C15.3747 75.0037 14.0196 70.8626 13.9551 69.4541C13.9551 69.7122 13.839 70.022 13.3744 69.196C12.7937 68.1635 12.0194 62.9367 13.6971 59.323C14.8585 55.3222 16.2781 52.2248 17.5688 50.3535C18.8595 48.4821 21.0533 42.61 21.3115 41.5775C21.5697 40.545 26.0224 26.5422 28.926 23.5093C31.8297 19.1213 36.0888 14.5397 41.7028 12.991C46.946 11.5446 49.7691 10.3796 55.0604 11.4937C55.2554 11.5347 55.4537 11.5789 55.6556 11.6262C57.8387 11.1577 63.5255 11.0365 68.9341 14.2816C75.7098 18.3469 84.8084 27.7037 85.2601 35.9634C85.5343 40.978 83.8934 45.1206 82.4187 47.5787C82.2043 48.4606 81.9562 50.6503 82.6789 52.3539C83.5823 54.4833 88.5511 67.6473 82.6789 78.4882C81.84 79.7143 82.2917 77.3267 82.3563 74.2293C82.4208 71.1319 82.2272 71.3255 82.0982 70.2285C81.9046 73.0893 80.6269 79.2368 77.0649 80.9403C76.2905 81.1985 79.9042 75.7135 78.8717 72.3579C78.1641 75.0382 76.097 80.4931 73.4759 80.9363C73.0507 81.7184 72.4716 82.4303 71.7089 82.8117C71.1927 82.8117 72.5478 78.8109 72.5478 78.1011C72.5478 77.3912 72.4833 74.0357 72.0961 73.9066V71.9062C71.8595 75.0897 70.4184 81.6243 66.5466 82.2954C65.9658 82.2954 67.9017 80.166 67.45 78.4882C67.0198 79.7358 65.7722 82.3471 64.2235 82.8117C62.9975 82.8117 64.7398 81.6502 64.2235 80.4241C63.7933 81.0479 62.7523 82.2954 62.0295 82.2954C61.879 80.3596 61.7585 76.3458 62.4813 75.778C63.3847 75.0682 67.1274 74.1648 71.7089 66.3567C73.0641 63.711 73.5158 62.6786 73.7739 61.388C74.4966 60.5104 75.4086 58.6562 75.7743 57.8389C76.312 56.3762 77.0262 53.025 75.5807 51.3214C75.6138 51.079 75.6536 50.7926 75.6977 50.4825C75.9118 48.9763 76.2266 46.9104 76.355 46.6108C76.5486 46.1591 77.9037 41.9001 77.9683 40.0288C77.3875 36.9314 75.8001 30.5172 74.0965 29.6396C74.5912 32.3498 75.0516 38.0413 72.935 39.1254C72.5478 39.319 73.3219 30.3494 68.9341 24.0255Z" fill="#CAD3DE"/>
<path d="M68.9341 24.0255C68.7835 27.4241 67.2434 35.0987 62.2875 38.6091C63.363 36.4151 65.4753 31.7174 65.3204 30.4785M68.9341 24.0255C73.3219 30.3494 72.5478 39.319 72.935 39.1254C75.0516 38.0413 74.5912 32.3498 74.0965 29.6396M68.9341 24.0255L68.4179 23.1221M65.3204 30.4785C65.557 29.5966 65.9915 27.7682 65.8367 27.5101C65.6431 27.1875 66.0948 27.4904 65.3204 30.4785ZM65.3204 30.4785C64.7182 31.5324 63.191 33.9501 61.9004 35.1891C60.6098 36.4281 58.7384 40.4805 57.9641 42.3518C56.9961 41.4484 56.5057 36.8798 62.2875 25.8323C60.8464 28.7792 56.7896 35.2407 52.0919 37.5121C54.2214 34.8019 58.5706 28.9556 58.932 27.252C59.061 26.7358 59.3708 25.6775 59.5773 25.5742C58.6093 26.7358 56.1185 29.5105 53.8987 31.3173C51.1239 33.5759 44.3484 38.8027 44.2193 41.9647C43.8321 40.6311 43.8192 36.9959 46.865 33.1242C49.9108 29.2524 51.6187 27.166 52.0919 26.6067C48.9945 29.3384 42.5028 35.2407 41.3155 36.9959C40.6878 37.9237 39.9217 39.0132 39.2269 40.0933M39.2269 40.0933C38.2788 41.5673 37.4636 43.0241 37.3147 44.0296C37.6216 43.0832 38.4337 40.9709 39.2269 40.0933ZM39.2269 40.0933C38.654 42.696 37.5082 48.1853 37.5082 49.321C37.5082 50.7406 37.4437 54.806 37.7664 56.2256C37.1856 55.3437 35.9983 53.3863 35.895 52.612C35.7918 51.8376 35.6799 51.601 35.6369 51.5795M35.6369 51.5795C35.5509 50.4825 35.4304 48.2627 35.6369 48.1595M35.6369 51.5795C35.0561 50.3104 33.4817 48.1724 31.8297 49.7727M31.8297 49.7727C29.7648 51.7731 31.1844 57.0645 31.378 57.6453C31.5716 58.226 34.9916 63.0657 35.895 63.3238C36.7984 63.582 36.7339 63.9691 38.3471 63.6465C38.539 63.4866 38.826 63.4376 39.1217 63.5389M31.8297 49.7727C31.2617 48.7402 30.9048 46.8474 30.7974 46.03M33.03 72.8742C33.2134 75.7941 34.4445 78.1605 35.2497 79.1981C34.1656 76.2039 34.798 70.9813 35.2497 68.7443C34.3205 77.2622 38.003 80.6822 39.9604 81.3275C39.4957 80.8113 39.0354 78.7033 38.8634 77.7139C38.9666 79.3658 40.9283 81.5856 41.8962 82.489L42.2834 81.3275L44.0902 82.489V69.5832C42.6061 68.2281 40.4121 65.2597 39.9604 64.3563C39.7325 63.9006 39.4226 63.642 39.1217 63.5389M33.03 72.8742C32.9586 71.7382 33.0458 70.5184 33.3784 69.2605C33.1461 69.9273 32.7512 71.5836 33.03 72.8742ZM33.03 72.8742C32.4793 74.6165 31.378 78.3205 31.378 79.1981C31.378 80.2951 31.378 82.1019 29.9583 80.4241C28.8226 79.0819 28.8828 73.4119 29.0549 70.7447C29.0934 70.5524 29.138 70.3343 29.1873 70.0994M29.1873 70.0994C29.5236 68.4954 30.0753 66.1107 30.3455 65.8405L29.1873 70.0994ZM29.1873 70.0994C28.8205 70.7017 28.0096 72.3967 27.6998 74.3584C27.3127 76.8105 26.7319 79.5207 26.7319 80.4241C26.7319 81.3275 26.4092 82.0373 25.1832 80.4241C23.9571 78.8109 22.9247 74.6165 23.57 70.7447C22.9677 72.7666 21.7374 77.1073 21.6341 78.2946C21.5051 79.7788 20.9243 78.7463 20.8598 77.7139C20.7952 76.6814 20.0854 71.1319 20.4726 68.4862M20.4726 68.4862C20.8598 65.8405 21.247 63.6465 21.3115 63.1303C21.376 62.614 23.3764 55.9675 23.8927 55.903C23.0753 57.4087 21.2469 62.0333 20.4726 68.4862ZM20.4726 68.4862C20.3005 69.3896 19.9047 71.3255 19.6983 71.8417C19.4401 72.487 18.9884 77.7784 19.1175 79.1981C19.2207 80.3338 17.8699 77.9935 17.1816 76.6814C16.5787 75.2791 15.8577 72.3755 15.9935 68.7443M15.9935 68.7443C16.0805 66.4158 16.52 63.7882 17.5688 61.0653C17.0507 62.3667 16.0779 65.4357 15.9935 68.0456M15.9935 68.7443C15.9855 68.5163 15.9858 68.2829 15.9935 68.0456M15.9935 68.0456C15.7227 69.4831 15.2199 72.6548 15.3747 73.8421C15.3747 75.0036 14.0196 70.8626 13.9551 69.4541M13.9551 69.4541C13.8905 68.0456 13.3743 62.4204 14.8585 60.0329C14.3422 60.5921 13.4388 63.2593 13.9551 69.4541ZM13.9551 69.4541C13.9551 69.7122 13.839 70.022 13.3744 69.196C12.7937 68.1635 12.0194 62.9367 13.6971 59.323C14.8585 55.3222 16.2781 52.2248 17.5688 50.3535C18.8595 48.4821 21.0533 42.61 21.3115 41.5775C21.5697 40.545 26.0224 26.5422 28.926 23.5093C31.8297 19.1213 36.0888 14.5397 41.7028 12.991C46.946 11.5446 49.769 10.3796 55.0604 11.4937M55.0604 11.4937C55.4346 11.5725 55.8212 11.6627 56.2219 11.765L55.6412 11.6293M55.0604 11.4937L55.6412 11.6293M55.6412 11.6293C57.8136 11.1583 63.5135 11.0293 68.9341 14.2816C75.7098 18.3469 84.8084 27.7037 85.2601 35.9634C85.5343 40.978 83.8934 45.1206 82.4187 47.5787M82.4187 47.5787C81.9502 48.3597 81.4984 48.9706 81.1302 49.3855L82.4187 47.5787ZM82.4187 47.5787C82.2043 48.4606 81.9562 50.6503 82.6789 52.3539C83.5823 54.4833 88.5511 67.6473 82.6789 78.4882C81.84 79.7143 82.2917 77.3267 82.3563 74.2293C82.4208 71.1319 82.2272 71.3255 82.0982 70.2285M82.0982 70.2285C81.9691 69.1315 82.4853 63.3884 81.9046 62.3559C82.0336 63.6465 82.253 67.0278 82.0982 70.2285ZM82.0982 70.2285C81.9046 73.0893 80.6269 79.2368 77.0649 80.9403C76.2905 81.1985 79.9042 75.7135 78.8717 72.3579M78.8717 72.3579C79.0007 71.4976 79.1814 69.7251 78.8717 69.5187C78.4845 69.2605 79.4524 69.6477 78.8717 72.3579ZM78.8717 72.3579C78.1619 75.0467 76.084 80.5273 73.4512 80.9403C73.7739 80.123 74.4192 78.4108 74.4192 78.1011C74.2471 79.3056 73.4641 81.9341 71.7089 82.8117C71.1927 82.8117 72.5478 78.8109 72.5478 78.1011C72.5478 77.3912 72.4833 74.0357 72.0961 73.9066V71.9062C71.8595 75.0897 70.4184 81.6243 66.5466 82.2954C65.9658 82.2954 67.9017 80.166 67.45 78.4882C67.0198 79.7358 65.7722 82.3471 64.2235 82.8117C62.9975 82.8117 64.7398 81.6502 64.2235 80.4241C63.7933 81.0479 62.7523 82.2954 62.0296 82.2954C61.879 80.3596 61.7585 76.3459 62.4813 75.778C63.3847 75.0682 67.1274 74.1648 71.7089 66.3567C73.0641 63.711 73.5158 62.6786 73.7739 61.388C74.4966 60.5104 75.4086 58.6562 75.7743 57.8389C76.312 56.3762 77.0262 53.025 75.5807 51.3214C75.6137 51.079 75.6536 50.7926 75.6977 50.4825M77.9683 40.0288C77.9037 41.9001 76.5486 46.1591 76.355 46.6108C76.2266 46.9104 75.9118 48.9763 75.6977 50.4825M77.9683 40.0288C77.3875 36.9314 75.8001 30.5172 74.0965 29.6396M77.9683 40.0288C78.3904 41.642 78.5273 45.9913 75.6977 50.4825M74.0965 29.6396C73.8384 28.6286 73.2447 26.6067 72.935 26.6067C72.6124 26.0259 73.8384 28.1554 74.0965 29.6396ZM38.3471 72.8742C38.1966 70.4149 38.1408 65.1048 39.1217 63.5389M39.5734 75.2618C39.4228 74.0572 39.1862 71.4416 39.4443 70.6157M20.8598 61.9042C21.3976 58.3981 23.1315 50.4825 25.7641 46.8689M32.6687 36.4797C32.217 39.0823 31.8169 44.6362 33.8303 46.03M36.4114 45.7719C35.68 43.9866 34.8366 39.2415 37.3147 34.5438M78.3555 47.2561C80.2053 45.0621 83.9695 40.0288 81.1302 32.3498" stroke="black" stroke-width="0.228305" stroke-linecap="round"/>
<path d="M43.3809 49.0626C43.8111 46.9977 45.9362 43.3195 50.9953 45.1263C51.3158 44.9661 51.8474 44.6619 52.1411 44.3859C52.2811 44.2544 52.3671 44.1293 52.3504 44.0293C52.3917 44.1023 52.3963 44.2501 52.282 44.4608C52.6879 44.6856 53.0636 44.9751 53.3962 45.3403C53.4606 45.2753 53.5022 45.204 53.512 45.1263C53.512 45.1956 53.4909 45.287 53.4367 45.3853C53.3012 45.6307 52.9588 45.9184 52.2214 46.0058C53.364 47.0955 53.5003 48.2988 53.3829 48.869C52.9527 47.4924 51.6406 45.1263 49.3176 45.1263C47.7688 45.1263 45.6394 44.9973 43.3809 49.0626Z" fill="black"/>
<path d="M45.3167 51.3857C46.2847 51.988 48.9433 52.8957 51.8342 51.7083M50.9953 45.1263C45.9362 43.3195 43.8111 46.9977 43.3809 49.0626C45.6394 44.9973 47.7688 45.1263 49.3176 45.1263C51.6406 45.1263 52.9527 47.4924 53.3829 48.869C53.5003 48.2988 53.364 47.0955 52.2214 46.0058M50.9953 45.1263C51.4685 44.8897 52.4021 44.3391 52.3504 44.0293C52.4365 44.1815 52.3633 44.6595 51.3825 45.3545M50.9953 45.1263C51.1315 45.2006 51.2604 45.2768 51.3825 45.3545M51.3825 45.3545C51.6261 45.5097 51.8424 45.6711 52.0341 45.8362M52.0341 45.8362C52.5052 45.7716 53.4603 45.5393 53.512 45.1263C53.512 45.3685 53.2538 45.8834 52.2214 46.0058M52.0341 45.8362C52.0993 45.8923 52.1617 45.9489 52.2214 46.0058M44.0907 45.3545C46.0911 44.0293 51.6277 42.373 53.8991 46.0058" stroke="black" stroke-width="0.228305" stroke-linecap="round"/>
<path d="M67.5792 52.0313C71.3217 53.6445 73.7955 51.2139 74.0966 49.9018C73.86 48.4176 72.7027 45.4751 69.9666 45.5783C67.2306 45.6816 66.2025 48.2455 66.0305 49.5146C65.9659 49.9663 66.1853 51.102 67.5792 52.0313Z" fill="#F3F3F3"/>
<path d="M51.7699 51.7085C47.2844 53.3765 43.5747 50.6761 43.3811 49.0702C43.6647 47.5356 45.3744 44.8935 48.6536 45.0002C51.9328 45.107 53.165 47.758 53.3712 49.0701C53.4485 49.5372 53.4405 50.7478 51.7699 51.7085Z" fill="#F3F3F3"/>
<path d="M51.9788 48.6112C51.9788 50.5659 50.6809 52.1107 49.1246 52.1107C47.5682 52.1107 46.2704 50.5659 46.2704 48.6112C46.2704 46.6565 47.5682 45.1117 49.1246 45.1117C50.6809 45.1117 51.9788 46.6565 51.9788 48.6112Z" fill="#3E2F28" stroke="black" stroke-width="0.228305"/>
<ellipse cx="49.4464" cy="48.6757" rx="1.74229" ry="2.38758" fill="black"/>
<ellipse cx="47.4475" cy="48.1593" rx="1.03247" ry="1.097" fill="#F3F3F3"/>
<circle cx="47.6406" cy="50.2244" r="0.838881" fill="#F3F3F3"/>
<path d="M72.3708 49.1918C72.3708 50.1164 72.1161 50.9484 71.7101 51.546C71.3038 52.1442 70.7544 52.4977 70.1619 52.4977C69.5695 52.4977 69.02 52.1442 68.6137 51.546C68.2078 50.9484 67.953 50.1164 67.953 49.1918C67.953 48.2672 68.2078 47.4352 68.6137 46.8376C69.02 46.2394 69.5695 45.8859 70.1619 45.8859C70.7544 45.8859 71.3038 46.2394 71.7101 46.8376C72.1161 47.4352 72.3708 48.2672 72.3708 49.1918Z" fill="#3E2F28" stroke="black" stroke-width="0.228305"/>
<path d="M71.6627 49.2528C71.6627 49.8596 71.5141 50.4034 71.2798 50.7917C71.0441 51.1822 70.7343 51.3984 70.4133 51.3984C70.0923 51.3984 69.7825 51.1822 69.5469 50.7917C69.3126 50.4034 69.164 49.8596 69.164 49.2528C69.164 48.6461 69.3126 48.1023 69.5469 47.714C69.7825 47.3235 70.0923 47.1073 70.4133 47.1073C70.7343 47.1073 71.0441 47.3235 71.2798 47.714C71.5141 48.1023 71.6627 48.6461 71.6627 49.2528Z" fill="black" stroke="black" stroke-width="0.228305"/>
<ellipse cx="69.0001" cy="48.4822" rx="0.90341" ry="1.03247" fill="#F3F3F3"/>
<ellipse cx="69.1942" cy="50.4177" rx="0.709822" ry="0.774351" fill="#F3F3F3"/>
<path d="M66.0303 49.5088C66.1593 47.385 68.0626 44.2271 72.096 45.9654C72.3108 46.058 72.5037 46.1703 72.6768 46.2973C72.8623 46.1714 73.1878 45.9083 73.3754 45.6362C73.4462 45.5335 73.4973 45.4296 73.5139 45.3312C73.5145 45.3274 73.5151 45.3237 73.5157 45.3201C73.5151 45.3238 73.5146 45.3275 73.5139 45.3312C73.4996 45.4211 73.4715 45.5436 73.4279 45.6771C73.6905 45.8842 73.954 46.1212 74.2173 46.3909C74.2453 46.3612 74.2698 46.33 74.29 46.2973C74.29 46.3432 74.2804 46.3894 74.2607 46.4357C74.1739 46.6408 73.8919 46.8477 73.3866 47.0344C73.9587 47.8661 74.0835 48.8597 74.0045 49.3225C73.6615 47.9981 72.3349 45.8364 70.4828 45.8364C69.2481 45.8364 67.3854 45.5137 66.0303 49.5088Z" fill="black"/>
<path d="M67.579 52.0541C68.9341 52.6764 70.0956 52.9346 72.2896 52.0541M72.6768 46.2973C72.5037 46.1703 72.3108 46.058 72.096 45.9654C68.0626 44.2271 66.1593 47.385 66.0303 49.5088C67.3854 45.5137 69.2481 45.8364 70.4828 45.8364C72.3349 45.8364 73.6615 47.9981 74.0045 49.3225C74.0835 48.8597 73.9587 47.8661 73.3866 47.0344M72.6768 46.2973C72.9349 46.1221 73.464 45.6815 73.5157 45.3201C73.4732 45.5997 73.2913 46.2235 72.9035 46.4816M72.6768 46.2973C72.7565 46.3558 72.832 46.4174 72.9035 46.4816M72.9035 46.4816C73.0165 46.5833 73.1194 46.6915 73.2128 46.8043M73.2128 46.8043C73.5074 46.7889 74.0964 46.6107 74.29 46.2973C74.29 46.5462 74.0061 46.8055 73.3866 47.0344M73.2128 46.8043C73.2749 46.8792 73.3327 46.9561 73.3866 47.0344M66.611 45.8364C67.8801 44.6103 71.2313 43.0616 74.4836 46.6752" stroke="black" stroke-width="0.228305" stroke-linecap="round"/>
<path d="M52.0291 45.8363L51.3838 45.3846C51.9516 45.0232 52.2657 44.6318 52.3517 44.4812C52.9325 44.8038 53.1261 45.062 53.3197 45.3201C53.1132 45.6298 52.3732 45.7933 52.0291 45.8363Z" fill="#F2CDB1" stroke="black" stroke-width="0.228305" stroke-linecap="round"/>
<path d="M73.2591 46.8044L73.001 46.4173C73.4174 46.1075 73.3896 45.901 73.4527 45.772C73.8399 46.0946 73.9044 46.1591 74.1625 46.4173C74.0111 46.6828 73.5115 46.7676 73.2591 46.8044Z" fill="#F2CDB1"/>
</svg>
