<svg width="98" height="99" viewBox="0 0 98 99" fill="none" xmlns="http://www.w3.org/2000/svg">
<rect y="0.324341" width="98" height="98" rx="49" fill="#FE9DB0"/>
<path d="M32.6086 93.162C31.6016 88.6764 30.0375 86.9321 29.4272 86.7032C28.9695 88.1145 28.1914 91.0287 28.7407 91.3948C29.2899 91.761 31.5788 92.7806 32.6086 93.162Z" fill="#EFD171"/>
<path d="M65.93 92.8824L62.726 88.3053C61.9632 88.6485 60.0713 89.7699 58.6066 91.5093C56.7757 93.6834 61.124 94.4844 61.8106 94.37C62.3598 94.2784 64.7857 93.3401 65.93 92.8824Z" fill="#EFD171"/>
<path d="M32.6086 93.162C31.6016 88.6764 30.0375 86.9321 29.4272 86.7032C28.9695 88.1145 28.1914 91.0287 28.7407 91.3948C29.2899 91.761 31.5788 92.7806 32.6086 93.162Z" stroke="black" stroke-width="0.334159" stroke-linecap="round"/>
<path d="M65.93 92.8824L62.726 88.3053C61.9632 88.6485 60.0713 89.7699 58.6066 91.5093C56.7757 93.6834 61.124 94.4844 61.8106 94.37C62.3598 94.2784 64.7857 93.3401 65.93 92.8824Z" stroke="black" stroke-width="0.334159" stroke-linecap="round"/>
<path d="M87.4428 75.4891L75.1989 72.7428L67.9898 81.7827L74.2834 88.534C78.4029 87.0693 84.7728 79.2271 87.4428 75.4891Z" fill="#FF758D"/>
<path d="M13.4072 79.1508L20.0441 76.1757L26.1088 82.6981L22.7904 87.8474C20.9595 87.2982 15.7721 81.8208 13.4072 79.1508Z" fill="#FF758D"/>
<path d="M87.4428 75.4891L75.1989 72.7428L67.9898 81.7827L74.2834 88.534C78.4029 87.0693 84.7728 79.2271 87.4428 75.4891Z" stroke="black" stroke-width="0.334159" stroke-linecap="round"/>
<path d="M13.4072 79.1508L20.0441 76.1757L26.1088 82.6981L22.7904 87.8474C20.9595 87.2982 15.7721 81.8208 13.4072 79.1508Z" stroke="black" stroke-width="0.334159" stroke-linecap="round"/>
<path d="M83.8737 79.9383C83.8737 79.7552 83.2731 76.1059 82.9679 74.5039L85.6125 75.1459L86.7568 76.4046C85.8032 77.587 83.8737 80.1214 83.8737 79.9383Z" fill="#778797"/>
<path d="M65.9307 92.8824L62.7267 88.3052L67.9905 81.8972L74.4541 88.5427L69.8213 91.2803L65.9307 92.8824Z" fill="#778797"/>
<path d="M29.3135 86.4743L28.7413 91.3948C28.1921 91.3032 24.5456 88.9918 22.791 87.8475L25.995 82.8126L29.3135 86.4743Z" fill="#778797"/>
<path d="M83.8737 79.9383C83.8737 79.7552 83.2731 76.1059 82.9679 74.5039L85.6125 75.1459L86.7568 76.4046C85.8032 77.587 83.8737 80.1214 83.8737 79.9383Z" stroke="black" stroke-width="0.334159" stroke-linecap="round"/>
<path d="M65.9307 92.8824L62.7267 88.3052L67.9905 81.8972L74.4541 88.5427L69.8213 91.2803L65.9307 92.8824Z" stroke="black" stroke-width="0.334159" stroke-linecap="round"/>
<path d="M29.3135 86.4743L28.7413 91.3948C28.1921 91.3032 24.5456 88.9918 22.791 87.8475L25.995 82.8126L29.3135 86.4743Z" stroke="black" stroke-width="0.334159" stroke-linecap="round"/>
<path d="M58.3775 74.4589C56.5467 73.3604 55.593 66.5252 55.9745 63.2449C49.6809 60.5749 37.1166 55.8299 37.2082 58.21C37.2997 60.5901 38.0855 67.2118 38.4669 70.2251L32.5166 71.0261L34.9196 80.1804L46.0192 94.2551C49.8107 90.4162 52.4776 86.1868 54.2581 82.5132C55.9167 79.0911 58.0648 76.1513 58.3775 74.4589Z" fill="#F1E1C6"/>
<path d="M47.0491 86.2451C48.3841 84.9396 51.6949 82.3654 54.2581 82.5132M54.2581 82.5132C55.9167 79.0911 58.0648 76.1513 58.3775 74.4589C56.5467 73.3604 55.593 66.5252 55.9745 63.2449C49.6809 60.5749 37.1166 55.8299 37.2082 58.21C37.2997 60.5901 38.0855 67.2118 38.4669 70.2251L32.5166 71.0261L34.9196 80.1804L46.0192 94.2551C49.8107 90.4162 52.4776 86.1868 54.2581 82.5132ZM52.3128 71.0261C52.3128 72.8569 49.7088 77.8918 48.1934 80.5237C49.5665 78.3114 52.3128 73.3146 52.3128 71.0261Z" stroke="black" stroke-width="0.334159" stroke-linecap="round" stroke-linejoin="round"/>
<path d="M17.524 69.8819C17.0663 70.4312 26.4113 80.7908 31.1411 85.902L35.2604 76.7477L32.8576 60.2699C27.9371 63.2451 17.9817 69.3327 17.524 69.8819Z" fill="#B93C4A" stroke="black" stroke-width="0.334159" stroke-linecap="round"/>
<path d="M76.3265 68.1652C76.7862 68.7733 67.4005 80.2429 62.6502 85.9017L59.064 76.2897L55.86 64.1602L56.2033 59.8119L57.0043 59.4686C65.2432 58.6676 75.8668 67.5571 76.3265 68.1652Z" fill="#B93C4A" stroke="black" stroke-width="0.334159" stroke-linecap="round"/>
<path d="M26.1084 69.8821C27.0238 68.0512 36.5212 63.0164 37.2078 63.0164L38.009 70.6831C35.4458 73.1548 37.475 78.4261 38.81 80.7528C39.9162 81.3631 42.2429 83.1101 42.7006 85.2156C43.2727 87.8474 45.5613 93.5689 46.1335 93.7977C49.9859 87.6186 57.6908 75.1001 57.6908 74.4593C57.0042 74.3448 56.0888 73.7727 55.8599 72.9717C55.6768 72.3309 55.7074 66.9832 55.8599 64.2751C57.3246 64.9159 64.0225 66.8307 67.074 67.8224C65.3125 69.7272 62.592 72.7011 60.422 75.1458C61.5332 77.6251 63.4809 83.8195 62.3824 88.7629C61.0092 90.8226 60.5515 91.2803 60.6659 92.539C60.7575 93.546 61.4669 94.1792 61.8102 94.3699C57.4238 95.9719 45.424 97.963 32.5164 93.1112C31.7917 91.8525 30.3423 89.0375 30.3423 87.8474C30.6856 86.3599 30.4567 85.7877 30.9144 85.2156C31.4484 82.1195 32.7682 76.1398 33.7751 76.9901C30.9899 74.5921 27.916 71.6676 26.1084 69.8821Z" fill="#F8FFFF"/>
<path d="M38.81 80.7528C37.475 78.4261 35.4458 73.1548 38.009 70.6831L37.2078 63.0164C36.5212 63.0164 27.0238 68.0512 26.1084 69.8821C27.916 71.6676 30.9899 74.5921 33.7751 76.9901M38.81 80.7528C39.9162 81.3631 42.2429 83.1101 42.7006 85.2156C43.2727 87.8474 45.5613 93.5689 46.1335 93.7977M38.81 80.7528C37.6895 80.2119 35.8093 78.7414 33.7751 76.9901M46.1335 93.7977L45.5613 94.942M46.1335 93.7977C49.9859 87.6186 57.6908 75.1001 57.6908 74.4593M46.1335 93.7977C49.4138 90.7082 56.0888 84.529 56.5465 84.529C57.6908 84.0713 56.7754 80.0663 57.0042 79.2653C57.089 78.9686 58.5508 77.2539 60.422 75.1458M57.6908 74.4593C57.8739 73.5438 58.2248 71.4078 58.3774 70.4542L57.6908 74.4593ZM57.6908 74.4593C57.0042 74.3448 56.0888 73.7727 55.8599 72.9717C55.6768 72.3309 55.7074 66.9832 55.8599 64.2751C57.3246 64.9159 64.0225 66.8307 67.074 67.8224C65.3125 69.7272 62.592 72.7011 60.422 75.1458M60.422 75.1458C61.5332 77.6251 63.4809 83.8195 62.3824 88.7629C61.0092 90.8226 60.5515 91.2803 60.6659 92.539C60.7575 93.546 61.4669 94.1792 61.8102 94.3699C57.4238 95.9719 45.424 97.963 32.5164 93.1112C31.7917 91.8525 30.3423 89.0375 30.3423 87.8474C30.6856 86.3599 30.4567 85.7877 30.9144 85.2156C31.4484 82.1195 32.7682 76.1398 33.7751 76.9901" stroke="black" stroke-width="0.334159" stroke-linecap="round"/>
<path d="M77.4858 65.9914C75.6858 64.4614 67.1491 60.3081 62.8389 58.668L62.1523 61.071L62.1904 61.0868C66.3257 62.8099 75.0804 66.4576 74.2818 69.1954C73.641 71.3925 66.2718 80.7146 62.7245 84.9866L62.4956 88.6484L77.7147 69.9964C79.66 67.479 79.7744 67.9367 77.4858 65.9914Z" fill="#EFB345" stroke="black" stroke-width="0.334159" stroke-linecap="round"/>
<path d="M17.0543 68.7659C18.7802 67.1527 27.1116 62.6015 31.3396 60.7599L32.1387 63.1279C28.1048 65.0367 18.9566 69.1953 19.5857 71.0261C20.4507 73.5436 23.0186 75.7177 30.9142 85.2153L30.342 87.7328L17.0146 72.7773C14.9527 70.3544 14.86 70.817 17.0543 68.7659Z" fill="#EFB345" stroke="black" stroke-width="0.334159" stroke-linecap="round"/>
<path d="M69.1357 73.4292C72.889 68.0282 74.2087 60.9565 74.3995 58.0958C73.7587 53.3355 67.5478 43.5187 65.4881 40.8105L57.3495 62.1008C57.7157 62.65 56.663 66.5254 56.0908 68.3944C60.668 67.2958 62.27 61.9863 62.4988 59.4689C63.3227 68.9894 59.9433 71.8272 58.1505 72.0561C59.1041 72.3994 61.3088 72.88 62.4988 72.0561C67.9914 69.9506 67.7626 58.6679 66.9616 53.2897C69.4332 57.5007 69.4409 68.4706 69.1357 73.4292Z" fill="#B28752" stroke="black" stroke-width="0.334159" stroke-linecap="round"/>
<path d="M48.8803 66.4494C45.5848 66.6325 39.4972 60.6517 36.8653 57.6384C33.4782 49.7656 37.8189 33.1506 40.4126 25.8271L54.1441 21.3644L65.4725 42.1905L64.3222 47.3398C64.5912 46.1355 65.4497 43.6944 66.7313 43.5636C68.3333 43.4001 65.8158 49.1706 64.9004 51.2303C64.1681 52.8781 63.4429 52.7561 63.1718 52.4891L63.0695 52.9468C62.0397 57.9816 56.2038 63.4742 54.1441 64.8474C52.0844 66.2205 52.9998 66.2205 48.8803 66.4494Z" fill="#FFEAC8"/>
<path d="M63.0695 52.9468C62.0397 57.9816 56.2038 63.4742 54.1441 64.8474C52.0844 66.2205 52.9998 66.2205 48.8803 66.4494C45.5848 66.6325 39.4972 60.6517 36.8653 57.6384C33.4782 49.7656 37.8189 33.1506 40.4126 25.8271L54.1441 21.3644L65.4725 42.1905M63.0695 52.9468C63.8934 48.9189 65.0148 44.0976 65.4725 42.1905M63.0695 52.9468L63.1718 52.4891M65.4725 42.1905L64.3222 47.3398M63.1718 52.4891C63.4429 52.7561 64.1681 52.8781 64.9004 51.2303C65.8158 49.1706 68.3333 43.4001 66.7313 43.5636C65.4497 43.6944 64.5912 46.1355 64.3222 47.3398M63.1718 52.4891L64.3222 47.3398" stroke="black" stroke-width="0.334159"/>
<path d="M55.2832 56.4953C54.8254 55.763 48.4556 55.885 45.3278 56.0376C45.1039 56.0482 44.8744 56.3796 47.7308 58.0973C49.8331 59.3615 52.0714 59.0337 53.571 58.3286C54.8075 57.7471 55.5417 56.909 55.2832 56.4953Z" fill="#442127" stroke="#0A0A08" stroke-width="0.334159" stroke-linecap="round"/>
<path d="M51.2825 55.9219C52.7472 56.1965 53.4185 57.6383 53.5711 58.3249C49.5432 59.9727 46.2858 57.6002 45.2178 56.1507L51.2825 55.9219Z" fill="#8B5258"/>
<path d="M50.8252 51.917L51.8551 51.0016M52.8849 52.8324C53.5715 52.2222 54.9446 50.8871 54.9446 50.4294C54.9446 49.9717 54.6395 45.8904 54.4869 43.907" stroke="black" stroke-width="0.334159" stroke-linecap="round"/>
<path d="M44.7602 37.613C43.921 36.8883 41.5562 36.1255 39.2676 37.1553M58.3772 37.9563C58.7586 37.5749 59.9106 36.9265 61.4668 37.3842" stroke="black" stroke-width="0.334159" stroke-linecap="round"/>
<path d="M64.787 58.3245C64.787 57.4609 64.253 55.3875 63.6427 54.2051H63.4138C63.2994 54.8917 63.0862 58.0124 63.4138 58.6678C63.7571 59.3544 64.787 59.1255 64.787 58.3245Z" fill="#25CB5C" stroke="black" stroke-width="0.334159" stroke-linecap="round"/>
<path d="M63.868 53.4581C63.8552 53.6842 63.7864 53.8777 63.6944 54.0078C63.6008 54.1403 63.5006 54.1867 63.4211 54.1822C63.3417 54.1777 63.2474 54.1202 63.1694 53.978C63.0928 53.8383 63.0463 53.6382 63.0592 53.4121C63.0721 53.186 63.1409 52.9924 63.2329 52.8623C63.3265 52.7299 63.4266 52.6834 63.5061 52.6879C63.5855 52.6924 63.6798 52.75 63.7578 52.8921C63.8344 53.0319 63.8809 53.2319 63.868 53.4581Z" fill="#D8C624" stroke="black" stroke-width="0.334159"/>
<path d="M46.0187 41.3895C43.0893 44.4104 39.0767 42.343 37.4365 40.9317L38.6952 38.872C43.547 37.2242 45.5991 39.8637 46.0187 41.3895Z" fill="white"/>
<path d="M44.3652 40.7028C44.3652 41.9455 43.4077 42.9387 42.2437 42.9387C41.0796 42.9387 40.1222 41.9455 40.1222 40.7028C40.1222 39.4602 41.0796 38.4669 42.2437 38.4669C43.4077 38.4669 44.3652 39.4602 44.3652 40.7028Z" fill="#6E8A96" stroke="black" stroke-width="0.334159"/>
<ellipse cx="42.2445" cy="40.9313" rx="0.915431" ry="1.25872" fill="#010406"/>
<ellipse cx="40.8702" cy="40.3596" rx="0.686574" ry="0.915431" fill="#F3F3E7"/>
<path d="M38.124 41.6183C39.2683 42.3811 42.1977 43.6551 44.7609 42.6481" stroke="black" stroke-width="0.334159" stroke-linecap="round"/>
<path d="M38.5811 38.8719C42.5174 37.0411 45.1035 39.3297 45.9045 40.7028C44.6229 37.0411 40.7933 37.4988 39.0388 38.1854L38.5811 38.8719Z" stroke="black" stroke-width="0.334159" stroke-linecap="round"/>
<path d="M64.1002 40.7029C61.9947 44.3646 57.7303 43.3729 55.8613 42.4193C57.326 38.2999 61.2013 38.4906 62.9559 39.1009L64.1002 40.7029Z" fill="white"/>
<path d="M39.9551 35.4396C42.6098 34.8904 44.8755 35.6685 45.6765 36.1262C45.4934 35.7601 45.6002 35.2871 45.6765 35.0964C44.3034 34.2725 41.6715 34.2191 40.5272 34.2954L39.9551 35.4396Z" fill="#695136"/>
<path d="M59.9801 34.8675C58.8816 34.959 57.4246 36.2788 57.005 36.9272C57.3712 36.6526 59.5224 36.1262 60.5523 35.8974L59.9801 34.8675Z" fill="#695136"/>
<circle cx="60.2103" cy="41.1613" r="2.00707" fill="#6E8A96" stroke="black" stroke-width="0.334159"/>
<ellipse cx="60.3227" cy="41.3898" rx="0.915431" ry="1.25872" fill="#010406"/>
<ellipse cx="58.9512" cy="40.8178" rx="0.686574" ry="0.915431" fill="#F3F3E7"/>
<path d="M62.9555 39.2158C59.7515 37.7511 57.5011 39.6735 56.7764 40.8178C57.5087 38.0715 60.8195 37.9952 62.3834 38.3003L62.9555 39.2158Z" fill="#010406"/>
<path d="M57.1191 43.1066C58.4541 43.4499 61.5132 43.7932 63.0694 42.42" stroke="black" stroke-width="0.334159" stroke-linecap="round"/>
<path d="M45.1045 25.3682C42.5489 29.9835 37.3004 40.4728 36.7512 45.5077C36.0646 51.6487 36.4308 66.5854 43.388 77.2045C40.9338 75.3404 36.3591 70.7285 34.3505 65.075C34.96 68.546 36.7739 76.0144 39.154 78.1199C37.2813 77.3891 34.2298 75.3674 31.945 71.819C29.37 71.0298 25.5911 67.7429 23.6976 60.3834C23.2333 61.665 24.3489 68.5411 24.9648 71.819C17.4562 65.4051 20.8445 47.1811 23.4772 38.8708C24.5825 33.3019 27.5487 21.5005 30.5717 18.8457C33.4328 13.9253 40.9847 7.74611 49.6813 7.40283C58.3779 7.05954 65.9956 13.2396 72.796 19.6466C78.7463 25.2537 84.2389 29.2587 86.0697 32.2339C87.9006 35.2091 88.9305 42.5325 88.5872 42.9902C87.1759 39.6336 82.6598 32.0279 75.8856 28.4577C81.073 36.3915 91.425 53.1286 91.3335 56.6073L80.2339 42.9902C82.7132 47.9488 87.5115 58.4152 86.8707 60.6123C84.8873 56.3784 80.4856 47.5674 78.7463 46.1942C79.5473 49.2838 80.8747 57.1336 79.7761 63.8163C79.4329 61.9091 78.7005 58.072 78.5174 57.9804C79.1582 62.8322 78.7844 70.3006 78.5174 73.4283C77.4907 69.1373 75.6247 61.7758 74.2057 57.3251C75.2261 60.8139 71.1945 69.4794 69.0198 73.4283C69.4734 62.8014 68.6924 57.3575 67.8456 54.9213C67.5623 54.2634 67.2311 53.7093 66.8457 53.2888C67.1354 53.4225 67.4961 53.9157 67.8456 54.9213C69.7832 59.4196 69.4857 68.7696 69.0198 73.4283C71.1945 69.4794 75.2261 60.8139 74.2057 57.3251C74.1902 57.2762 74.1746 57.2276 74.1591 57.1794L72.6816 53.6321C72.6816 55.0968 71.995 58.8958 71.6517 60.6123C71.6517 53.4719 69.1343 47.0334 67.8755 44.7066C62.5899 40.4961 56.8002 29.8782 54.4102 24.7789C55.5924 28.1186 57.6768 50.8712 57.3481 50.5425C57.0048 50.1992 53.3431 38.8708 51.2833 35.3235C49.6356 32.4856 48.6896 25.1393 48.4226 21.8209C47.8505 23.194 48.0793 34.5225 47.8505 37.0399C47.6674 39.0539 48.9185 42.9902 49.5669 44.7066C45.2644 40.4957 44.7992 30.0598 45.1045 25.3682Z" fill="#FAD895"/>
<path d="M45.1045 25.3682C42.5489 29.9835 37.3004 40.4728 36.7512 45.5077M45.1045 25.3682L45.5619 22.393M45.1045 25.3682C44.7992 30.0598 45.2644 40.4957 49.5669 44.7067C48.9185 42.9902 47.6674 39.0539 47.8505 37.0399C48.0793 34.5225 47.8505 23.194 48.4226 21.8209C48.6896 25.1393 49.6356 32.4856 51.2833 35.3235C53.3431 38.8708 57.0048 50.1992 57.3481 50.5425C57.6914 50.8858 55.4028 26.0548 54.2585 24.4527M36.7512 45.5077C36.9037 40.4728 37.6437 29.5334 39.383 26.0547C38.5057 29.1825 36.7512 37.4519 36.7512 45.5077ZM36.7512 45.5077C36.0646 51.6487 36.4308 66.5855 43.388 77.2045C40.9338 75.3404 36.3591 70.7285 34.3505 65.075M33.4328 61.07C31.9681 53.655 32.0596 41.3501 32.2885 36.1245C32.0978 42.4614 32.0597 56.3221 33.4328 61.07ZM33.4328 61.07C31.4112 54.929 28.1919 39.0081 31.4874 24.4527C30.1525 29.7928 28.6726 44.5922 33.4328 61.07ZM33.4328 61.07C33.5686 62.4456 33.893 63.7873 34.3505 65.075M34.3505 65.075C34.96 68.546 36.7739 76.0144 39.154 78.1199C37.2813 77.3891 34.2298 75.3674 31.945 71.819M28.9699 62.5576C27.9629 52.7625 28.3214 39.0996 28.6266 33.4926C28.3214 42.1892 27.9628 60.1775 28.9699 62.5576ZM28.9699 62.5576C27.8256 59.1247 25.6744 50.1535 26.2236 41.7315C26.2999 46.0035 26.9558 56.1496 28.9699 62.5576ZM28.9699 62.5576C29.227 66.3776 30.4138 69.4411 31.945 71.819M31.945 71.819C29.37 71.0298 25.5911 67.7429 23.6976 60.3834M23.4772 38.8708C20.8445 47.1811 17.4562 65.4051 24.9648 71.819C24.3489 68.5411 23.2333 61.665 23.6976 60.3834M23.4772 38.8708C21.9839 48.3159 22.3937 55.3153 23.6976 60.3834M23.4772 38.8708C24.5825 33.3019 27.5487 21.5005 30.5717 18.8457C33.4328 13.9253 40.9847 7.74611 49.6813 7.40283C58.3779 7.05954 65.9956 13.2396 72.796 19.6466C78.7463 25.2537 84.2389 29.2587 86.0697 32.2339C87.9006 35.2091 88.9305 42.5325 88.5872 42.9902C87.1759 39.6336 82.6598 32.0279 75.8856 28.4577M75.8856 28.4577L69.2487 19.4179M75.8856 28.4577C81.073 36.3915 91.425 53.1286 91.3335 56.6073L80.2339 42.9902M80.2339 42.9902L77.602 38.2986M80.2339 42.9902C82.7132 47.9488 87.5115 58.4152 86.8707 60.6123C84.8873 56.3784 80.4856 47.5674 78.7463 46.1942M78.7463 46.1942C77.1824 41.0831 73.5741 30.3801 71.6517 28.4577C73.4444 31.8525 77.3731 40.1524 78.7463 46.1942ZM78.7463 46.1942C79.5473 49.2838 80.8747 57.1336 79.7761 63.8163C79.4329 61.9091 78.7005 58.072 78.5174 57.9804M78.5174 57.9804C78.2886 57.866 76.5721 47.1097 75.6567 46.6519M78.5174 57.9804C79.1582 62.8322 78.7844 70.3006 78.5174 73.4283C77.4795 69.0901 75.5835 61.6136 74.1591 57.1794M72.6816 53.6321C73.0136 53.9088 73.5421 55.2587 74.1591 57.1794M72.6816 53.6321L74.1591 57.1794M72.6816 53.6321C72.6816 55.0968 71.995 58.8958 71.6517 60.6123C71.6517 53.4719 69.1343 47.0334 67.8755 44.7067M72.6816 53.6321C72.2238 48.9405 71.1024 39.3056 70.2785 38.2986M74.1591 57.1794C75.3412 60.5665 71.2254 69.4233 69.0198 73.4283M69.0198 73.4283C69.5538 68.0883 69.8666 56.5844 66.8457 53.2888C67.8374 53.7465 69.6606 58.4152 69.0198 73.4283ZM54.2585 24.4527C53.9533 23.2322 53.3431 20.5621 53.3431 19.6467C53.3431 18.5024 53.3431 22.8507 54.2585 24.4527ZM54.2585 24.4527C56.5471 29.4113 62.4745 40.4041 67.8755 44.7067M67.8755 44.7067C65.053 38.6419 59.362 26.1005 59.1789 24.4527C58.9501 22.393 64.0994 38.8708 67.8755 44.7067ZM70.7363 45.0499C69.4013 39.0615 66.0676 26.7413 63.4128 25.3682C65.3182 28.0382 69.4505 35.7125 70.7363 45.0499Z" stroke="black" stroke-width="0.334159" stroke-linecap="round"/>
<path d="M49.5654 61.5292C50.0613 61.6436 51.1445 61.8038 51.5107 61.5292" stroke="black" stroke-width="0.334159" stroke-linecap="round"/>
</svg>
