<svg width="99" height="99" viewBox="0 0 99 99" fill="none" xmlns="http://www.w3.org/2000/svg">
<rect x="0.662109" y="0.542725" width="98" height="98" rx="49" fill="#FFDC61"/>
<path d="M26.4517 62.2946L29.8188 65.0631V43.0648L35.281 41.1194L30.193 26.379C28.1977 27.6012 23.788 30.3597 22.112 31.6167C20.0169 33.188 13.582 39.5481 12.2352 41.1194C11.1577 42.3764 9.14248 43.3392 8.26953 43.6634C12.6393 45.1599 16.7246 43.4389 18.2211 42.3914C13.7915 47.4794 15.7269 54.6875 17.2483 57.6555C16.8293 54.7823 18.67 50.5722 19.6427 48.8263C18.3258 51.9389 19.8672 57.7303 21.0643 58.8527C20.765 56.9372 21.3387 54.6127 21.6629 53.6898C21.3038 57.8201 24.7058 61.1473 26.4517 62.2946Z" fill="#030001" stroke="black" stroke-width="0.264494" stroke-linecap="round"/>
<path d="M27.9472 61.621C26.2712 59.4062 25.8023 56.3583 25.7773 55.1113L27.0494 50.3225L37.3003 36.4801L73.5151 35.8066L66.1075 66.2601C66.781 65.5617 68.1577 63.8358 68.2774 62.5188C68.3972 61.2019 70.2727 59.8252 71.1956 59.3014C72.0436 58.8774 73.6947 59.0171 73.5151 62.9678C73.2906 67.9062 68.5767 71.5726 67.0054 72.3956C65.7484 73.0541 64.6859 72.1213 64.3118 71.5726C62.2167 76.9599 53.4623 82.2724 53.2378 82.5717C53.0133 82.871 48.2994 84.8913 46.5036 84.9661C44.7436 85.0394 43.7023 84.4659 38.8008 81.7661L38.4974 81.599C33.3346 78.7557 31.9129 74.1166 31.3892 73.069C31.2099 72.7105 31.079 72.0927 30.986 71.4229C30.6215 71.4728 29.6981 71.2733 28.92 70.0761C27.9472 68.5796 26.3011 65.7363 26.2263 64.165C26.1515 62.5937 26.5256 61.4713 27.0494 61.621C27.5731 61.7706 29.4325 64.3895 29.5878 64.6887C29.1562 63.5926 28.6112 62.4983 27.9472 61.621Z" fill="#FFDCA4"/>
<path d="M30.986 71.4229C30.8616 70.5273 30.8048 69.5388 30.7906 68.9537C30.64 68.035 30.2456 66.3596 29.5878 64.6887M30.986 71.4229C31.079 72.0927 31.2099 72.7105 31.3892 73.069C31.9129 74.1166 33.3346 78.7557 38.4974 81.599C43.6603 84.4423 44.7078 85.0409 46.5036 84.9661C48.2994 84.8913 53.0133 82.871 53.2378 82.5717C53.4623 82.2724 62.2167 76.9599 64.3118 71.5726C64.6859 72.1213 65.7484 73.0541 67.0054 72.3956C68.5767 71.5726 73.2906 67.9062 73.5151 62.9678C73.6947 59.0171 72.0436 58.8774 71.1956 59.3014C70.2727 59.8252 68.3972 61.2019 68.2774 62.5188C68.1577 63.8358 66.781 65.5617 66.1075 66.2601L73.5151 35.8066L37.3003 36.4801L27.0494 50.3225L25.7773 55.1113C25.8023 56.3583 26.2712 59.4062 27.9472 61.621C28.6112 62.4983 29.1562 63.5926 29.5878 64.6887M30.986 71.4229C30.6215 71.4728 29.6981 71.2733 28.92 70.0761C27.9472 68.5796 26.3011 65.7363 26.2263 64.165C26.1515 62.5937 26.5256 61.4713 27.0494 61.621C27.5731 61.7706 29.4325 64.3895 29.5878 64.6887" stroke="black" stroke-width="0.5" stroke-linecap="round"/>
<path d="M45.9814 55.1116C46.0563 55.4358 46.3256 56.1292 46.8045 56.3088" stroke="black" stroke-width="0.218504" stroke-linecap="round"/>
<path d="M48.3017 55.7849C48.4513 56.1341 49.5138 56.623 52.5667 55.7849C56.3827 54.7374 57.954 53.6898 61.0218 54.5877M38.7242 56.159C38.2004 56.2838 36.7189 56.3386 34.983 55.5605C32.8131 54.5877 29.2964 54.9619 28.9971 55.5605" stroke="black" stroke-width="0.5" stroke-linecap="round"/>
<path d="M40.2939 75.4638C42.2394 74.8402 47.2676 73.8176 51.8169 74.7155M45.1575 77.9329C45.382 77.8082 45.9207 77.6336 46.2799 77.9329" stroke="black" stroke-width="0.3" stroke-linecap="round"/>
<path d="M41.6409 60.2744C41.7407 60.9229 41.8205 62.5042 41.3416 63.6415C40.743 65.0632 40.5934 65.0632 40.8178 65.4373C40.9974 65.7366 41.4414 66.6594 41.6409 67.0834" stroke="black" stroke-width="0.264494" stroke-linecap="round"/>
<path d="M43.1367 66.2605C43.3612 66.2854 43.855 66.3952 44.0346 66.6346" stroke="black" stroke-width="0.264494" stroke-linecap="round"/>
<path d="M67.5283 67.9065C67.9827 67.3326 68.9276 65.9334 69.2158 64.7639M70.5961 62.8185C70.2469 62.9182 69.4887 63.4171 69.2493 64.6143C69.2394 64.6637 69.2282 64.7136 69.2158 64.7639M69.2158 64.7639C69.9752 64.9385 71.4341 65.3326 68.8003 67.9065" stroke="black" stroke-width="0.264494" stroke-linecap="round"/>
<path d="M27.873 64.4648C28.207 64.5901 28.7693 64.9762 29.2947 65.7194M30.3422 68.206C30.1041 67.1212 29.711 66.3082 29.2947 65.7194M29.2947 65.7194C29.1949 66.0744 29.175 67.0089 29.8933 67.9068" stroke="black" stroke-width="0.264494" stroke-linecap="round"/>
<path d="M26.8176 53.7833C26.2331 54.7829 25.6885 55.8116 25.3276 56.5334C24.9285 53.4906 25.3126 46.5219 30.0415 42.9902L29.2184 50.6223C28.7411 51.0996 27.7989 52.2178 26.8176 53.7833Z" fill="#020202"/>
<path d="M25.3276 56.5334C26.2255 54.7376 28.2607 51.0413 29.2184 50.6223M25.3276 56.5334C26.7043 53.5404 28.4951 51.3456 29.2184 50.6223M25.3276 56.5334C24.9285 53.4906 25.3126 46.5219 30.0415 42.9902L29.2184 50.6223" stroke="black" stroke-width="0.218504" stroke-linecap="round"/>
<path d="M62.9667 20.5429C65.5406 22.0992 65.5855 24.6333 65.2862 25.7058C68.0397 23.7903 71.2722 24.0097 72.5442 24.3589C70.7484 24.0596 68.5535 25.9801 67.6806 26.9778C70.5239 26.2295 72.9183 26.1547 76.9588 27.3519C80.1912 28.3096 81.7974 27.5015 82.1965 26.9778C81.3584 29.2524 78.2557 30.5194 76.8091 30.8686C80.7 30.2102 83.7179 31.8912 84.7405 32.814C83.3039 32.2154 80.5005 33.1632 79.2783 33.7119C79.4529 33.7119 80.4456 33.8765 83.0195 34.535C85.5935 35.1934 87.6337 34.2606 88.332 33.7119C87.6449 35.8982 84.9241 37.3544 84.0875 37.6887C84.6397 37.6389 85.9532 37.7228 86.3118 37.9021C86.671 38.0816 87.2596 38.2263 87.509 38.2762C85.9526 38.2163 84.8652 38.7002 84.516 38.9496C86.1921 39.7876 89.6041 40.2964 91.1005 40.4461C89.0653 42.7207 85.1645 42.4913 83.4685 42.0922C84.9051 43.1697 87.3094 43.3393 88.332 43.2894C88.0328 44.0676 85.3141 44.312 83.9922 44.3369C84.7904 44.3619 86.5812 45.0403 87.3593 47.5544C88.1375 50.0685 87.5339 51.5949 87.1349 52.0438C86.2968 49.6157 84.1419 48.5879 83.1692 48.3774C85.3241 51.6098 84.516 54.6128 83.8426 55.7102C83.6137 54.5201 83.0488 53.4139 82.6961 52.7858C82.7715 52.9821 82.8343 53.1852 82.8699 53.3158C82.9896 53.8546 82.6205 54.7157 82.4209 55.079C82.7024 56.4777 82.9641 58.3707 82.8699 59.0773C82.7448 60.0154 83.3438 61.2971 83.7678 61.8458C80.875 61.6198 79.7627 60.185 79.4451 58.9911C79.6197 63.313 77.1773 66.8363 75.8364 68.131C76.5547 65.5571 76.1357 63.467 75.8364 62.7437C76.0609 63.866 75.2378 66.1108 74.7889 66.9338C74.4297 67.5923 74.2901 68.6049 74.2651 69.0289C73.7264 68.4902 73.5418 66.859 73.5169 66.1108C73.5607 68.4453 71.7892 70.4256 70.898 71.124C71.2572 70.705 71.347 69.2534 71.347 68.58C73.9658 65.2129 73.891 60.9479 72.6938 59.4514C71.7361 58.2542 69.651 60.2712 68.7281 61.4293C68.2904 63.4639 66.9466 65.2734 66.1093 66.1108C66.7677 62.9382 66.0303 57.905 65.5793 55.785C65.3779 56.8499 65.1281 57.8 64.9121 58.4787C64.9121 57.5808 63.8646 55.8599 60.8716 51.5201C56.6839 45.7551 56.2969 40.5832 56.6913 38.1703C55.0786 44.6438 47.6076 49.9359 43.9614 51.8194C47.074 49.425 49.9972 42.6409 51.0696 39.5482C50.5459 40.7454 45.832 44.7859 44.3355 45.4593C43.1383 45.998 34.6582 50.8716 30.5678 53.241C31.1664 48.3326 37.4517 42.9652 40.5194 40.895C38.1251 42.0922 31.8897 48.0283 29.0714 50.8466C27.6946 46.5368 30.6427 40.3713 32.2888 37.8272C30.4332 37.4082 26.4775 42.5412 24.7316 45.16C23.9534 40.3713 27.9989 34.2357 30.1189 31.7665C27.7245 31.108 24.133 34.5849 22.6365 36.4056C22.2773 34.4302 25.0309 30.9933 26.4525 29.5218C17.294 35.0887 11.6623 33.9863 9.99121 32.7392C14.9595 31.2427 18.995 28.9731 20.3918 28.0253C18.3565 28.6239 16.2515 27.7759 15.4534 27.277C16.9499 27.0276 20.2421 26.2445 21.4393 25.1071C22.6365 23.9698 27.4252 22.2888 29.67 21.5904C26.4974 21.9496 24.9061 20.5928 24.5071 19.8695C27.1259 20.1688 27.4252 19.8695 35.7307 17.6247C42.3751 15.829 49.224 18.1734 51.8179 19.5702C50.92 17.4751 49.199 16.8516 48.4508 16.8017C50.6656 14.3475 55.6589 19.1212 57.8786 21.8149C57.6991 20.4381 56.4071 18.8469 55.7836 18.2233C58.6568 17.2656 62.0189 22.5133 63.3408 25.2568C63.6401 23.7005 63.2161 21.4657 62.9667 20.5429Z" fill="#240804"/>
<path d="M65.5792 55.785C65.3779 56.8499 65.1281 57.8 64.9121 58.4787C64.9121 57.5808 63.8646 55.8599 60.8716 51.5201C56.2624 45.175 56.2574 39.5482 56.8311 37.528C55.5741 44.2921 47.7275 49.8739 43.9614 51.8194C47.074 49.425 49.9972 42.6409 51.0696 39.5482C50.5459 40.7454 45.832 44.7859 44.3355 45.4593C43.1383 45.998 34.6582 50.8716 30.5678 53.241C31.1664 48.3326 37.4517 42.9652 40.5194 40.895C38.1251 42.0922 31.8897 48.0283 29.0714 50.8466C27.6946 46.5368 30.6427 40.3713 32.2888 37.8272C30.4332 37.4082 26.4775 42.5412 24.7316 45.16C23.9534 40.3713 27.9989 34.2357 30.1189 31.7665C27.7245 31.108 24.133 34.5849 22.6365 36.4056C22.2773 34.4302 25.0309 30.9933 26.4525 29.5218C17.294 35.0887 11.6623 33.9863 9.99121 32.7392C14.9595 31.2427 18.995 28.9731 20.3918 28.0253C18.3565 28.6239 16.2515 27.7759 15.4534 27.277C16.9499 27.0276 20.2421 26.2445 21.4393 25.1071C22.6365 23.9698 27.4252 22.2888 29.6699 21.5904C26.4974 21.9496 24.9061 20.5928 24.5071 19.8695C27.1259 20.1688 27.4252 19.8695 35.7307 17.6247C42.3751 15.829 49.224 18.1734 51.8179 19.5702C50.92 17.4751 49.199 16.8516 48.4508 16.8017C50.6656 14.3475 55.6589 19.1212 57.8786 21.8149C57.6991 20.4381 56.4071 18.8469 55.7836 18.2233C58.6568 17.2656 62.0189 22.5133 63.3408 25.2568C63.6401 23.7005 63.2161 21.4657 62.9667 20.5429C65.5406 22.0992 65.5855 24.6333 65.2862 25.7058C68.0397 23.7903 71.2722 24.0097 72.5442 24.3589C70.7484 24.0596 68.5535 25.9801 67.6806 26.9778C70.5239 26.2295 72.9183 26.1547 76.9588 27.3519C80.1912 28.3096 81.7974 27.5015 82.1965 26.9778C81.3584 29.2524 78.2557 30.5194 76.8091 30.8686C80.7 30.2102 83.7179 31.8912 84.7405 32.814C83.3039 32.2154 80.5005 33.1632 79.2783 33.7119C79.4529 33.7119 80.4456 33.8765 83.0195 34.535C85.5935 35.1934 87.6337 34.2606 88.332 33.7119C87.509 36.3308 83.7678 37.9021 83.8426 37.7524C83.9174 37.6028 85.8629 37.6776 86.3118 37.9021C86.671 38.0816 87.2596 38.2263 87.509 38.2762C85.9526 38.2163 84.8652 38.7002 84.516 38.9496C86.1921 39.7876 89.6041 40.2964 91.1005 40.4461C89.0653 42.7207 85.1645 42.4913 83.4685 42.0922C84.9051 43.1697 87.3094 43.3393 88.332 43.2894C88.0327 44.0676 85.3141 44.312 83.9922 44.3369C84.7904 44.3619 86.5812 45.0403 87.3593 47.5544C88.1375 50.0685 87.5339 51.5949 87.1349 52.0438C86.2968 49.6157 84.1419 48.5879 83.1692 48.3774C85.3241 51.6098 84.516 54.6128 83.8426 55.7102C83.4685 53.7648 82.1965 52.0438 82.4209 52.2683C82.6005 52.4479 82.7951 53.0415 82.8699 53.3158C82.9896 53.8546 82.6205 54.7157 82.4209 55.079M65.5792 55.785C66.0291 53.4062 66.2373 50.4548 65.2862 48.6767C65.6811 49.4 66.2925 51.8343 65.5792 55.785ZM65.5792 55.785C66.0303 57.9051 66.7677 62.9382 66.1093 66.1108C66.9466 65.2734 68.2904 63.4639 68.7281 61.4293M68.7281 61.4293C68.9032 60.6155 68.9334 59.7657 68.7281 58.9276C68.8549 59.3484 69.0324 60.4377 68.7281 61.4293ZM68.7281 61.4293C69.651 60.2712 71.7361 58.2542 72.6938 59.4514C73.891 60.9479 73.9658 65.2129 71.347 68.58C71.347 69.2534 71.2572 70.705 70.898 71.124C71.7892 70.4256 73.5607 68.4453 73.5169 66.1108C73.5418 66.859 73.7264 68.4902 74.2651 69.0289C74.2901 68.6049 74.4297 67.5923 74.7889 66.9338C75.2378 66.1108 76.0609 63.866 75.8364 62.7437C76.1357 63.467 76.5547 65.5571 75.8364 68.131C77.283 66.7343 80.0116 62.7437 79.3532 57.9549C79.2284 59.1272 79.9368 61.5465 83.7678 61.8458C83.3438 61.2971 82.7448 60.0155 82.8699 59.0773C82.9641 58.3707 82.7024 56.4777 82.4209 55.079M81.972 53.4655C82.0829 53.6041 82.2553 54.256 82.4209 55.079" stroke="black" stroke-width="0.264494" stroke-linecap="round"/>
<path d="M39.3082 61.3111C38.714 62.8551 36.6874 63.5122 34.7817 62.7789C32.876 62.0455 32.0654 60.0224 32.6596 58.4784C33.2538 56.9344 35.0276 56.4541 36.9333 57.1875C38.839 57.9208 39.9024 59.767 39.3082 61.3111Z" fill="#FFFCF3"/>
<ellipse cx="36.2898" cy="60.5219" rx="2.32674" ry="1.64261" transform="rotate(80.4239 36.2898 60.5219)" fill="#050208"/>
<path d="M37.3773 60.6684C37.2717 60.6862 37.1575 60.648 37.0566 60.5535C36.9556 60.4589 36.8744 60.3125 36.8445 60.1352C36.8146 59.9579 36.8432 59.7929 36.9076 59.6704C36.972 59.5481 37.0673 59.4746 37.1729 59.4567C37.2785 59.4389 37.3927 59.4771 37.4936 59.5716C37.5946 59.6662 37.6758 59.8126 37.7057 59.9899C37.7356 60.1672 37.707 60.3322 37.6426 60.4547C37.5782 60.577 37.4829 60.6506 37.3773 60.6684Z" fill="#FDFDF8" stroke="black" stroke-width="0.264494"/>
<path d="M37.505 61.7893C37.3519 61.8151 37.158 61.6808 37.1144 61.4226C37.0708 61.1643 37.21 60.9738 37.363 60.948C37.5161 60.9222 37.71 61.0565 37.7536 61.3147C37.7971 61.573 37.658 61.7634 37.505 61.7893Z" fill="#FDFDF8" stroke="black" stroke-width="0.264494"/>
<path d="M32.5109 59.7505C32.4539 59.285 32.5059 58.544 32.8842 57.9718M39.3198 59.7505C38.4968 57.3789 36.9632 56.8674 34.7933 57.0156C34.3121 57.0485 33.5344 57.3408 33.2591 57.5597M33.2591 57.5597C33.0595 57.623 32.5857 57.6605 32.2864 57.3048M33.2591 57.5597C33.1084 57.6796 32.9848 57.8197 32.8842 57.9718M32.8842 57.9718C32.7348 58.0597 32.3762 58.168 32.1367 57.8977" stroke="black" stroke-width="0.5" stroke-linecap="round"/>
<path d="M37.0012 63.1176C36.7269 63.0677 35.9986 62.9829 35.2803 63.0428" stroke="black" stroke-width="0.264494" stroke-linecap="round"/>
<path d="M53.9875 62.5191C52.2516 62.8184 51.7179 60.5986 51.668 59.4513C51.668 57.8052 51.9673 58.0297 52.491 57.5059C52.91 57.0869 54.1621 56.7327 54.7358 56.608C55.3094 56.4833 56.741 56.3836 57.8784 56.9821C59.3 57.7304 59.5245 58.7031 59.5993 59.2269C59.6741 59.7506 59.8238 59.8255 59.3 61.2471C58.881 62.3844 57.4294 62.5191 56.756 62.4443C56.5565 62.3445 55.7234 62.2198 53.9875 62.5191Z" fill="#FFFCF3"/>
<path d="M56.8482 60.125C56.8482 61.361 56.0448 62.3123 55.1099 62.3123C54.1749 62.3123 53.3715 61.361 53.3715 60.125C53.3715 58.889 54.1749 57.9377 55.1099 57.9377C56.0448 57.9377 56.8482 58.889 56.8482 60.125Z" fill="#050208" stroke="black" stroke-width="0.264494"/>
<path d="M56.699 59.6009C56.699 59.823 56.6313 60.019 56.5282 60.1564C56.4251 60.2939 56.2928 60.3665 56.1578 60.3665C56.0228 60.3665 55.8905 60.2939 55.7874 60.1564C55.6843 60.019 55.6166 59.823 55.6166 59.6009C55.6166 59.3788 55.6843 59.1828 55.7874 59.0453C55.8905 58.9079 56.0228 58.8353 56.1578 58.8353C56.2928 58.8353 56.4251 58.9079 56.5282 59.0453C56.6313 59.1828 56.699 59.3788 56.699 59.6009Z" fill="#FDFDF8" stroke="black" stroke-width="0.264494"/>
<path d="M56.6975 60.948C56.6975 61.2227 56.5062 61.4143 56.306 61.4143C56.1058 61.4143 55.9145 61.2227 55.9145 60.948C55.9145 60.6733 56.1058 60.4816 56.306 60.4816C56.5062 60.4816 56.6975 60.6733 56.6975 60.948Z" fill="#FDFDF8" stroke="black" stroke-width="0.264494"/>
<path d="M53.9863 62.5192C54.535 62.4195 55.8719 62.2648 56.8296 62.4444" stroke="black" stroke-width="0.264494" stroke-linecap="round"/>
<path d="M59.5993 59.3765C59.5766 59.013 59.4256 58.4684 59.0529 57.9548M51.668 59.3765C51.668 58.4786 51.799 58.1794 51.9673 57.9548C52.1961 57.6496 53.763 56.2339 56.6064 56.608C57.5654 56.7342 58.2389 57.1042 58.7009 57.5499M58.7009 57.5499C58.9004 57.4853 59.3145 57.2066 59.3743 56.608M58.7009 57.5499C58.8356 57.6798 58.9524 57.8162 59.0529 57.9548M59.0529 57.9548C59.2598 57.9592 59.6886 57.8844 59.7484 57.5499" stroke="black" stroke-width="0.5" stroke-linecap="round"/>
</svg>
