<svg width="99" height="99" viewBox="0 0 99 99" fill="none" xmlns="http://www.w3.org/2000/svg">
<rect x="0.223633" y="0.627686" width="98" height="98" rx="49" fill="#FB8082"/>
<path d="M58.6786 79.4765C49.892 79.325 42.2038 72.4699 39.458 69.0614V50.0302C53.0923 2.31012 70.1352 21.4991 76.9523 37.0586C78.7513 38.3842 78.9407 48.1365 78.9407 50.0302C78.9407 51.3557 76.9648 52.2392 77.7098 59.7825C78.4673 67.4518 73.5438 73.234 71.3661 74.2689C61.8031 78.8137 62.2765 78.9084 58.6786 79.4765Z" fill="#E5BB93" stroke="black" stroke-width="0.276495" stroke-linecap="round"/>
<path d="M54.8901 43.9708C53.2805 41.9193 48.7168 39.5018 43.3389 46.2432" stroke="black" stroke-width="0.552991" stroke-linecap="round"/>
<path d="M68.2398 44.9964C70.4175 42.7402 73.542 43.1972 75.7197 44.9963" stroke="black" stroke-width="0.552991" stroke-linecap="round"/>
<path d="M47.6016 46.6792C48.3812 46.143 50.3058 45.4567 51.7676 47.0009" stroke="black" stroke-width="0.138248" stroke-linecap="round"/>
<path d="M69.9473 48.7052C70.5498 47.9908 72.1887 46.9905 73.9239 48.7052" stroke="black" stroke-width="0.138248" stroke-linecap="round"/>
<path d="M45.8978 50.6949C46.6552 52.3975 49.8745 54.7646 52.9043 51.6401C52.9043 48.4209 47.9808 45.0123 45.8978 50.6949Z" fill="#F7F0E6"/>
<path d="M52.9043 51.7366C51.705 52.9043 48.7004 54.4824 46.2765 51.4525" stroke="black" stroke-width="0.2" stroke-linecap="round"/>
<path d="M52.999 50.8847C52.9043 49.4001 51.2569 47.1163 49.5904 47.192C48.3986 47.2462 47.675 47.7395 46.9879 48.4229C46.7192 48.2967 46.144 47.9874 45.9925 47.7602C46.0627 48.0833 46.2955 48.744 46.6658 48.8017C46.6221 48.8621 46.5795 48.9252 46.538 48.991C46.314 48.9333 45.8694 48.7753 45.737 48.5749C45.7269 48.5549 45.7174 48.5357 45.7085 48.5176C45.7149 48.5371 45.7246 48.5562 45.737 48.5749C45.8965 48.8916 46.1952 49.4233 46.3114 49.4003C46.1139 49.806 45.9455 50.2951 45.8031 50.8847C46.6658 48.2576 50.1585 45.3928 52.999 50.8847Z" fill="black"/>
<circle cx="49.3067" cy="50.4091" r="2.08302" fill="#0A0A0C"/>
<circle cx="48.3591" cy="49.6521" r="0.568096" fill="#F7F0E6"/>
<circle cx="48.3591" cy="49.6521" r="0.568096" fill="#F7F0E6"/>
<circle cx="48.5487" cy="50.9776" r="0.378731" fill="#F7F0E6"/>
<circle cx="48.5487" cy="50.9776" r="0.378731" fill="#F7F0E6"/>
<path d="M75.5 52C75.5 54 71.4615 56.3722 68.5264 52.9652C68.7157 50.6928 73 46 75.5 52Z" fill="#F7F0E6"/>
<path d="M68.7158 53.251C69.9151 54.4187 72.9197 55.9968 75.3436 52.9669" stroke="black" stroke-width="0.2" stroke-linecap="round"/>
<path d="M68.6221 52.3991C68.7168 50.9145 70.3642 48.6307 72.0306 48.7064C73.2225 48.7606 73.9461 49.2539 74.6332 49.9373C74.9019 49.8111 75.4771 49.5018 75.6286 49.2746C75.5584 49.5977 75.3256 50.2584 74.9553 50.3161C74.999 50.3765 75.0416 50.4396 75.0831 50.5054C75.3071 50.4477 75.7517 50.2897 75.8841 50.0893C75.8942 50.0693 75.9037 50.0501 75.9126 50.032C75.9062 50.0515 75.8965 50.0706 75.8841 50.0893C75.7246 50.406 75.4259 50.9377 75.3096 50.9147C75.5071 51.3204 75.4863 51.6183 75.6286 52.2078C74.4924 49.5567 71.4625 46.9072 68.6221 52.3991Z" fill="black"/>
<circle cx="71.4629" cy="51.7341" r="2.08302" fill="#0A0A0C"/>
<circle cx="70.7068" cy="51.1666" r="0.568096" fill="#F7F0E6"/>
<circle cx="70.7068" cy="51.1666" r="0.568096" fill="#F7F0E6"/>
<circle cx="70.8963" cy="52.4921" r="0.378731" fill="#F7F0E6"/>
<circle cx="70.8963" cy="52.4921" r="0.378731" fill="#F7F0E6"/>
<ellipse cx="47.0411" cy="56.0903" rx="3.39904" ry="1.85402" transform="rotate(7.32723 47.0411 56.0903)" fill="#E38B7D"/>
<ellipse cx="72.8017" cy="57.6748" rx="2.98448" ry="1.6279" transform="rotate(5.51093 72.8017 57.6748)" fill="#E38B7D"/>
<path d="M45.8975 55.5974L46.4656 55.1429M46.7902 55.7489L47.3583 55.2944M47.7641 55.9004L48.1698 55.4459" stroke="black" stroke-width="0.138248" stroke-linecap="round"/>
<path d="M72.0076 57.3373L72.4287 56.9336M72.7601 57.3459L73.1812 56.9422M73.5796 57.345L73.8668 56.9602" stroke="black" stroke-width="0.138248" stroke-linecap="round"/>
<path d="M61.5195 57.4159C61.772 57.2581 62.4285 57.0372 63.0345 57.4159M64.8334 57.7946C65.0543 57.6053 65.5151 57.094 65.5909 56.5638C65.6666 56.0335 65.4331 55.3644 65.4015 55.0488" stroke="black" stroke-width="0.276495" stroke-linecap="round"/>
<path d="M53.5059 67.9089C53.5435 68.0949 53.7554 68.5008 54.3021 68.6362C54.9855 68.8055 60.9508 69.5892 63.105 69.5892C63.5073 69.5892 66.1709 69.0374 66.7478 68.5107" stroke="black" stroke-width="0.276495" stroke-linecap="round"/>
<path d="M59.2314 72.5419C59.7181 72.5983 60.8602 72.6865 61.5347 72.5878" stroke="black" stroke-width="0.276495" stroke-linecap="round"/>
<path d="M63.034 28.3482C62.3081 33.1455 60.364 43.2892 58.3946 45.4858V30.9047C57.574 34.7867 55.8003 42.6453 55.2701 43.024V29.2951C53.187 34.2501 48.8885 44.2928 48.3582 44.823L49.5891 36.2069L43.9082 47.7582V40.3729L39.9315 49.6518V69.6299L41.0677 70.8607L40.8783 74.2693L39.9315 72.8491L39.5528 77.7726L38.9847 76.5417V80.045L36.7123 77.2992C36.3335 78.6247 35.5003 81.3516 35.1974 81.6546C35.1658 80.5184 35.0459 78.1513 34.8186 77.7726L32.3569 82.6961V74.2693C31.4416 76.6364 29.4785 81.4273 28.9483 81.6546V77.0151C28.5696 77.8357 27.8879 79.7988 28.1908 81.0865C27.1505 78.4115 25.1473 73.1669 24.9807 72.3751C24.9677 73.2927 24.4766 80.1604 24.932 80.7669C24.9454 80.779 24.9586 80.7908 24.9716 80.8024C24.9576 80.7954 24.9445 80.7835 24.932 80.7669C24.0345 79.9588 22.2603 78.1346 22.0364 77.0151L20.8055 78.6247L20.3321 71.7129L18.6278 75.1215L17.4916 72.8491L17.1129 74.2693C16.5132 73.4487 15.2381 71.372 14.9352 69.6299L13.3256 71.7129V67.4522L12 69.1565C12.2525 68.2727 12.7575 66.3349 12.7575 65.6532C12.7575 64.8011 12.2999 56.0391 12.7575 52.871C13.3256 48.9379 15.5348 46.8114 16.6394 44.3496C17.3022 42.3928 18.6278 38.0248 18.6278 36.2069C18.6278 33.9345 21.2789 26.1705 24.5928 22.6673C27.9067 19.164 33.8717 15.1873 38.2271 19.3534C44.2868 15.3136 59.3981 9.65789 71.366 19.3534C76.1948 21.1839 85.701 29.1435 85.095 46.3379C84.5269 43.9393 83.315 39.0474 83.012 38.6686C83.1067 41.0673 83.1067 46.2433 82.3492 47.7582C82.3176 46.4011 82.103 43.5543 81.497 43.024C81.2761 44.7283 80.5123 48.8565 79.2247 51.7348C78.8459 53.2497 78.1832 65.5585 78.1832 67.6415C78.1832 69.7245 77.2363 80.5183 76.9523 80.8971C76.7945 78.8141 76.441 74.5723 76.2895 74.2693C76.1001 73.8906 75.4374 82.128 74.2065 84.6844L74.5852 71.1448C75.9423 69.977 78.4672 65.8615 77.7097 58.7413C77.7097 54.1019 78.0885 52.1136 78.9406 50.2199C78.9406 48.1369 78.4672 39.8995 77.8991 38.6686C77.4446 37.6839 76.826 37.1853 76.5736 37.059C76.5736 39.4892 76.3274 44.6715 75.3427 45.9592C75.2796 43.0871 74.8882 37.0022 73.8278 35.6388C73.6384 38.3846 73.1271 44.1223 72.5969 45.107C71.7763 40.0573 69.7375 29.8821 68.1468 29.5791C68.2099 33.3033 67.7681 41.3387 65.4957 43.6868C65.117 38.8896 64.0946 29.1057 63.034 28.3482Z" fill="#301100"/>
<path d="M38.2271 19.3534C33.8717 15.1873 27.9067 19.164 24.5928 22.6673C21.2789 26.1705 18.6278 33.9345 18.6278 36.2069C18.6278 38.0248 17.3022 42.3928 16.6394 44.3496C15.5348 46.8114 13.3256 48.9379 12.7575 52.871C12.2999 56.0391 12.7575 64.8011 12.7575 65.6532C12.7575 66.3349 12.2525 68.2727 12 69.1565L13.3256 67.4522V71.7129L14.9352 69.6299C15.2381 71.372 16.5132 73.4487 17.1129 74.2693L17.4916 72.8491L18.6278 75.1215L20.3321 71.7129L20.8055 78.6247L22.0364 77.0151C22.2636 78.1513 24.0879 80.0134 24.9716 80.8024C24.4035 80.5184 25.0663 71.9969 24.9716 72.281C24.8958 72.5082 27.0862 78.246 28.1908 81.0865C27.8879 79.7988 28.5696 77.8357 28.9483 77.0151V81.6546C29.4785 81.4273 31.4416 76.6364 32.3569 74.2693V82.6961L34.8186 77.7726C35.0459 78.1513 35.1658 80.5184 35.1974 81.6546C35.5003 81.3516 36.3335 78.6247 36.7123 77.2992L38.9847 80.045V76.5417L39.5528 77.7726L39.9315 72.8491L40.8783 74.2693L41.0677 70.8607L39.9315 69.6299V49.6518L43.9082 40.3729V47.7582L49.5891 36.2069L48.3582 44.823C48.8885 44.2928 53.187 34.2501 55.2701 29.2951V43.024C55.8003 42.6453 57.574 34.7867 58.3946 30.9047V45.4858C60.364 43.2892 62.3081 33.1455 63.034 28.3482C64.0946 29.1057 65.117 38.8896 65.4957 43.6868C67.7681 41.3387 68.2099 33.3033 68.1468 29.5791C69.7375 29.8821 71.7763 40.0573 72.5969 45.107C73.1271 44.1223 73.6384 38.3846 73.8278 35.6388C74.8882 37.0022 75.2796 43.0871 75.3427 45.9592C76.3274 44.6715 76.5736 39.4892 76.5736 37.059C76.826 37.1853 77.4446 37.6839 77.8991 38.6686C78.4672 39.8995 78.9406 48.1369 78.9406 50.2199C78.0885 52.1136 77.7097 54.1019 77.7097 58.7413C78.4672 65.8615 75.9423 69.977 74.5852 71.1448L74.2065 84.6844C75.4374 82.128 76.1001 73.8906 76.2895 74.2693C76.441 74.5723 76.7945 78.8141 76.9523 80.8971C77.2363 80.5183 78.1832 69.7245 78.1832 67.6415C78.1832 65.5585 78.8459 53.2497 79.2247 51.7348C80.5123 48.8565 81.2761 44.7283 81.497 43.024C82.103 43.5543 82.3176 46.4011 82.3492 47.7582C83.1067 46.2433 83.1067 41.0673 83.012 38.6686C83.315 39.0474 84.5269 43.9393 85.095 46.3379C85.701 29.1435 76.1948 21.1839 71.366 19.3534C59.3981 9.65789 44.2868 15.3136 38.2271 19.3534ZM38.2271 19.3534C32.3567 22.3832 20.3321 37.059 27.9067 53.5338C24.6243 47.0007 22.0931 31.0183 38.2271 19.3534ZM32.8302 49.6518C32.8617 56.6899 33.5876 71.6372 36.2388 75.1215L36.7123 69.6299L37.943 72.8491L37.7537 67.1681" stroke="black" stroke-width="0.276495" stroke-linecap="round"/>
</svg>
