<svg width="99" height="99" viewBox="0 0 99 99" fill="none" xmlns="http://www.w3.org/2000/svg">
<rect x="0.597656" y="0.0408936" width="98" height="98" rx="49" fill="#A46F51"/>
<path d="M94.4895 42.9859C93.5475 61.1786 84.0132 65.5332 79.3638 65.4364C72.3353 63.8107 57.7168 29.1479 51.2861 12.0197C55.1989 11.7875 60.8869 13.6648 63.2418 14.6325C73.6577 19.2774 94.4895 31.451 94.4895 42.9859Z" fill="#DECDA2"/>
<path d="M5.99998 42.9859C6.94194 61.1786 16.4763 65.5332 21.1257 65.4364H75.3789L51.5582 12.0197H49.2033C45.2906 11.7875 39.6026 13.6648 37.2477 14.6325C26.8318 19.2774 5.99998 31.451 5.99998 42.9859Z" fill="#DECDA2"/>
<path d="M6.73828 48.5908C8.47728 57.6484 17.26 62.372 21.6679 63.3074H80.5404C90.9744 61.9914 92.9835 53.3402 93.7383 49.1791C92.3616 52.3531 87.9674 55.4691 84.8879 56.6303C86.337 54.8498 87.6051 50.9209 88.0579 49.1791C82.2613 53.2821 78.7591 52.1144 77.7326 51.0177L69.4905 40.5666C70.4324 39.0183 72.6001 34.4379 73.5662 32.3412C73.2764 32.3412 69.3999 36.6636 67.4979 38.8248C61.7012 34.2572 54.878 34.3411 52.191 34.954L50.923 23.2449L49.2927 34.954C40.7788 33.0186 34.9821 39.0183 34.3481 38.8248C33.8409 38.6699 30.0308 34.4379 28.1892 32.3412C27.8993 33.8121 30.7856 38.4377 32.265 40.5666C30.7252 42.5988 27.0842 47.534 24.838 51.0177C21.1426 53.3402 15.8712 50.7597 13.6975 49.1791C13.4801 49.9532 16.0222 54.4691 17.3204 56.6303C12.9729 55.8562 8.61012 50.752 6.73828 48.5908Z" fill="#A19262"/>
<path d="M14.6943 35.6316C15.1472 37.2122 16.9043 40.5281 20.3099 41.1474L14.6943 35.6316Z" fill="#F9F3D7"/>
<path d="M16.5967 31.1803C17.0934 33.2323 19.0205 37.5372 22.7556 38.3412L16.5967 31.1803Z" fill="#F9F3D7"/>
<path d="M19.1318 27.6964C19.76 30.5803 22.1973 36.6304 26.9211 37.7604L19.1318 27.6964Z" fill="#F9F3D7"/>
<path d="M33.377 21.4517C33.1431 23.0856 33.3797 26.8878 36.1965 29.0244L33.377 21.4517Z" fill="#F9F3D7"/>
<path d="M36.8975 18.3231C36.5117 20.4021 36.4998 25.1741 39.5385 27.63L36.8975 18.3231Z" fill="#F9F3D7"/>
<path d="M40.5986 16.3599C39.9935 19.2493 39.7325 25.8302 43.5297 29.038L40.5986 16.3599Z" fill="#F9F3D7"/>
<path d="M67.4258 22.0721C67.6596 23.7061 67.4231 27.5082 64.6063 29.6449L67.4258 22.0721Z" fill="#F9F3D7"/>
<path d="M63.9053 18.9431C64.2911 21.0221 64.3029 25.7941 61.2642 28.25L63.9053 18.9431Z" fill="#F9F3D7"/>
<path d="M60.2041 16.9803C60.8092 19.8698 61.0702 26.4507 57.2731 29.6585L60.2041 16.9803Z" fill="#F9F3D7"/>
<path d="M85.3779 37.9404C84.8604 39.4982 82.9682 42.7282 79.5405 43.1867L85.3779 37.9404Z" fill="#F9F3D7"/>
<path d="M83.6602 33.4042C83.0794 35.4308 80.9766 39.6409 77.212 40.2684L83.6602 33.4042Z" fill="#F9F3D7"/>
<path d="M81.2715 29.8044C80.525 32.6559 77.8407 38.5856 73.0749 39.4922L81.2715 29.8044Z" fill="#F9F3D7"/>
<path d="M25.1102 65.9205C19.9657 67.2365 18.9815 62.469 19.1324 59.9208C21.1614 60.6949 24.5668 60.2433 26.0159 59.9208L25.1102 65.9205Z" fill="#FBC78A" stroke="#935B28" stroke-width="0.264494" stroke-linecap="round"/>
<path d="M75.4552 65.9205C80.5997 67.2365 81.584 62.469 81.433 59.9208C79.4041 60.6949 75.9987 60.2433 74.5496 59.9208L75.4552 65.9205Z" fill="#FBC78A" stroke="#935B28" stroke-width="0.264494" stroke-linecap="round"/>
<path d="M80.9534 69.5009C80.9534 72.2153 78.8958 74.4006 76.3758 74.4006C73.8558 74.4006 71.7983 72.2153 71.7983 69.5009C71.7983 66.7864 73.8558 64.6011 76.3758 64.6011C78.8958 64.6011 80.9534 66.7864 80.9534 69.5009Z" fill="#F8B650" stroke="#935B28" stroke-width="0.264494"/>
<path d="M28.4192 69.5009C28.4192 72.2153 26.3616 74.4006 23.8416 74.4006C21.3216 74.4006 19.2641 72.2153 19.2641 69.5009C19.2641 66.7864 21.3216 64.6011 23.8416 64.6011C26.3616 64.6011 28.4192 66.7864 28.4192 69.5009Z" fill="#F8B650" stroke="#935B28" stroke-width="0.264494"/>
<path d="M25.8361 67.0819C24.6768 65.8432 24.8097 62.5014 25.021 60.9854C25.0881 60.4048 25.5645 60.308 25.8361 59.9209C26.1078 59.5338 25.8361 58.5661 25.8361 54.3083C28.191 50.3407 43.5885 40.2767 45.5811 38.8252C47.1752 37.6639 49.506 39.309 50.4721 40.2767C51.6495 38.8252 52.5552 38.4381 54.8196 38.4381C61.522 40.567 74.6551 54.2115 74.6551 54.3083V58.2758C74.6551 60.4048 75.3796 60.1145 75.6514 60.5015C75.9231 60.8886 76.0137 66.6948 74.6551 67.0819C73.2965 67.4689 71.485 70.4688 71.2133 73.1783C70.9416 75.8879 69.7641 77.2427 69.0395 77.7265C68.3149 78.2103 66.5035 77.8233 65.4166 78.9845C64.3297 80.1457 62.79 81.9844 60.7068 81.7908C58.6236 81.5973 57.7179 83.5327 56.0876 84.2101C51.4684 85.9519 44.132 84.4036 43.3168 83.5327C42.5016 82.6617 41.3242 81.694 40.1467 81.694C38.9693 81.694 37.339 81.5005 36.2521 80.049C35.1652 78.5974 36.1615 79.178 33.8972 78.4039C30.9083 78.0168 30.0931 76.3717 29.3686 72.5977C28.644 68.8237 27.2853 68.6302 25.8361 67.0819Z" fill="#FBC78A" stroke="#935B28" stroke-width="0.264494" stroke-linecap="round"/>
<path d="M59.5264 65.9203C60.0498 67.0002 61.4365 68.6705 63.7833 69.7068M69.8517 70.5652C68.838 70.6672 67.902 70.6586 67.0417 70.5652M63.7833 69.7068C64.0852 71.2187 64.1999 75.094 62.2436 78.5003M63.7833 69.7068C64.7158 70.1186 65.7999 70.4304 67.0417 70.5652M67.0417 70.5652C67.2538 71.9523 67.4606 75.1521 66.5911 76.8552" stroke="#935B28" stroke-width="0.264494" stroke-linecap="round"/>
<path d="M42.6797 66.0172C42.1562 67.0971 40.7695 68.7674 38.4228 69.8038M32.3544 70.6621C33.368 70.7641 34.304 70.7556 35.1643 70.6621M38.4228 69.8038C38.1208 71.3156 38.0061 75.191 39.9625 78.5972M38.4228 69.8038C37.4902 70.2156 36.4061 70.5273 35.1643 70.6621M35.1643 70.6621C34.9523 72.0492 34.7455 75.249 35.615 76.9522" stroke="#935B28" stroke-width="0.264494" stroke-linecap="round"/>
<path d="M40.2373 72.1136C40.6823 72.7411 41.8239 73.7116 43.7105 74.3392M48.57 74.9343C47.9636 74.9719 47.5712 74.9602 47.0303 74.9343M46.5774 72.5006C46.5774 73.0909 46.668 74.4039 47.0303 74.9343M47.0303 74.9343C46.7888 75.2843 46.36 76.1972 46.5774 77.0488M47.0303 74.9343C45.7407 74.8725 44.636 74.6471 43.7105 74.3392M43.7105 74.3392C43.5084 73.8554 43.1648 72.6748 43.4074 71.8232M43.7105 74.3392C43.5084 74.8231 43.1648 75.9456 43.4074 76.5649" stroke="#935B28" stroke-width="0.264494" stroke-linecap="round"/>
<path d="M61.8838 72.1136C61.4388 72.7411 60.2972 73.7116 58.4106 74.3392M53.5511 74.9343C54.1575 74.9719 54.5499 74.9602 55.0908 74.9343M55.5437 72.5006C55.5437 73.0909 55.4531 74.4039 55.0908 74.9343M55.0908 74.9343C55.3323 75.2843 55.7611 76.1972 55.5437 77.0488M55.0908 74.9343C56.3804 74.8725 57.4851 74.6471 58.4106 74.3392M58.4106 74.3392C58.6127 73.8554 58.9563 72.6748 58.7137 71.8232M58.4106 74.3392C58.6127 74.8231 58.9563 75.9456 58.7137 76.5649" stroke="#935B28" stroke-width="0.264494" stroke-linecap="round"/>
<path d="M61.8814 50.7275C59.4903 50.8823 56.9603 55.7595 55.9941 58.1787C57.081 59.1464 69.1272 59.9206 70.8481 57.8884C72.2248 56.2627 71.6029 54.9531 71.1198 54.5015C65.9572 49.9533 64.8703 50.5339 61.8814 50.7275Z" fill="#B9A2B6"/>
<path d="M55.9941 58.1787C56.9603 55.7595 59.4903 50.8823 61.8814 50.7275C64.8703 50.5339 65.9572 49.9533 71.1198 54.5015" stroke="#050505" stroke-width="0.264494" stroke-linecap="round"/>
<path d="M58.2588 56.9203C59.7985 55.243 63.8019 52.3528 67.4972 54.2108" stroke="#050505" stroke-width="0.528989" stroke-linecap="round"/>
<path d="M61.1588 56.3396C59.7096 57.9654 57.3547 58.9524 56.3584 59.2427C59.0394 59.6298 67.4385 59.0814 71.3029 58.7589C71.0964 58.2983 70.8524 57.8881 70.5784 57.5246C70.2296 57.0619 69.832 56.6749 69.4009 56.3556C69.0301 56.081 68.6344 55.8565 68.2235 55.6772C67.8416 55.5106 67.4465 55.3831 67.046 55.2906C66.6264 55.1937 66.2007 55.1353 65.778 55.1109C65.3179 55.0842 64.8612 55.0978 64.4194 55.1457C63.0968 55.289 61.9075 55.7397 61.1588 56.3396Z" fill="#FEF9FD"/>
<path d="M71.3029 58.7589C67.4385 59.0814 59.0394 59.6298 56.3584 59.2427C57.3547 58.9524 59.7096 57.9654 61.1588 56.3396C61.9075 55.7397 63.0968 55.289 64.4194 55.1457M71.3029 58.7589C71.0964 58.2983 70.8524 57.8881 70.5784 57.5246M71.3029 58.7589C71.6954 58.6944 72.5891 58.3137 73.0238 57.3073M64.4194 55.1457C64.6609 54.8018 65.0715 53.9204 64.7817 53.1462M64.4194 55.1457C64.8612 55.0978 65.3179 55.0842 65.778 55.1109M65.778 55.1109C66.0799 54.6818 66.6294 53.6881 66.412 53.1462M65.778 55.1109C66.2007 55.1353 66.6264 55.1937 67.046 55.2906M67.046 55.2906C67.3177 54.9952 67.8793 54.2494 67.9517 53.6301M67.046 55.2906C67.4465 55.3831 67.8416 55.5106 68.2235 55.6772M68.2235 55.6772C68.5254 55.511 69.1835 55.0623 69.4009 54.5978M68.2235 55.6772C68.6344 55.8565 69.0301 56.081 69.4009 56.3556M69.4009 56.3556C69.8236 56.2858 70.7052 55.9913 70.8501 55.3719M69.4009 56.3556C69.832 56.6749 70.2296 57.0619 70.5784 57.5246M70.5784 57.5246C71.0312 57.4522 71.9732 57.0557 72.1181 56.0493" stroke="#050505" stroke-width="0.528989" stroke-linecap="round"/>
<path d="M65.5546 57.4045C65.5546 58.4507 64.6843 59.3044 63.6037 59.3044C62.5231 59.3044 61.6528 58.4507 61.6528 57.4045C61.6528 56.3583 62.5231 55.5046 63.6037 55.5046C64.6843 55.5046 65.5546 56.3583 65.5546 57.4045Z" fill="#050505" stroke="#211102" stroke-width="0.264494"/>
<ellipse cx="63.6938" cy="57.1145" rx="0.90573" ry="0.967694" fill="#050505"/>
<path d="M39.1469 50.6667C41.5381 50.8215 44.0681 55.6987 45.0342 58.1179C43.9473 59.0856 31.9011 59.8598 30.1802 57.8276C28.8035 56.2019 29.4254 54.8923 29.9085 54.4407C35.0711 49.8925 36.158 50.4731 39.1469 50.6667Z" fill="#B9A2B6"/>
<path d="M45.0342 58.1179C44.0681 55.6987 41.5381 50.8215 39.1469 50.6667C36.158 50.4731 35.0711 49.8925 29.9085 54.4407" stroke="#050505" stroke-width="0.264494" stroke-linecap="round"/>
<path d="M42.7715 56.8598C41.2317 55.1824 37.2284 52.2922 33.533 54.1502" stroke="#050505" stroke-width="0.528989" stroke-linecap="round"/>
<path d="M39.8715 56.2791C41.3207 57.9048 43.6756 58.8919 44.6719 59.1822C41.9909 59.5692 33.5918 59.0209 29.7273 58.6983C29.9339 58.2377 30.1779 57.8276 30.4519 57.4641C30.8007 57.0014 31.1982 56.6143 31.6294 56.295C32.0002 56.0204 32.3959 55.7959 32.8068 55.6167C33.1887 55.4501 33.5838 55.3226 33.9843 55.2301C34.4039 55.1332 34.8295 55.0748 35.2523 55.0503C35.7124 55.0237 36.1691 55.0373 36.6109 55.0851C37.9335 55.2284 39.1228 55.6791 39.8715 56.2791Z" fill="#FEF9FD"/>
<path d="M29.7273 58.6983C33.5918 59.0209 41.9909 59.5692 44.6719 59.1822C43.6756 58.8919 41.3207 57.9048 39.8715 56.2791C39.1228 55.6791 37.9335 55.2284 36.6109 55.0851M29.7273 58.6983C29.9339 58.2377 30.1779 57.8276 30.4519 57.4641M29.7273 58.6983C29.3348 58.6338 28.4412 58.2532 28.0064 57.2468M36.6109 55.0851C36.3693 54.7412 35.9588 53.8598 36.2486 53.0857M36.6109 55.0851C36.1691 55.0373 35.7124 55.0237 35.2523 55.0503M35.2523 55.0503C34.9504 54.6212 34.4009 53.6276 34.6183 53.0857M35.2523 55.0503C34.8295 55.0748 34.4039 55.1332 33.9843 55.2301M33.9843 55.2301C33.7125 54.9346 33.151 54.1889 33.0785 53.5695M33.9843 55.2301C33.5838 55.3226 33.1887 55.4501 32.8068 55.6167M32.8068 55.6167C32.5049 55.4504 31.8467 55.0017 31.6294 54.5372M32.8068 55.6167C32.3959 55.7959 32.0002 56.0204 31.6294 56.295M31.6294 56.295C31.2067 56.2252 30.3251 55.9307 30.1802 55.3114M31.6294 56.295C31.1982 56.6143 30.8007 57.0014 30.4519 57.4641M30.4519 57.4641C29.999 57.3916 29.0571 56.9952 28.9122 55.9888" stroke="#050505" stroke-width="0.528989" stroke-linecap="round"/>
<path d="M35.4776 57.3434C35.4776 58.3897 36.348 59.2433 37.4285 59.2433C38.5091 59.2433 39.3795 58.3897 39.3795 57.3434C39.3795 56.2972 38.5091 55.4435 37.4285 55.4435C36.348 55.4435 35.4776 56.2972 35.4776 57.3434Z" fill="#050505" stroke="#211102" stroke-width="0.264494"/>
<ellipse cx="0.90573" cy="0.967694" rx="0.90573" ry="0.967694" transform="matrix(-1 0 0 1 38.2432 56.0858)" fill="#050505"/>
<path d="M45.6738 65.3399C45.8317 64.4964 46.167 63.2037 46.6701 61.9881M48.9344 58.9531C47.9842 59.3998 47.2251 60.6471 46.6701 61.9881M46.6701 61.9881C45.2511 61.6539 42.4675 61.9143 42.6849 65.6302C42.7924 67.4688 43.8308 66.985 45.6738 68.7268C48.0287 70.9525 48.1193 72.017 48.2098 72.5008C48.3004 72.9847 48.391 76.1781 50.5647 77.1458" stroke="#935B28" stroke-width="0.264494" stroke-linecap="round"/>
<path d="M56.5303 65.3399C56.3724 64.4964 56.0371 63.2037 55.534 61.9881M53.2697 58.9531C54.2199 59.3998 54.979 60.6471 55.534 61.9881M55.534 61.9881C56.953 61.6539 59.7366 61.9143 59.5192 65.6302C59.4117 67.4688 58.3733 66.985 56.5303 68.7268C54.1754 70.9525 54.0848 72.017 53.9943 72.5008C53.9037 72.9847 53.8131 76.1781 51.6394 77.1458" stroke="#935B28" stroke-width="0.264494" stroke-linecap="round"/>
<path d="M51.6513 77.1459C51.6513 77.1459 50.9267 77.3007 50.5645 77.1459" stroke="#935B28" stroke-width="0.264494" stroke-linecap="round"/>
<path d="M53.4193 55.179C53.4193 56.9314 52.0917 58.3369 50.4721 58.3369C48.8525 58.3369 47.5248 56.9314 47.5248 55.179C47.5248 53.4265 48.8525 52.021 50.4721 52.021C52.0917 52.021 53.4193 53.4265 53.4193 55.179Z" fill="#FE6C50" stroke="#935B28" stroke-width="0.264494"/>
<path d="M48.9326 44.4376C49.4761 45.4376 50.8347 46.8375 51.9215 44.4376" stroke="#935B28" stroke-width="0.264494"/>
<path d="M49.3867 42.7922C49.749 43.5225 50.6547 44.5448 51.3793 42.7922" stroke="#935B28" stroke-width="0.264494"/>
<path d="M39.0596 44.1112C43.487 40.5308 47.8382 45.1757 49.2122 47.0143C49.7466 47.7293 50.1283 47.982 50.5099 47.982" stroke="#935B28" stroke-width="0.264494"/>
<path d="M61.8857 44.1112C57.4583 40.5308 53.1071 45.1757 51.7331 47.0143C51.1987 47.7293 50.8171 47.982 50.4354 47.982" stroke="#935B28" stroke-width="0.264494"/>
<path d="M36.9785 46.7599C42.2317 43.1795 47.3944 47.8244 49.0247 49.663C49.6587 50.378 50.1116 50.6307 50.5645 50.6307" stroke="#935B28" stroke-width="0.264494"/>
<path d="M64.0596 46.7599C58.8063 43.1795 53.6437 47.8244 52.0134 49.663C51.3793 50.378 50.9265 50.6307 50.4736 50.6307" stroke="#935B28" stroke-width="0.264494"/>
<path d="M45.9431 55.7597C45.0736 52.5082 40.5087 49.631 38.335 48.5987L42.5013 49.4697C42.5013 49.3729 42.4107 48.8116 42.773 48.1149C43.1353 47.4182 43.5882 49.3084 43.7693 50.3406C43.7693 50.0503 43.9203 49.3729 44.2222 48.9858C44.6953 48.3793 45.1279 50.7922 45.1279 51.7921C45.1279 51.6954 45.291 51.3276 45.9431 50.6309C46.5952 49.9342 46.2148 53.7598 45.9431 55.7597Z" fill="#A19262"/>
<path d="M45.9431 55.7597C45.0736 52.5082 40.5087 49.631 38.335 48.5987L42.5013 49.4697C42.5013 49.3729 42.4107 48.8116 42.773 48.1149C43.1353 47.4182 43.5882 49.3084 43.7693 50.3406C43.7693 50.0503 43.9203 49.3729 44.2222 48.9858C44.6953 48.3793 45.1279 50.7922 45.1279 51.7921C45.1279 51.6954 45.291 51.3276 45.9431 50.6309C46.5952 49.9342 46.2148 53.7598 45.9431 55.7597Z" stroke="#1C0F03" stroke-width="0.264494"/>
<path d="M45.9431 55.7597C45.0736 52.5082 40.5087 49.631 38.335 48.5987L42.5013 49.4697C42.5013 49.3729 42.4107 48.8116 42.773 48.1149C43.1353 47.4182 43.5882 49.3084 43.7693 50.3406C43.7693 50.0503 43.9203 49.3729 44.2222 48.9858C44.6953 48.3793 45.1279 50.7922 45.1279 51.7921C45.1279 51.6954 45.291 51.3276 45.9431 50.6309C46.5952 49.9342 46.2148 53.7598 45.9431 55.7597Z" stroke="#1C0F03" stroke-width="0.264494"/>
<path d="M55.179 55.8134C56.0485 52.5619 60.6134 49.6847 62.7871 48.6525L58.6208 49.5234C58.6208 49.4266 58.7113 48.8653 58.349 48.1686C57.9867 47.4719 57.5339 49.3621 57.3527 50.3943C57.3527 50.104 57.2018 49.4266 56.8999 49.0395C56.4268 48.433 55.9941 50.8459 55.9941 51.8458C55.9941 51.7491 55.8311 51.3814 55.179 50.6846C54.5268 49.9879 54.9073 53.8135 55.179 55.8134Z" fill="#A19262"/>
<path d="M55.179 55.8134C56.0485 52.5619 60.6134 49.6847 62.7871 48.6525L58.6208 49.5234C58.6208 49.4266 58.7113 48.8653 58.349 48.1686C57.9867 47.4719 57.5339 49.3621 57.3527 50.3943C57.3527 50.104 57.2018 49.4266 56.8999 49.0395C56.4268 48.433 55.9941 50.8459 55.9941 51.8458C55.9941 51.7491 55.8311 51.3814 55.179 50.6846C54.5268 49.9879 54.9073 53.8135 55.179 55.8134Z" stroke="#1C0F03" stroke-width="0.264494"/>
<path d="M55.179 55.8134C56.0485 52.5619 60.6134 49.6847 62.7871 48.6525L58.6208 49.5234C58.6208 49.4266 58.7113 48.8653 58.349 48.1686C57.9867 47.4719 57.5339 49.3621 57.3527 50.3943C57.3527 50.104 57.2018 49.4266 56.8999 49.0395C56.4268 48.433 55.9941 50.8459 55.9941 51.8458C55.9941 51.7491 55.8311 51.3814 55.179 50.6846C54.5268 49.9879 54.9073 53.8135 55.179 55.8134Z" stroke="#1C0F03" stroke-width="0.264494"/>
</svg>
