<svg width="1280" height="146" viewBox="0 0 1280 146" fill="none" xmlns="http://www.w3.org/2000/svg">
<path d="M546.065 148.734H682.208C684.726 118.891 713.424 93.5766 727.458 84.6495C689.684 96.1274 684.307 111.75 679.06 133.43C667.728 121.187 691.389 74.1272 704.636 52.128C682.287 52.128 669.092 106.329 665.289 133.43C658.993 85.9874 682.602 41.2881 695.193 24.8687C665.918 32.5207 652.042 100.431 648.763 133.43C643.411 111.621 653.353 71.4176 658.993 54.0418C640.421 59.3981 636.827 109.199 637.352 133.43C619.724 100.526 633.417 51.1718 642.467 30.6077C629.061 36.4492 622.04 80.5636 619.119 114.461C620.28 59.5413 603.599 17.4605 593.523 1.01485C593.307 0.497686 593.096 0.154538 592.889 -6.10352e-05C593.097 0.326553 593.309 0.664898 593.523 1.01485C597.579 10.7366 603.114 81.9509 605.48 118.127C596.351 81.0149 583.839 66.3168 578.724 63.6067L592.202 106.317C572.102 53.3584 545.843 47.4146 533.867 52.128C570.382 65.1363 578.986 111.749 578.724 133.43C574.946 94.7878 537.54 74.6056 519.309 69.3448C535.143 75.76 548.669 106.484 555.234 126.216C547.475 110.961 523.597 108.511 510.44 109.442C510.118 109.458 509.796 109.483 509.472 109.518C509.787 109.491 510.11 109.465 510.44 109.442C527.615 108.602 541.301 135.12 546.065 148.734Z" fill="#569F5B"/>
<path d="M782.939 148.734H646.796C644.277 118.891 615.58 93.5766 601.546 84.6495C639.32 96.1274 644.697 111.75 649.944 133.43C661.276 121.187 637.615 74.1272 624.368 52.128C646.717 52.128 659.912 106.329 663.715 133.43C670.011 85.9874 646.402 41.2881 633.811 24.8687C663.086 32.5207 676.962 100.431 680.241 133.43C685.593 111.621 675.651 71.4176 670.011 54.0418C688.583 59.3981 692.177 109.199 691.652 133.43C709.28 100.526 695.587 51.1718 686.537 30.6077C699.943 36.4492 706.964 80.5636 709.885 114.461C708.724 59.5413 725.405 17.4605 735.481 1.01485C735.697 0.497686 735.908 0.154538 736.115 -6.10352e-05C735.907 0.326553 735.695 0.664898 735.481 1.01485C731.425 10.7366 725.89 81.9509 723.524 118.127C732.652 81.0149 745.165 66.3168 750.28 63.6067L736.802 106.317C756.901 53.3584 783.16 47.4146 795.137 52.128C758.622 65.1363 750.018 111.749 750.28 133.43C754.058 94.7878 791.464 74.6056 809.695 69.3448C793.861 75.76 780.335 106.484 773.77 126.216C781.529 110.961 805.407 108.511 818.564 109.442C818.885 109.458 819.208 109.483 819.532 109.518C819.216 109.491 818.893 109.465 818.564 109.442C801.389 108.602 787.702 135.12 782.939 148.734Z" fill="#569F5B"/>
<path d="M518.522 148.734H654.665C657.183 118.891 685.881 93.5766 699.915 84.6495C662.141 96.1274 656.764 111.75 651.517 133.43C640.185 121.187 663.846 74.1272 677.093 52.128C654.744 52.128 641.549 106.329 637.746 133.43C631.45 85.9874 655.059 41.2881 667.65 24.8687C638.375 32.5207 624.499 100.431 621.22 133.43C615.868 111.621 625.81 71.4176 631.45 54.0418C612.878 59.3981 609.284 109.199 609.809 133.43C592.181 100.526 605.874 51.1718 614.924 30.6077C601.518 36.4492 594.497 80.5636 591.576 114.461C592.737 59.5413 576.056 17.4605 565.98 1.01485C565.764 0.497686 565.553 0.154538 565.346 -6.10352e-05C565.554 0.326553 565.766 0.664898 565.98 1.01485C570.036 10.7366 575.571 81.9509 577.937 118.127C568.809 81.0149 556.296 66.3168 551.181 63.6067L564.659 106.317C544.559 53.3584 518.3 47.4146 506.324 52.128C542.839 65.1363 551.443 111.749 551.181 133.43C547.403 94.7878 509.997 74.6056 491.766 69.3448C507.6 75.76 521.126 106.484 527.691 126.216C519.932 110.961 496.054 108.511 482.897 109.442C482.576 109.458 482.253 109.483 481.929 109.518C482.245 109.491 482.567 109.465 482.897 109.442C500.072 108.602 513.758 135.12 518.522 148.734Z" fill="#1E7651"/>
<path d="M627.122 148.734H763.265C765.783 118.891 794.481 93.5766 808.515 84.6495C770.741 96.1274 765.363 111.75 760.117 133.43C748.785 121.187 772.446 74.1272 785.693 52.128C763.343 52.128 750.149 106.329 746.345 133.43C740.05 85.9874 763.658 41.2881 776.25 24.8687C746.975 32.5207 733.098 100.431 729.819 133.43C724.468 111.621 734.41 71.4176 740.05 54.0418C721.478 59.3981 717.884 109.199 718.408 133.43C700.781 100.526 714.474 51.1718 723.524 30.6077C710.117 36.4492 703.097 80.5636 700.175 114.461C701.337 59.5413 684.656 17.4605 674.58 1.01485C674.364 0.497686 674.152 0.154538 673.946 -6.10352e-05C674.154 0.326553 674.365 0.664898 674.58 1.01485C678.636 10.7366 684.171 81.9509 686.537 118.127C677.408 81.0149 664.896 66.3168 659.78 63.6067L673.259 106.317C653.159 53.3584 626.9 47.4146 614.924 52.128C651.439 65.1363 660.043 111.749 659.78 133.43C656.003 94.7878 618.596 74.6056 600.365 69.3448C616.2 75.76 629.725 106.484 636.291 126.216C628.532 110.961 604.654 108.511 591.497 109.442C591.175 109.458 590.852 109.483 590.528 109.518C590.844 109.491 591.167 109.465 591.497 109.442C608.672 108.602 622.358 135.12 627.122 148.734Z" fill="#1E7651"/>
<path d="M614.87 148.257H722.998C724.998 129.449 747.79 113.495 758.937 107.869C728.936 115.103 724.665 124.948 720.498 138.612C711.498 130.896 730.29 101.238 740.811 87.3731C723.061 87.3731 712.581 121.532 709.56 138.612C704.56 108.712 723.311 80.5415 733.311 70.1936C710.06 75.0161 699.039 117.815 696.435 138.612C692.185 124.867 700.081 99.5299 704.56 88.5792C689.81 91.9549 686.955 123.341 687.372 138.612C673.372 117.875 684.247 86.7705 691.435 73.8105C680.787 77.4919 675.211 105.294 672.891 126.657C673.813 92.0452 660.565 65.5247 652.562 55.1603C652.391 54.8343 652.223 54.6181 652.059 54.5206C652.224 54.7265 652.392 54.9397 652.562 55.1603C655.783 61.2872 660.18 106.168 662.059 128.967C654.809 105.578 644.871 96.3152 640.808 94.6073L651.513 121.524C635.549 88.1486 614.694 84.4026 605.182 87.3731C634.183 95.5713 641.017 124.948 640.808 138.612C637.808 114.258 608.099 101.539 593.619 98.2236C606.195 102.267 616.938 121.63 622.152 134.065C615.99 124.451 597.026 122.907 586.576 123.494C586.32 123.504 586.064 123.52 585.807 123.542C586.057 123.525 586.314 123.509 586.576 123.494C600.217 122.965 611.087 139.677 614.87 148.257Z" fill="#A0C330"/>
<path d="M756.985 148.257H697.023C695.914 138.085 683.275 129.457 677.094 126.414C693.731 130.326 696.099 135.651 698.41 143.04C703.401 138.867 692.98 122.828 687.145 115.33C696.989 115.33 702.8 133.804 704.475 143.04C707.248 126.87 696.85 111.635 691.304 106.039C704.198 108.647 710.31 131.793 711.754 143.04C714.111 135.607 709.732 121.904 707.248 115.982C715.428 117.808 717.011 134.782 716.78 143.04C724.543 131.826 718.513 115.004 714.527 107.995C720.431 109.986 723.523 125.022 724.81 136.575C724.299 117.856 731.645 103.514 736.083 97.9085C736.178 97.7322 736.271 97.6153 736.362 97.5626C736.271 97.6739 736.178 97.7892 736.083 97.9085C734.297 101.222 731.859 125.494 730.817 137.825C734.837 125.175 740.348 120.166 742.601 119.242L736.665 133.799C745.518 115.749 757.083 113.723 762.358 115.33C746.275 119.763 742.486 135.651 742.601 143.04C744.265 129.87 760.74 122.991 768.77 121.198C761.796 123.384 755.839 133.856 752.947 140.582C756.364 135.382 766.881 134.547 772.676 134.864C772.817 134.87 772.959 134.878 773.102 134.89C772.963 134.881 772.821 134.872 772.676 134.864C765.111 134.578 759.083 143.616 756.985 148.257Z" fill="#569F5B"/>
<path d="M807.349 148.257H747.388C746.278 138.085 733.639 129.457 727.458 126.414C744.095 130.326 746.463 135.651 748.774 143.04C753.765 138.867 743.344 122.828 737.509 115.33C747.353 115.33 753.164 133.804 754.839 143.04C757.612 126.87 747.214 111.635 741.669 106.039C754.562 108.647 760.674 131.793 762.118 143.04C764.475 135.607 760.096 121.904 757.612 115.982C765.792 117.808 767.375 134.782 767.144 143.04C774.908 131.826 768.877 115.004 764.891 107.995C770.795 109.986 773.888 125.022 775.174 136.575C774.663 117.856 782.01 103.514 786.447 97.9085C786.542 97.7322 786.636 97.6153 786.727 97.5626C786.635 97.6739 786.542 97.7892 786.447 97.9085C784.661 101.222 782.223 125.494 781.181 137.825C785.202 125.175 790.713 120.166 792.966 119.242L787.029 133.799C795.882 115.749 807.447 113.723 812.722 115.33C796.639 119.763 792.85 135.651 792.966 143.04C794.629 129.87 811.104 122.991 819.134 121.198C812.16 123.384 806.203 133.856 803.311 140.582C806.729 135.382 817.245 134.547 823.04 134.864C823.182 134.87 823.324 134.878 823.466 134.89C823.327 134.881 823.185 134.872 823.04 134.864C815.475 134.578 809.448 143.616 807.349 148.257Z" fill="#569F5B"/>
<path d="M631.072 148.257H571.11C570.001 138.085 557.362 129.457 551.181 126.414C567.817 130.326 570.186 135.651 572.497 143.04C577.488 138.867 567.067 122.828 561.232 115.33C571.076 115.33 576.887 133.804 578.562 143.04C581.335 126.87 570.937 111.635 565.391 106.039C578.285 108.647 584.397 131.793 585.841 143.04C588.198 135.607 583.819 121.904 581.335 115.982C589.515 117.808 591.098 134.782 590.866 143.04C598.63 131.826 592.599 115.004 588.614 107.995C594.518 109.986 597.61 125.022 598.897 136.575C598.385 117.856 605.732 103.514 610.17 97.9085C610.265 97.7322 610.358 97.6153 610.449 97.5626C610.358 97.6739 610.265 97.7892 610.17 97.9085C608.384 101.222 605.946 125.494 604.904 137.825C608.924 125.175 614.435 120.166 616.688 119.242L610.752 133.799C619.604 115.749 631.17 113.723 636.444 115.33C620.362 119.763 616.573 135.651 616.688 143.04C618.352 129.87 634.827 122.991 642.857 121.198C635.883 123.384 629.925 133.856 627.034 140.582C630.451 135.382 640.968 134.547 646.763 134.864C646.904 134.87 647.046 134.878 647.189 134.89C647.05 134.881 646.908 134.872 646.763 134.864C639.198 134.578 633.17 143.616 631.072 148.257Z" fill="#569F5B"/>
<path d="M579.134 148.257H519.172C518.063 138.085 505.423 129.457 499.242 126.414C515.879 130.326 518.247 135.651 520.558 143.04C525.549 138.867 515.128 122.828 509.294 115.33C519.137 115.33 524.948 133.804 526.624 143.04C529.396 126.87 518.998 111.635 513.453 106.039C526.346 108.647 532.458 131.793 533.902 143.04C536.259 135.607 531.88 121.904 529.396 115.982C537.576 117.808 539.159 134.782 538.928 143.04C546.692 131.826 540.661 115.004 536.675 107.995C542.58 109.986 545.672 125.022 546.958 136.575C546.447 117.856 553.794 103.514 558.232 97.9085C558.327 97.7322 558.42 97.6153 558.511 97.5626C558.419 97.6739 558.326 97.7892 558.232 97.9085C556.445 101.222 554.007 125.494 552.965 137.825C556.986 125.175 562.497 120.166 564.75 119.242L558.813 133.799C567.666 115.749 579.231 113.723 584.506 115.33C568.424 119.763 564.634 135.651 564.75 143.04C566.413 129.87 582.888 122.991 590.918 121.198C583.944 123.384 577.987 133.856 575.095 140.582C578.513 135.382 589.029 134.547 594.824 134.864C594.966 134.87 595.108 134.878 595.251 134.89C595.112 134.881 594.969 134.872 594.824 134.864C587.26 134.578 581.232 143.616 579.134 148.257Z" fill="#569F5B"/>
<path d="M287.944 148.734H424.087C426.605 118.891 455.303 93.5767 469.337 84.6496C431.563 96.1275 426.186 111.75 420.939 133.43C409.607 121.187 433.268 74.1273 446.515 52.128C424.166 52.128 410.971 106.329 407.168 133.43C400.872 85.9875 424.481 41.2882 437.072 24.8688C407.797 32.5208 393.92 100.431 390.642 133.43C385.29 111.621 395.232 71.4177 400.872 54.0418C382.3 59.3982 378.706 109.199 379.231 133.43C361.603 100.526 375.296 51.1719 384.346 30.6078C370.94 36.4492 363.919 80.5636 360.998 114.461C362.159 59.5414 345.478 17.4605 335.402 1.01491C335.186 0.497747 334.974 0.154599 334.768 0C334.976 0.326614 335.187 0.664959 335.402 1.01491C339.458 10.7367 344.993 81.951 347.359 118.127C338.23 81.0149 325.718 66.3168 320.603 63.6068L334.081 106.317C313.981 53.3585 287.722 47.4147 275.746 52.128C312.261 65.1363 320.865 111.75 320.603 133.43C316.825 94.7879 279.419 74.6057 261.188 69.3449C277.022 75.7601 290.548 106.484 297.113 126.216C289.354 110.961 265.476 108.511 252.319 109.442C251.997 109.458 251.675 109.483 251.351 109.518C251.666 109.491 251.989 109.465 252.319 109.442C269.494 108.603 283.18 135.12 287.944 148.734Z" fill="#569F5B"/>
<path d="M524.818 148.734H388.675C386.156 118.891 357.459 93.5767 343.425 84.6496C381.199 96.1275 386.576 111.75 391.822 133.43C403.155 121.187 379.494 74.1273 366.246 52.128C388.596 52.128 401.791 106.329 405.594 133.43C411.89 85.9875 388.281 41.2882 375.69 24.8688C404.965 32.5208 418.841 100.431 422.12 133.43C427.471 111.621 417.53 71.4177 411.89 54.0418C430.462 59.3982 434.056 109.199 433.531 133.43C451.159 100.526 437.466 51.1719 428.416 30.6078C441.822 36.4492 448.843 80.5636 451.764 114.461C450.603 59.5414 467.284 17.4605 477.36 1.01491C477.576 0.497747 477.787 0.154599 477.994 0C477.786 0.326614 477.574 0.664959 477.36 1.01491C473.304 10.7367 467.769 81.951 465.403 118.127C474.531 81.0149 487.044 66.3168 492.159 63.6068L478.681 106.317C498.78 53.3585 525.039 47.4147 537.015 52.128C500.501 65.1363 491.897 111.75 492.159 133.43C495.936 94.7879 533.343 74.6057 551.574 69.3449C535.74 75.7601 522.214 106.484 515.648 126.216C523.408 110.961 547.285 108.511 560.443 109.442C560.764 109.458 561.087 109.483 561.411 109.518C561.095 109.491 560.772 109.465 560.443 109.442C543.268 108.603 529.581 135.12 524.818 148.734Z" fill="#569F5B"/>
<path d="M260.401 148.734H396.544C399.062 118.891 427.76 93.5767 441.794 84.6496C404.02 96.1275 398.643 111.75 393.396 133.43C382.064 121.187 405.725 74.1273 418.972 52.128C396.623 52.128 383.428 106.329 379.625 133.43C373.329 85.9875 396.938 41.2882 409.529 24.8688C380.254 32.5208 366.378 100.431 363.099 133.43C357.747 111.621 367.689 71.4177 373.329 54.0418C354.757 59.3982 351.163 109.199 351.688 133.43C334.06 100.526 347.753 51.1719 356.803 30.6078C343.397 36.4492 336.376 80.5636 333.455 114.461C334.616 59.5414 317.935 17.4605 307.859 1.01491C307.643 0.497747 307.432 0.154599 307.225 0C307.433 0.326614 307.644 0.664959 307.859 1.01491C311.915 10.7367 317.45 81.951 319.816 118.127C310.687 81.0149 298.175 66.3168 293.06 63.6068L306.538 106.317C286.438 53.3585 260.179 47.4147 248.203 52.128C284.718 65.1363 293.322 111.75 293.06 133.43C289.282 94.7879 251.876 74.6057 233.645 69.3449C249.479 75.7601 263.005 106.484 269.57 126.216C261.811 110.961 237.933 108.511 224.776 109.442C224.454 109.458 224.132 109.483 223.808 109.518C224.123 109.491 224.446 109.465 224.776 109.442C241.951 108.603 255.637 135.12 260.401 148.734Z" fill="#1E7651"/>
<path d="M394.183 148.734H530.326C532.845 118.891 561.542 93.5767 575.576 84.6496C537.802 96.1275 532.425 111.75 527.179 133.43C515.846 121.187 539.507 74.1273 552.755 52.128C530.405 52.128 517.21 106.329 513.407 133.43C507.111 85.9875 530.72 41.2882 543.311 24.8688C514.036 32.5208 500.16 100.431 496.881 133.43C491.529 111.621 501.471 71.4177 507.111 54.0418C488.539 59.3982 484.945 109.199 485.47 133.43C467.842 100.526 481.535 51.1719 490.585 30.6078C477.179 36.4492 470.158 80.5636 467.237 114.461C468.398 59.5414 451.717 17.4605 441.641 1.01491C441.425 0.497747 441.214 0.154599 441.007 0C441.215 0.326614 441.427 0.664959 441.641 1.01491C445.697 10.7367 451.232 81.951 453.598 118.127C444.47 81.0149 431.957 66.3168 426.842 63.6068L440.32 106.317C420.221 53.3585 393.962 47.4147 381.986 52.128C418.5 65.1363 427.104 111.75 426.842 133.43C423.064 94.7879 385.658 74.6057 367.427 69.3449C383.261 75.7601 396.787 106.484 403.353 126.216C395.593 110.961 371.716 108.511 358.558 109.442C358.237 109.458 357.914 109.483 357.59 109.518C357.906 109.491 358.229 109.465 358.558 109.442C375.733 108.603 389.42 135.12 394.183 148.734Z" fill="#1E7651"/>
<path d="M342.933 148.257H451.061C453.062 129.449 475.854 113.495 487 107.869C456.999 115.103 452.728 124.948 448.561 138.612C439.561 130.896 458.353 101.238 468.874 87.3732C451.124 87.3732 440.645 121.532 437.624 138.612C432.623 108.712 451.374 80.5416 461.374 70.1937C438.124 75.0161 427.102 117.815 424.498 138.612C420.248 124.868 428.144 99.53 432.623 88.5793C417.873 91.955 415.019 123.341 415.435 138.612C401.435 117.875 412.31 86.7706 419.498 73.8105C408.85 77.492 403.275 105.294 400.954 126.657C401.877 92.0452 388.628 65.5248 380.626 55.1603C380.454 54.8344 380.286 54.6181 380.122 54.5207C380.287 54.7265 380.455 54.9398 380.626 55.1603C383.847 61.2872 388.243 106.168 390.122 128.967C382.872 105.578 372.934 96.3153 368.872 94.6074L379.576 121.524C363.613 88.1486 342.757 84.4027 333.246 87.3732C362.246 95.5713 369.08 124.948 368.872 138.612C365.872 114.259 336.162 101.539 321.683 98.2237C334.259 102.267 345.001 121.63 350.216 134.065C344.053 124.451 325.089 122.907 314.639 123.494C314.384 123.504 314.127 123.52 313.87 123.542C314.121 123.525 314.377 123.509 314.639 123.494C328.28 122.965 339.15 139.677 342.933 148.257Z" fill="#A0C330"/>
<path d="M464.561 148.257H572.689C574.689 129.449 597.482 113.495 608.628 107.869C578.627 115.103 574.356 124.948 570.189 138.612C561.189 130.896 579.981 101.238 590.502 87.3732C572.752 87.3732 562.272 121.532 559.252 138.612C554.251 108.712 573.002 80.5416 583.002 70.1937C559.752 75.0161 548.73 117.815 546.126 138.612C541.876 124.868 549.772 99.53 554.251 88.5793C539.501 91.955 536.647 123.341 537.063 138.612C523.063 117.875 533.938 86.7706 541.126 73.8105C530.478 77.492 524.903 105.294 522.582 126.657C523.505 92.0452 510.256 65.5248 502.253 55.1603C502.082 54.8344 501.914 54.6181 501.75 54.5207C501.915 54.7265 502.083 54.9398 502.253 55.1603C505.475 61.2872 509.871 106.168 511.75 128.967C504.5 105.578 494.562 96.3153 490.5 94.6074L501.204 121.524C485.241 88.1486 464.385 84.4027 454.874 87.3732C483.874 95.5713 490.708 124.948 490.5 138.612C487.5 114.259 457.79 101.539 443.311 98.2237C455.887 102.267 466.629 121.63 471.844 134.065C465.681 124.451 446.717 122.907 436.267 123.494C436.012 123.504 435.755 123.52 435.498 123.542C435.749 123.525 436.005 123.509 436.267 123.494C449.908 122.965 460.778 139.677 464.561 148.257Z" fill="#A0C330"/>
<path d="M429.612 148.257H369.65C368.541 138.085 355.902 129.457 349.721 126.414C366.358 130.326 368.726 135.651 371.037 143.04C376.028 138.867 365.607 122.828 359.772 115.33C369.616 115.33 375.427 133.804 377.102 143.04C379.875 126.87 369.477 111.635 363.931 106.039C376.825 108.647 382.937 131.793 384.381 143.04C386.738 135.607 382.359 121.904 379.875 115.982C388.055 117.808 389.638 134.782 389.406 143.04C397.17 131.826 391.139 115.004 387.154 107.995C393.058 109.986 396.15 125.022 397.437 136.575C396.925 117.857 404.272 103.514 408.71 97.9085C408.805 97.7323 408.898 97.6153 408.989 97.5626C408.898 97.6739 408.805 97.7893 408.71 97.9085C406.924 101.222 404.486 125.495 403.444 137.825C407.464 125.175 412.975 120.166 415.228 119.242L409.292 133.799C418.144 115.749 429.71 113.723 434.984 115.33C418.902 119.763 415.113 135.651 415.228 143.04C416.892 129.87 433.367 122.991 441.397 121.198C434.423 123.384 428.465 133.856 425.574 140.582C428.991 135.382 439.508 134.547 445.303 134.864C445.444 134.87 445.586 134.878 445.729 134.89C445.59 134.881 445.448 134.872 445.303 134.864C437.738 134.578 431.71 143.616 429.612 148.257Z" fill="#569F5B"/>
<path d="M498.864 148.257H438.902C437.793 138.085 425.154 129.457 418.973 126.414C435.609 130.326 437.978 135.651 440.289 143.04C445.28 138.867 434.859 122.828 429.024 115.33C438.868 115.33 444.679 133.804 446.354 143.04C449.127 126.87 438.729 111.635 433.183 106.039C446.077 108.647 452.189 131.793 453.633 143.04C455.99 135.607 451.611 121.904 449.127 115.982C457.307 117.808 458.889 134.782 458.658 143.04C466.422 131.826 460.391 115.004 456.406 107.995C462.31 109.986 465.402 125.022 466.689 136.575C466.177 117.857 473.524 103.514 477.962 97.9085C478.057 97.7323 478.15 97.6153 478.241 97.5626C478.15 97.6739 478.057 97.7893 477.962 97.9085C476.176 101.222 473.738 125.495 472.696 137.825C476.716 125.175 482.227 120.166 484.48 119.242L478.544 133.799C487.396 115.749 498.962 113.723 504.236 115.33C488.154 119.763 484.365 135.651 484.48 143.04C486.144 129.87 502.619 122.991 510.649 121.198C503.675 123.384 497.717 133.856 494.826 140.582C498.243 135.382 508.76 134.547 514.555 134.864C514.696 134.87 514.838 134.878 514.981 134.89C514.842 134.881 514.7 134.872 514.555 134.864C506.99 134.578 500.962 143.616 498.864 148.257Z" fill="#569F5B"/>
<path d="M372.951 148.257H312.989C311.88 138.085 299.241 129.457 293.06 126.414C309.696 130.326 312.065 135.651 314.376 143.04C319.367 138.867 308.945 122.828 303.111 115.33C312.954 115.33 318.766 133.804 320.441 143.04C323.214 126.87 312.816 111.635 307.27 106.039C320.164 108.647 326.275 131.793 327.72 143.04C330.077 135.607 325.698 121.904 323.214 115.982C331.394 117.808 332.976 134.782 332.745 143.04C340.509 131.826 334.478 115.004 330.492 107.995C336.397 109.986 339.489 125.022 340.776 136.575C340.264 117.857 347.611 103.514 352.049 97.9085C352.144 97.7323 352.237 97.6153 352.328 97.5626C352.237 97.6739 352.143 97.7893 352.049 97.9085C350.263 101.222 347.825 125.495 346.783 137.825C350.803 125.175 356.314 120.166 358.567 119.242L352.631 133.799C361.483 115.749 373.049 113.723 378.323 115.33C362.241 119.763 358.452 135.651 358.567 143.04C360.231 129.87 376.706 122.991 384.735 121.198C377.762 123.384 371.804 133.856 368.913 140.582C372.33 135.382 382.847 134.547 388.642 134.864C388.783 134.87 388.925 134.878 389.068 134.89C388.929 134.881 388.787 134.872 388.642 134.864C381.077 134.578 375.049 143.616 372.951 148.257Z" fill="#569F5B"/>
<path d="M321.013 148.257H261.051C259.942 138.085 247.302 129.457 241.121 126.414C257.758 130.326 260.126 135.651 262.437 143.04C267.428 138.867 257.007 122.828 251.173 115.33C261.016 115.33 266.827 133.804 268.503 143.04C271.275 126.87 260.877 111.635 255.332 106.039C268.225 108.647 274.337 131.793 275.781 143.04C278.138 135.607 273.759 121.904 271.275 115.982C279.455 117.808 281.038 134.782 280.807 143.04C288.571 131.826 282.54 115.004 278.554 107.995C284.459 109.986 287.551 125.022 288.837 136.575C288.326 117.857 295.673 103.514 300.111 97.9085C300.206 97.7323 300.299 97.6153 300.39 97.5626C300.298 97.6739 300.205 97.7893 300.111 97.9085C298.324 101.222 295.886 125.495 294.844 137.825C298.865 125.175 304.376 120.166 306.629 119.242L300.692 133.799C309.545 115.749 321.11 113.723 326.385 115.33C310.303 119.763 306.513 135.651 306.629 143.04C308.292 129.87 324.767 122.991 332.797 121.198C325.823 123.384 319.866 133.856 316.974 140.582C320.392 135.382 330.908 134.547 336.703 134.864C336.845 134.87 336.987 134.878 337.129 134.89C336.99 134.881 336.848 134.872 336.703 134.864C329.139 134.578 323.111 143.616 321.013 148.257Z" fill="#569F5B"/>
<path d="M47.1364 148.734H183.279C185.798 118.891 214.495 93.5766 228.529 84.6495C190.756 96.1274 185.378 111.75 180.132 133.43C168.799 121.187 192.461 74.1272 205.708 52.128C183.358 52.128 170.164 106.329 166.36 133.43C160.064 85.9874 183.673 41.2881 196.264 24.8687C166.989 32.5207 153.113 100.431 149.834 133.43C144.483 111.621 154.424 71.4176 160.064 54.0418C141.492 59.3981 137.898 109.199 138.423 133.43C120.795 100.526 134.488 51.1718 143.538 30.6077C130.132 36.4492 123.111 80.5636 120.19 114.461C121.351 59.5413 104.67 17.4605 94.5942 1.01485C94.3784 0.497686 94.1669 0.154538 93.9602 -6.10352e-05C94.1684 0.326553 94.3798 0.664898 94.5942 1.01485C98.6502 10.7366 104.185 81.9509 106.551 118.127C97.4228 81.0149 84.9102 66.3168 79.795 63.6067L93.2733 106.317C73.1737 53.3584 46.9147 47.4146 34.9386 52.128C71.4533 65.1363 80.0573 111.749 79.795 133.43C76.0176 94.7878 38.6111 74.6056 20.38 69.3448C36.2142 75.76 49.7399 106.484 56.3057 126.216C48.5462 110.961 24.6687 108.511 11.5113 109.442C11.1898 109.458 10.867 109.483 10.5431 109.518C10.8588 109.491 11.1817 109.465 11.5113 109.442C28.6864 108.602 42.3727 135.12 47.1364 148.734Z" fill="#569F5B"/>
<path d="M284.01 148.734H147.867C145.349 118.891 116.651 93.5766 102.617 84.6495C140.391 96.1274 145.768 111.75 151.015 133.43C162.347 121.187 138.686 74.1272 125.439 52.128C147.788 52.128 160.983 106.329 164.787 133.43C171.082 85.9874 147.474 41.2881 134.882 24.8687C164.157 32.5207 178.034 100.431 181.313 133.43C186.664 111.621 176.722 71.4176 171.082 54.0418C189.654 59.3981 193.248 109.199 192.723 133.43C210.351 100.526 196.658 51.1718 187.608 30.6077C201.015 36.4492 208.035 80.5636 210.956 114.461C209.795 59.5413 226.476 17.4605 236.552 1.01485C236.768 0.497686 236.98 0.154538 237.186 -6.10352e-05C236.978 0.326553 236.767 0.664898 236.552 1.01485C232.496 10.7366 226.961 81.9509 224.595 118.127C233.724 81.0149 246.236 66.3168 251.351 63.6067L237.873 106.317C257.973 53.3584 284.232 47.4146 296.208 52.128C259.693 65.1363 251.089 111.749 251.351 133.43C255.129 94.7878 292.535 74.6056 310.766 69.3448C294.932 75.76 281.407 106.484 274.841 126.216C282.6 110.961 306.478 108.511 319.635 109.442C319.957 109.458 320.279 109.483 320.603 109.518C320.288 109.491 319.965 109.465 319.635 109.442C302.46 108.602 288.774 135.12 284.01 148.734Z" fill="#569F5B"/>
<path d="M19.5934 148.734H155.736C158.255 118.891 186.952 93.5766 200.986 84.6495C163.213 96.1274 157.835 111.75 152.589 133.43C141.257 121.187 164.918 74.1272 178.165 52.128C155.815 52.128 142.621 106.329 138.817 133.43C132.521 85.9874 156.13 41.2881 168.721 24.8687C139.447 32.5207 125.57 100.431 122.291 133.43C116.94 111.621 126.882 71.4176 132.521 54.0418C113.949 59.3981 110.355 109.199 110.88 133.43C93.2523 100.526 106.945 51.1718 115.995 30.6077C102.589 36.4492 95.5685 80.5636 92.6471 114.461C93.8083 59.5413 77.1274 17.4605 67.0512 1.01485C66.8355 0.497686 66.6239 0.154538 66.4172 -6.10352e-05C66.6254 0.326553 66.8368 0.664898 67.0512 1.01485C71.1072 10.7366 76.6423 81.9509 79.0085 118.127C69.8798 81.0149 57.3672 66.3168 52.252 63.6067L65.7303 106.317C45.6308 53.3584 19.3718 47.4146 7.39566 52.128C43.9103 65.1363 52.5144 111.749 52.252 133.43C48.4747 94.7878 11.0681 74.6056 -7.16298 69.3448C8.67122 75.76 22.1969 106.484 28.7627 126.216C21.0033 110.961 -2.87431 108.511 -16.0317 109.442C-16.3532 109.458 -16.676 109.483 -16.9999 109.518C-16.6842 109.491 -16.3613 109.465 -16.0317 109.442C1.14343 108.602 14.8298 135.12 19.5934 148.734Z" fill="#1E7651"/>
<path d="M128.193 148.734H264.336C266.854 118.891 295.552 93.5766 309.586 84.6495C271.812 96.1274 266.435 111.75 261.188 133.43C249.856 121.187 273.517 74.1272 286.764 52.128C264.415 52.128 251.22 106.329 247.417 133.43C241.121 85.9874 264.73 41.2881 277.321 24.8687C248.046 32.5207 234.17 100.431 230.891 133.43C225.539 111.621 235.481 71.4176 241.121 54.0418C222.549 59.3981 218.955 109.199 219.48 133.43C201.852 100.526 215.545 51.1718 224.595 30.6077C211.189 36.4492 204.168 80.5636 201.247 114.461C202.408 59.5413 185.727 17.4605 175.651 1.01485C175.435 0.497686 175.224 0.154538 175.017 -6.10352e-05C175.225 0.326553 175.436 0.664898 175.651 1.01485C179.707 10.7366 185.242 81.9509 187.608 118.127C178.479 81.0149 165.967 66.3168 160.852 63.6067L174.33 106.317C154.23 53.3584 127.971 47.4146 115.995 52.128C152.51 65.1363 161.114 111.749 160.852 133.43C157.074 94.7878 119.668 74.6056 101.437 69.3448C117.271 75.76 130.797 106.484 137.362 126.216C129.603 110.961 105.725 108.511 92.5679 109.442C92.2464 109.458 91.9236 109.483 91.5997 109.518C91.9154 109.491 92.2383 109.465 92.5679 109.442C109.743 108.602 123.429 135.12 128.193 148.734Z" fill="#1E7651"/>
<path d="M115.941 148.257H224.069C226.069 129.449 248.862 113.495 260.008 107.869C230.007 115.103 225.736 124.948 221.569 138.612C212.569 130.896 231.361 101.238 241.882 87.3731C224.132 87.3731 213.652 121.532 210.631 138.612C205.631 108.712 224.382 80.5415 234.382 70.1936C211.131 75.0161 200.11 117.815 197.506 138.612C193.256 124.867 201.152 99.5299 205.631 88.5792C190.881 91.9549 188.027 123.341 188.443 138.612C174.443 117.875 185.318 86.7705 192.506 73.8105C181.858 77.4919 176.282 105.294 173.962 126.657C174.884 92.0452 161.636 65.5247 153.633 55.1603C153.462 54.8343 153.294 54.6181 153.13 54.5206C153.295 54.7265 153.463 54.9397 153.633 55.1603C156.855 61.2872 161.251 106.168 163.13 128.967C155.88 105.578 145.942 96.3152 141.879 94.6073L152.584 121.524C136.621 88.1486 115.765 84.4026 106.253 87.3731C135.254 95.5713 142.088 124.948 141.879 138.612C138.879 114.258 109.17 101.539 94.6907 98.2236C107.267 102.267 118.009 121.63 123.224 134.065C117.061 124.451 98.0968 122.907 87.6469 123.494C87.3916 123.504 87.1352 123.52 86.8779 123.542C87.1287 123.525 87.3852 123.509 87.6469 123.494C101.288 122.965 112.158 139.677 115.941 148.257Z" fill="#A0C330"/>
<path d="M188.805 148.257H128.843C127.734 138.085 115.094 129.457 108.913 126.414C125.55 130.326 127.918 135.651 130.229 143.04C135.22 138.867 124.799 122.828 118.965 115.33C128.808 115.33 134.619 133.804 136.295 143.04C139.067 126.87 128.669 111.635 123.124 106.039C136.017 108.647 142.129 131.793 143.573 143.04C145.93 135.607 141.551 121.904 139.067 115.982C147.247 117.808 148.83 134.782 148.599 143.04C156.363 131.826 150.332 115.004 146.346 107.995C152.251 109.986 155.343 125.022 156.629 136.575C156.118 117.856 163.465 103.514 167.903 97.9085C167.998 97.7322 168.091 97.6153 168.182 97.5626C168.09 97.6739 167.997 97.7892 167.903 97.9085C166.116 101.222 163.678 125.494 162.636 137.825C166.657 125.175 172.168 120.166 174.421 119.242L168.484 133.799C177.337 115.749 188.902 113.723 194.177 115.33C178.095 119.763 174.305 135.651 174.421 143.04C176.084 129.87 192.559 122.991 200.589 121.198C193.615 123.384 187.658 133.856 184.766 140.582C188.184 135.382 198.7 134.547 204.495 134.864C204.637 134.87 204.779 134.878 204.921 134.89C204.782 134.881 204.64 134.872 204.495 134.864C196.931 134.578 190.903 143.616 188.805 148.257Z" fill="#569F5B"/>
<path d="M258.056 148.257H198.095C196.985 138.085 184.346 129.457 178.165 126.414C194.802 130.326 197.17 135.651 199.481 143.04C204.472 138.867 194.051 122.828 188.216 115.33C198.06 115.33 203.871 133.804 205.546 143.04C208.319 126.87 197.921 111.635 192.376 106.039C205.269 108.647 211.381 131.793 212.825 143.04C215.182 135.607 210.803 121.904 208.319 115.982C216.499 117.808 218.082 134.782 217.851 143.04C225.615 131.826 219.584 115.004 215.598 107.995C221.503 109.986 224.595 125.022 225.881 136.575C225.37 117.856 232.717 103.514 237.154 97.9085C237.25 97.7322 237.343 97.6153 237.434 97.5626C237.342 97.6739 237.249 97.7892 237.154 97.9085C235.368 101.222 232.93 125.494 231.888 137.825C235.909 125.175 241.42 120.166 243.673 119.242L237.736 133.799C246.589 115.749 258.154 113.723 263.429 115.33C247.347 119.763 243.557 135.651 243.673 143.04C245.336 129.87 261.811 122.991 269.841 121.198C262.867 123.384 256.91 133.856 254.018 140.582C257.436 135.382 267.952 134.547 273.747 134.864C273.889 134.87 274.031 134.878 274.173 134.89C274.034 134.881 273.892 134.872 273.747 134.864C266.182 134.578 260.155 143.616 258.056 148.257Z" fill="#569F5B"/>
<path d="M132.143 148.257H72.1815C71.0724 138.085 58.433 129.457 52.252 126.414C68.8888 130.326 71.2572 135.651 73.5679 143.04C78.5589 138.867 68.1378 122.828 62.3034 115.33C72.1468 115.33 77.9582 133.804 79.6334 143.04C82.4062 126.87 72.0082 111.635 66.4626 106.039C79.3561 108.647 85.4678 131.793 86.912 143.04C89.2689 135.607 84.8902 121.904 82.4062 115.982C90.586 117.808 92.1688 134.782 91.9377 143.04C99.7016 131.826 93.6707 115.004 89.6848 107.995C95.5894 109.986 98.6815 125.022 99.9681 136.575C99.4567 117.856 106.804 103.514 111.241 97.9085C111.336 97.7322 111.43 97.6153 111.521 97.5626C111.429 97.6739 111.336 97.7892 111.241 97.9085C109.455 101.222 107.017 125.494 105.975 137.825C109.996 125.175 115.507 120.166 117.759 119.242L111.823 133.799C120.676 115.749 132.241 113.723 137.516 115.33C121.433 119.763 117.644 135.651 117.759 143.04C119.423 129.87 135.898 122.991 143.928 121.198C136.954 123.384 130.997 133.856 128.105 140.582C131.522 135.382 142.039 134.547 147.834 134.864C147.976 134.87 148.118 134.878 148.26 134.89C148.121 134.881 147.979 134.872 147.834 134.864C140.269 134.578 134.241 143.616 132.143 148.257Z" fill="#569F5B"/>
<path d="M80.2039 148.257H20.242C19.1329 138.085 6.49355 129.457 0.3125 126.414C16.9493 130.326 19.3178 135.651 21.6284 143.04C26.6195 138.867 16.1984 122.828 10.3639 115.33C20.2074 115.33 26.0187 133.804 27.694 143.04C30.4668 126.87 20.0687 111.635 14.5231 106.039C27.4167 108.647 33.5284 131.793 34.9726 143.04C37.3294 135.607 32.9507 121.904 30.4668 115.982C38.6465 117.808 40.2293 134.782 39.9983 143.04C47.7621 131.826 41.7313 115.004 37.7454 107.995C43.65 109.986 46.742 125.022 48.0287 136.575C47.5173 117.856 54.8641 103.514 59.302 97.9085C59.397 97.7322 59.4902 97.6153 59.5812 97.5626C59.4895 97.6739 59.3964 97.7892 59.302 97.9085C57.5156 101.222 55.0777 125.494 54.0356 137.825C58.0562 125.175 63.5671 120.166 65.82 119.242L59.8837 133.799C68.7363 115.749 80.3016 113.723 85.5763 115.33C69.494 119.763 65.7045 135.651 65.82 143.04C67.4837 129.87 83.9588 122.991 91.9884 121.198C85.0145 123.384 79.0573 133.856 76.1655 140.582C79.583 135.382 90.0995 134.547 95.8944 134.864C96.0361 134.87 96.1782 134.878 96.3209 134.89C96.1818 134.881 96.0396 134.872 95.8944 134.864C88.33 134.578 82.302 143.616 80.2039 148.257Z" fill="#569F5B"/>
<path d="M1000.93 148.734H864.782C862.264 118.891 833.566 93.5766 819.532 84.6495C857.306 96.1274 862.684 111.75 867.93 133.43C879.262 121.187 855.601 74.1272 842.354 52.128C864.703 52.128 877.898 106.329 881.702 133.43C887.997 85.9874 864.389 41.2881 851.797 24.8687C881.072 32.5207 894.949 100.431 898.228 133.43C903.579 111.621 893.637 71.4176 887.997 54.0418C906.569 59.3981 910.163 109.199 909.638 133.43C927.266 100.526 913.573 51.1718 904.523 30.6077C917.93 36.4492 924.95 80.5636 927.871 114.461C926.71 59.5413 943.391 17.4605 953.467 1.01485C953.683 0.497686 953.895 0.154538 954.101 -6.10352e-05C953.893 0.326553 953.682 0.664898 953.467 1.01485C949.411 10.7366 943.876 81.9509 941.51 118.127C950.639 81.0149 963.151 66.3168 968.267 63.6067L954.788 106.317C974.888 53.3584 1001.15 47.4146 1013.12 52.128C976.608 65.1363 968.004 111.749 968.267 133.43C972.044 94.7878 1009.45 74.6056 1027.68 69.3448C1011.85 75.76 998.322 106.484 991.756 126.216C999.515 110.961 1023.39 108.511 1036.55 109.442C1036.87 109.458 1037.19 109.483 1037.52 109.518C1037.2 109.491 1036.88 109.465 1036.55 109.442C1019.38 108.602 1005.69 135.12 1000.93 148.734Z" fill="#569F5B"/>
<path d="M764.051 148.734H900.194C902.713 118.891 931.41 93.5766 945.444 84.6495C907.671 96.1274 902.293 111.75 897.047 133.43C885.715 121.187 909.376 74.1272 922.623 52.128C900.273 52.128 887.079 106.329 883.275 133.43C876.979 85.9874 900.588 41.2881 913.179 24.8687C883.905 32.5207 870.028 100.431 866.749 133.43C861.398 111.621 871.34 71.4176 876.979 54.0418C858.407 59.3981 854.813 109.199 855.338 133.43C837.71 100.526 851.403 51.1718 860.453 30.6077C847.047 36.4492 840.026 80.5636 837.105 114.461C838.266 59.5413 821.585 17.4605 811.509 1.01485C811.293 0.497686 811.082 0.154538 810.875 -6.10352e-05C811.083 0.326553 811.295 0.664898 811.509 1.01485C815.565 10.7366 821.1 81.9509 823.466 118.127C814.338 81.0149 801.825 66.3168 796.71 63.6067L810.188 106.317C790.089 53.3584 763.83 47.4146 751.854 52.128C788.368 65.1363 796.972 111.749 796.71 133.43C792.933 94.7878 755.526 74.6056 737.295 69.3448C753.129 75.76 766.655 106.484 773.221 126.216C765.461 110.961 741.584 108.511 728.426 109.442C728.105 109.458 727.782 109.483 727.458 109.518C727.774 109.491 728.097 109.465 728.426 109.442C745.601 108.602 759.288 135.12 764.051 148.734Z" fill="#569F5B"/>
<path d="M1028.47 148.734H892.325C889.807 118.891 861.109 93.5766 847.075 84.6495C884.849 96.1274 890.227 111.75 895.473 133.43C906.805 121.187 883.144 74.1272 869.897 52.128C892.246 52.128 905.441 106.329 909.245 133.43C915.54 85.9874 891.932 41.2881 879.34 24.8687C908.615 32.5207 922.492 100.431 925.771 133.43C931.122 111.621 921.18 71.4176 915.54 54.0418C934.112 59.3981 937.706 109.199 937.181 133.43C954.809 100.526 941.116 51.1718 932.066 30.6077C945.473 36.4492 952.493 80.5636 955.414 114.461C954.253 59.5413 970.934 17.4605 981.01 1.01485C981.226 0.497686 981.438 0.154538 981.644 -6.10352e-05C981.436 0.326553 981.225 0.664898 981.01 1.01485C976.954 10.7366 971.419 81.9509 969.053 118.127C978.182 81.0149 990.694 66.3168 995.809 63.6067L982.331 106.317C1002.43 53.3584 1028.69 47.4146 1040.67 52.128C1004.15 65.1363 995.547 111.749 995.809 133.43C999.587 94.7878 1036.99 74.6056 1055.22 69.3448C1039.39 75.76 1025.86 106.484 1019.3 126.216C1027.06 110.961 1050.94 108.511 1064.09 109.442C1064.41 109.458 1064.74 109.483 1065.06 109.518C1064.75 109.491 1064.42 109.465 1064.09 109.442C1046.92 108.602 1033.23 135.12 1028.47 148.734Z" fill="#1E7651"/>
<path d="M919.868 148.734H783.725C781.207 118.891 752.51 93.5766 738.476 84.6495C776.249 96.1274 781.627 111.75 786.873 133.43C798.205 121.187 774.544 74.1272 761.297 52.128C783.647 52.128 796.841 106.329 800.645 133.43C806.941 85.9874 783.332 41.2881 770.741 24.8687C800.015 32.5207 813.892 100.431 817.171 133.43C822.522 111.621 812.58 71.4176 806.941 54.0418C825.513 59.3981 829.106 109.199 828.582 133.43C846.21 100.526 832.517 51.1718 823.467 30.6077C836.873 36.4492 843.893 80.5636 846.815 114.461C845.654 59.5413 862.334 17.4605 872.411 1.01485C872.626 0.497686 872.838 0.154538 873.045 -6.10352e-05C872.837 0.326553 872.625 0.664898 872.411 1.01485C868.355 10.7366 862.82 81.9509 860.453 118.127C869.582 81.0149 882.095 66.3168 887.21 63.6067L873.732 106.317C893.831 53.3584 920.09 47.4146 932.066 52.128C895.552 65.1363 886.948 111.749 887.21 133.43C890.987 94.7878 928.394 74.6056 946.625 69.3448C930.791 75.76 917.265 106.484 910.699 126.216C918.459 110.961 942.336 108.511 955.494 109.442C955.815 109.458 956.138 109.483 956.462 109.518C956.146 109.491 955.823 109.465 955.494 109.442C938.318 108.602 924.632 135.12 919.868 148.734Z" fill="#1E7651"/>
<path d="M932.12 148.257H823.992C821.992 129.449 799.2 113.495 788.054 107.869C818.055 115.103 822.326 124.948 826.492 138.612C835.493 130.896 816.7 101.238 806.179 87.3731C823.93 87.3731 834.409 121.532 837.43 138.612C842.43 108.712 823.68 80.5415 813.679 70.1936C836.93 75.0161 847.951 117.815 850.555 138.612C854.806 124.867 846.91 99.5299 842.43 88.5792C857.181 91.9549 860.035 123.341 859.618 138.612C873.619 117.875 862.743 86.7705 855.556 73.8105C866.203 77.4919 871.779 105.294 874.099 126.657C873.177 92.0452 886.425 65.5247 894.428 55.1603C894.6 54.8343 894.768 54.6181 894.932 54.5206C894.766 54.7265 894.598 54.9397 894.428 55.1603C891.207 61.2872 886.811 106.168 884.931 128.967C892.182 105.578 902.119 96.3152 906.182 94.6073L895.477 121.524C911.441 88.1486 932.296 84.4026 941.808 87.3731C912.807 95.5713 905.974 124.948 906.182 138.612C909.182 114.258 938.891 101.539 953.371 98.2236C940.795 102.267 930.053 121.63 924.838 134.065C931.001 124.451 949.965 122.907 960.415 123.494C960.67 123.504 960.926 123.52 961.184 123.542C960.933 123.525 960.676 123.509 960.415 123.494C946.774 122.965 935.904 139.677 932.12 148.257Z" fill="#A0C330"/>
<path d="M859.258 148.257H919.22C920.329 138.085 932.968 129.457 939.149 126.414C922.513 130.326 920.144 135.651 917.833 143.04C912.842 138.867 923.264 122.828 929.098 115.33C919.255 115.33 913.443 133.804 911.768 143.04C908.995 126.87 919.393 111.635 924.939 106.039C912.045 108.647 905.934 131.793 904.489 143.04C902.132 135.607 906.511 121.904 908.995 115.982C900.815 117.808 899.233 134.782 899.464 143.04C891.7 131.826 897.731 115.004 901.717 107.995C895.812 109.986 892.72 125.022 891.433 136.575C891.945 117.856 884.598 103.514 880.16 97.9085C880.065 97.7322 879.972 97.6153 879.881 97.5626C879.972 97.6739 880.066 97.7892 880.16 97.9085C881.946 101.222 884.384 125.494 885.426 137.825C881.406 125.175 875.895 120.166 873.642 119.242L879.578 133.799C870.726 115.749 859.16 113.723 853.886 115.33C869.968 119.763 873.757 135.651 873.642 143.04C871.978 129.87 855.503 122.991 847.474 121.198C854.447 123.384 860.405 133.856 863.296 140.582C859.879 135.382 849.362 134.547 843.567 134.864C843.426 134.87 843.284 134.878 843.141 134.89C843.28 134.881 843.422 134.872 843.567 134.864C851.132 134.578 857.16 143.616 859.258 148.257Z" fill="#569F5B"/>
<path d="M739.641 148.257H799.603C800.712 138.085 813.351 129.457 819.532 126.414C802.895 130.326 800.527 135.651 798.216 143.04C793.225 138.867 803.646 122.828 809.481 115.33C799.637 115.33 793.826 133.804 792.151 143.04C789.378 126.87 799.776 111.635 805.322 106.039C792.428 108.647 786.316 131.793 784.872 143.04C782.515 135.607 786.894 121.904 789.378 115.982C781.198 117.808 779.615 134.782 779.846 143.04C772.083 131.826 778.113 115.004 782.099 107.995C776.195 109.986 773.103 125.022 771.816 136.575C772.327 117.856 764.981 103.514 760.543 97.9085C760.448 97.7322 760.355 97.6153 760.264 97.5626C760.355 97.6739 760.448 97.7892 760.543 97.9085C762.329 101.222 764.767 125.494 765.809 137.825C761.789 125.175 756.278 120.166 754.025 119.242L759.961 133.799C751.108 115.749 739.543 113.723 734.268 115.33C750.351 119.763 754.14 135.651 754.025 143.04C752.361 129.87 735.886 122.991 727.856 121.198C734.83 123.384 740.787 133.856 743.679 140.582C740.262 135.382 729.745 134.547 723.95 134.864C723.809 134.87 723.667 134.878 723.524 134.89C723.663 134.881 723.805 134.872 723.95 134.864C731.515 134.578 737.543 143.616 739.641 148.257Z" fill="#569F5B"/>
<path d="M915.918 148.257H975.88C976.989 138.085 989.629 129.457 995.81 126.414C979.173 130.326 976.804 135.651 974.494 143.04C969.503 138.867 979.924 122.828 985.758 115.33C975.915 115.33 970.103 133.804 968.428 143.04C965.655 126.87 976.053 111.635 981.599 106.039C968.705 108.647 962.594 131.793 961.15 143.04C958.793 135.607 963.171 121.904 965.655 115.982C957.476 117.808 955.893 134.782 956.124 143.04C948.36 131.826 954.391 115.004 958.377 107.995C952.472 109.986 949.38 125.022 948.093 136.575C948.605 117.856 941.258 103.514 936.82 97.9085C936.725 97.7322 936.632 97.6153 936.541 97.5626C936.633 97.6739 936.726 97.7892 936.82 97.9085C938.607 101.222 941.044 125.494 942.086 137.825C938.066 125.175 932.555 120.166 930.302 119.242L936.238 133.799C927.386 115.749 915.82 113.723 910.546 115.33C926.628 119.763 930.418 135.651 930.302 143.04C928.638 129.87 912.163 122.991 904.134 121.198C911.108 123.384 917.065 133.856 919.957 140.582C916.539 135.382 906.023 134.547 900.228 134.864C900.086 134.87 899.944 134.878 899.801 134.89C899.94 134.881 900.082 134.872 900.228 134.864C907.792 134.578 913.82 143.616 915.918 148.257Z" fill="#569F5B"/>
<path d="M967.858 148.257H1027.82C1028.93 138.085 1041.57 129.457 1047.75 126.414C1031.11 130.326 1028.74 135.651 1026.43 143.04C1021.44 138.867 1031.86 122.828 1037.7 115.33C1027.85 115.33 1022.04 133.804 1020.37 143.04C1017.59 126.87 1027.99 111.635 1033.54 106.039C1020.64 108.647 1014.53 131.793 1013.09 143.04C1010.73 135.607 1015.11 121.904 1017.59 115.982C1009.41 117.808 1007.83 134.782 1008.06 143.04C1000.3 131.826 1006.33 115.004 1010.32 107.995C1004.41 109.986 1001.32 125.022 1000.03 136.575C1000.54 117.856 993.197 103.514 988.76 97.9085C988.665 97.7322 988.571 97.6153 988.48 97.5626C988.572 97.6739 988.665 97.7892 988.76 97.9085C990.546 101.222 992.984 125.494 994.026 137.825C990.005 125.175 984.494 120.166 982.242 119.242L988.178 133.799C979.325 115.749 967.76 113.723 962.485 115.33C978.568 119.763 982.357 135.651 982.242 143.04C980.578 129.87 964.103 122.991 956.073 121.198C963.047 123.384 969.004 133.856 971.896 140.582C968.479 135.382 957.962 134.547 952.167 134.864C952.025 134.87 951.883 134.878 951.741 134.89C951.88 134.881 952.022 134.872 952.167 134.864C959.732 134.578 965.759 143.616 967.858 148.257Z" fill="#569F5B"/>
<path d="M1233.86 148.734H1097.72C1095.2 118.891 1066.5 93.5766 1052.47 84.6495C1090.24 96.1274 1095.62 111.75 1100.87 133.43C1112.2 121.187 1088.54 74.1272 1075.29 52.128C1097.64 52.128 1110.84 106.329 1114.64 133.43C1120.94 85.9874 1097.33 41.2881 1084.74 24.8687C1114.01 32.5207 1127.89 100.431 1131.17 133.43C1136.52 111.621 1126.58 71.4176 1120.94 54.0418C1139.51 59.3981 1143.1 109.199 1142.58 133.43C1160.2 100.526 1146.51 51.1718 1137.46 30.6077C1150.87 36.4492 1157.89 80.5636 1160.81 114.461C1159.65 59.5413 1176.33 17.4605 1186.41 1.01485C1186.62 0.497686 1186.83 0.154538 1187.04 -6.10352e-05C1186.83 0.326553 1186.62 0.664898 1186.41 1.01485C1182.35 10.7366 1176.81 81.9509 1174.45 118.127C1183.58 81.0149 1196.09 66.3168 1201.21 63.6067L1187.73 106.317C1207.83 53.3584 1234.09 47.4146 1246.06 52.128C1209.55 65.1363 1200.94 111.749 1201.21 133.43C1204.98 94.7878 1242.39 74.6056 1260.62 69.3448C1244.79 75.76 1231.26 106.484 1224.69 126.216C1232.45 110.961 1256.33 108.511 1269.49 109.442C1269.81 109.458 1270.13 109.483 1270.46 109.518C1270.14 109.491 1269.82 109.465 1269.49 109.442C1252.31 108.602 1238.63 135.12 1233.86 148.734Z" fill="#569F5B"/>
<path d="M996.99 148.734H1133.13C1135.65 118.891 1164.35 93.5766 1178.38 84.6495C1140.61 96.1274 1135.23 111.75 1129.99 133.43C1118.65 121.187 1142.31 74.1272 1155.56 52.128C1133.21 52.128 1120.02 106.329 1116.21 133.43C1109.92 85.9874 1133.53 41.2881 1146.12 24.8687C1116.84 32.5207 1102.97 100.431 1099.69 133.43C1094.34 111.621 1104.28 71.4176 1109.92 54.0418C1091.35 59.3981 1087.75 109.199 1088.28 133.43C1070.65 100.526 1084.34 51.1718 1093.39 30.6077C1079.99 36.4492 1072.96 80.5636 1070.04 114.461C1071.2 59.5413 1054.52 17.4605 1044.45 1.01485C1044.23 0.497686 1044.02 0.154538 1043.81 -6.10352e-05C1044.02 0.326553 1044.23 0.664898 1044.45 1.01485C1048.5 10.7366 1054.04 81.9509 1056.4 118.127C1047.28 81.0149 1034.76 66.3168 1029.65 63.6067L1043.13 106.317C1023.03 53.3584 996.768 47.4146 984.792 52.128C1021.31 65.1363 1029.91 111.749 1029.65 133.43C1025.87 94.7878 988.465 74.6056 970.234 69.3448C986.068 75.76 999.593 106.484 1006.16 126.216C998.4 110.961 974.522 108.511 961.365 109.442C961.043 109.458 960.721 109.483 960.397 109.518C960.712 109.491 961.035 109.465 961.365 109.442C978.54 108.602 992.226 135.12 996.99 148.734Z" fill="#569F5B"/>
<path d="M1261.41 148.734H1125.26C1122.75 118.891 1094.05 93.5766 1080.01 84.6495C1117.79 96.1274 1123.16 111.75 1128.41 133.43C1139.74 121.187 1116.08 74.1272 1102.84 52.128C1125.18 52.128 1138.38 106.329 1142.18 133.43C1148.48 85.9874 1124.87 41.2881 1112.28 24.8687C1141.55 32.5207 1155.43 100.431 1158.71 133.43C1164.06 111.621 1154.12 71.4176 1148.48 54.0418C1167.05 59.3981 1170.64 109.199 1170.12 133.43C1187.75 100.526 1174.05 51.1718 1165 30.6077C1178.41 36.4492 1185.43 80.5636 1188.35 114.461C1187.19 59.5413 1203.87 17.4605 1213.95 1.01485C1214.16 0.497686 1214.38 0.154538 1214.58 -6.10352e-05C1214.37 0.326553 1214.16 0.664898 1213.95 1.01485C1209.89 10.7366 1204.36 81.9509 1201.99 118.127C1211.12 81.0149 1223.63 66.3168 1228.75 63.6067L1215.27 106.317C1235.37 53.3584 1261.63 47.4146 1273.6 52.128C1237.09 65.1363 1228.49 111.749 1228.75 133.43C1232.53 94.7878 1269.93 74.6056 1288.16 69.3448C1272.33 75.76 1258.8 106.484 1252.24 126.216C1260 110.961 1283.87 108.511 1297.03 109.442C1297.35 109.458 1297.68 109.483 1298 109.518C1297.68 109.491 1297.36 109.465 1297.03 109.442C1279.86 108.602 1266.17 135.12 1261.41 148.734Z" fill="#1E7651"/>
<path d="M1152.81 148.734H1016.66C1014.15 118.891 985.448 93.5766 971.414 84.6495C1009.19 96.1274 1014.57 111.75 1019.81 133.43C1031.14 121.187 1007.48 74.1272 994.236 52.128C1016.59 52.128 1029.78 106.329 1033.58 133.43C1039.88 85.9874 1016.27 41.2881 1003.68 24.8687C1032.95 32.5207 1046.83 100.431 1050.11 133.43C1055.46 111.621 1045.52 71.4176 1039.88 54.0418C1058.45 59.3981 1062.04 109.199 1061.52 133.43C1079.15 100.526 1065.46 51.1718 1056.41 30.6077C1069.81 36.4492 1076.83 80.5636 1079.75 114.461C1078.59 59.5413 1095.27 17.4605 1105.35 1.01485C1105.56 0.497686 1105.78 0.154538 1105.98 -6.10352e-05C1105.77 0.326553 1105.56 0.664898 1105.35 1.01485C1101.29 10.7366 1095.76 81.9509 1093.39 118.127C1102.52 81.0149 1115.03 66.3168 1120.15 63.6067L1106.67 106.317C1126.77 53.3584 1153.03 47.4146 1165 52.128C1128.49 65.1363 1119.89 111.749 1120.15 133.43C1123.93 94.7878 1161.33 74.6056 1179.56 69.3448C1163.73 75.76 1150.2 106.484 1143.64 126.216C1151.4 110.961 1175.27 108.511 1188.43 109.442C1188.75 109.458 1189.08 109.483 1189.4 109.518C1189.08 109.491 1188.76 109.465 1188.43 109.442C1171.26 108.602 1157.57 135.12 1152.81 148.734Z" fill="#1E7651"/>
<path d="M1165.06 148.257H1056.93C1054.93 129.449 1032.14 113.495 1020.99 107.869C1050.99 115.103 1055.26 124.948 1059.43 138.612C1068.43 130.896 1049.64 101.238 1039.12 87.3731C1056.87 87.3731 1067.35 121.532 1070.37 138.612C1075.37 108.712 1056.62 80.5415 1046.62 70.1936C1069.87 75.0161 1080.89 117.815 1083.49 138.612C1087.74 124.867 1079.85 99.5299 1075.37 88.5792C1090.12 91.9549 1092.97 123.341 1092.56 138.612C1106.56 117.875 1095.68 86.7705 1088.49 73.8105C1099.14 77.4919 1104.72 105.294 1107.04 126.657C1106.12 92.0452 1119.36 65.5247 1127.37 55.1603C1127.54 54.8343 1127.71 54.6181 1127.87 54.5206C1127.7 54.7265 1127.54 54.9397 1127.37 55.1603C1124.15 61.2872 1119.75 106.168 1117.87 128.967C1125.12 105.578 1135.06 96.3152 1139.12 94.6073L1128.42 121.524C1144.38 88.1486 1165.23 84.4026 1174.75 87.3731C1145.75 95.5713 1138.91 124.948 1139.12 138.612C1142.12 114.258 1171.83 101.539 1186.31 98.2236C1173.73 102.267 1162.99 121.63 1157.78 134.065C1163.94 124.451 1182.9 122.907 1193.35 123.494C1193.61 123.504 1193.86 123.52 1194.12 123.542C1193.87 123.525 1193.61 123.509 1193.35 123.494C1179.71 122.965 1168.84 139.677 1165.06 148.257Z" fill="#A0C330"/>
<path d="M1092.2 148.257H1152.16C1153.27 138.085 1165.91 129.457 1172.09 126.414C1155.45 130.326 1153.08 135.651 1150.77 143.04C1145.78 138.867 1156.2 122.828 1162.04 115.33C1152.19 115.33 1146.38 133.804 1144.71 143.04C1141.93 126.87 1152.33 111.635 1157.88 106.039C1144.98 108.647 1138.87 131.793 1137.43 143.04C1135.07 135.607 1139.45 121.904 1141.93 115.982C1133.75 117.808 1132.17 134.782 1132.4 143.04C1124.64 131.826 1130.67 115.004 1134.65 107.995C1128.75 109.986 1125.66 125.022 1124.37 136.575C1124.88 117.856 1117.54 103.514 1113.1 97.9085C1113 97.7322 1112.91 97.6153 1112.82 97.5626C1112.91 97.6739 1113 97.7892 1113.1 97.9085C1114.88 101.222 1117.32 125.494 1118.36 137.825C1114.34 125.175 1108.83 120.166 1106.58 119.242L1112.52 133.799C1103.66 115.749 1092.1 113.723 1086.82 115.33C1102.91 119.763 1106.69 135.651 1106.58 143.04C1104.92 129.87 1088.44 122.991 1080.41 121.198C1087.38 123.384 1093.34 133.856 1096.23 140.582C1092.82 135.382 1082.3 134.547 1076.5 134.864C1076.36 134.87 1076.22 134.878 1076.08 134.89C1076.22 134.881 1076.36 134.872 1076.5 134.864C1084.07 134.578 1090.1 143.616 1092.2 148.257Z" fill="#569F5B"/>
<path d="M1022.94 148.257H1082.91C1084.01 138.085 1096.65 129.457 1102.83 126.414C1086.2 130.326 1083.83 135.651 1081.52 143.04C1076.53 138.867 1086.95 122.828 1092.78 115.33C1082.94 115.33 1077.13 133.804 1075.45 143.04C1072.68 126.87 1083.08 111.635 1088.62 106.039C1075.73 108.647 1069.62 131.793 1068.17 143.04C1065.82 135.607 1070.2 121.904 1072.68 115.982C1064.5 117.808 1062.92 134.782 1063.15 143.04C1055.39 131.826 1061.42 115.004 1065.4 107.995C1059.5 109.986 1056.41 125.022 1055.12 136.575C1055.63 117.856 1048.28 103.514 1043.85 97.9085C1043.75 97.7322 1043.66 97.6153 1043.57 97.5626C1043.66 97.6739 1043.75 97.7892 1043.85 97.9085C1045.63 101.222 1048.07 125.494 1049.11 137.825C1045.09 125.175 1039.58 120.166 1037.33 119.242L1043.26 133.799C1034.41 115.749 1022.85 113.723 1017.57 115.33C1033.65 119.763 1037.44 135.651 1037.33 143.04C1035.66 129.87 1019.19 122.991 1011.16 121.198C1018.13 123.384 1024.09 133.856 1026.98 140.582C1023.56 135.382 1013.05 134.547 1007.25 134.864C1007.11 134.87 1006.97 134.878 1006.83 134.89C1006.97 134.881 1007.11 134.872 1007.25 134.864C1014.82 134.578 1020.85 143.616 1022.94 148.257Z" fill="#569F5B"/>
<path d="M1148.86 148.257H1208.82C1209.93 138.085 1222.57 129.457 1228.75 126.414C1212.11 130.326 1209.74 135.651 1207.43 143.04C1202.44 138.867 1212.86 122.828 1218.7 115.33C1208.85 115.33 1203.04 133.804 1201.37 143.04C1198.59 126.87 1208.99 111.635 1214.54 106.039C1201.64 108.647 1195.53 131.793 1194.09 143.04C1191.73 135.607 1196.11 121.904 1198.59 115.982C1190.41 117.808 1188.83 134.782 1189.06 143.04C1181.3 131.826 1187.33 115.004 1191.32 107.995C1185.41 109.986 1182.32 125.022 1181.03 136.575C1181.54 117.856 1174.2 103.514 1169.76 97.9085C1169.66 97.7322 1169.57 97.6153 1169.48 97.5626C1169.57 97.6739 1169.66 97.7892 1169.76 97.9085C1171.54 101.222 1173.98 125.494 1175.02 137.825C1171 125.175 1165.49 120.166 1163.24 119.242L1169.18 133.799C1160.32 115.749 1148.76 113.723 1143.48 115.33C1159.57 119.763 1163.36 135.651 1163.24 143.04C1161.58 129.87 1145.1 122.991 1137.07 121.198C1144.05 123.384 1150 133.856 1152.9 140.582C1149.48 135.382 1138.96 134.547 1133.17 134.864C1133.02 134.87 1132.88 134.878 1132.74 134.89C1132.88 134.881 1133.02 134.872 1133.17 134.864C1140.73 134.578 1146.76 143.616 1148.86 148.257Z" fill="#569F5B"/>
<path d="M1200.8 148.257H1260.76C1261.87 138.085 1274.51 129.457 1280.69 126.414C1264.05 130.326 1261.68 135.651 1259.37 143.04C1254.38 138.867 1264.8 122.828 1270.64 115.33C1260.79 115.33 1254.98 133.804 1253.31 143.04C1250.53 126.87 1260.93 111.635 1266.48 106.039C1253.58 108.647 1247.47 131.793 1246.03 143.04C1243.67 135.607 1248.05 121.904 1250.53 115.982C1242.35 117.808 1240.77 134.782 1241 143.04C1233.24 131.826 1239.27 115.004 1243.25 107.995C1237.35 109.986 1234.26 125.022 1232.97 136.575C1233.48 117.856 1226.14 103.514 1221.7 97.9085C1221.6 97.7322 1221.51 97.6153 1221.42 97.5626C1221.51 97.6739 1221.6 97.7892 1221.7 97.9085C1223.48 101.222 1225.92 125.494 1226.96 137.825C1222.94 125.175 1217.43 120.166 1215.18 119.242L1221.12 133.799C1212.26 115.749 1200.7 113.723 1195.42 115.33C1211.51 119.763 1215.3 135.651 1215.18 143.04C1213.52 129.87 1197.04 122.991 1189.01 121.198C1195.99 123.384 1201.94 133.856 1204.83 140.582C1201.42 135.382 1190.9 134.547 1185.11 134.864C1184.96 134.87 1184.82 134.878 1184.68 134.89C1184.82 134.881 1184.96 134.872 1185.11 134.864C1192.67 134.578 1198.7 143.616 1200.8 148.257Z" fill="#569F5B"/>
</svg>
