<svg width="510" height="510" viewBox="0 0 510 510" fill="none" xmlns="http://www.w3.org/2000/svg">
<circle cx="255" cy="255" r="255" fill="#25540E"/>
<mask id="mask0_285_30" style="mask-type:alpha" maskUnits="userSpaceOnUse" x="0" y="0" width="510" height="510">
<circle cx="255" cy="255" r="255" fill="#25540E"/>
</mask>
<g mask="url(#mask0_285_30)">
<path d="M262.032 215.14H240.768C201.075 72.671 181.229 67 181.229 67C158.547 83.3027 127.359 220.811 118.854 253.416C110.348 286.021 56.4787 337.055 72.0724 462.514C87.6661 587.972 240.768 561.747 315.193 558.203C389.617 554.658 417.97 539.065 434.981 462.514C451.992 385.963 403.085 287.439 392.453 253.416L392.024 252.045C380.827 216.203 343.177 95.6833 315.193 67C294.212 78.9079 271.011 170.722 262.032 215.14Z" fill="white"/>
<path d="M84.8309 532.686C52.9346 514.363 33.3243 535.521 26 551.824L120.271 553.95C119.562 553.241 96.8806 539.608 84.8309 532.686Z" fill="white"/>
<path d="M472.548 532.686C458.903 517.092 415.371 536.703 395.997 553.95H483.889C483.416 550.642 480.486 541.759 472.548 532.686Z" fill="white"/>
<ellipse cx="178.392" cy="309.411" rx="55.2346" ry="60.4566" transform="rotate(-2.80015 178.392 309.411)" fill="#25540E"/>
<ellipse cx="178.393" cy="309.177" rx="42.9984" ry="49.4659" transform="rotate(-2.80015 178.393 309.177)" fill="white"/>
<ellipse cx="177.684" cy="301.615" rx="12.0497" ry="12.7585" fill="#25540E"/>
<ellipse cx="328.659" cy="309.411" rx="55.2346" ry="60.4566" transform="rotate(-2.80015 328.659 309.411)" fill="#25540E"/>
<ellipse cx="328.66" cy="309.177" rx="42.9984" ry="49.4659" transform="rotate(-2.80015 328.66 309.177)" fill="white"/>
<ellipse cx="327.952" cy="301.615" rx="12.0497" ry="12.7585" fill="#25540E"/>
</g>
</svg>
